{"glyphs":{"0":{"ha":713,"x_min":56,"x_max":656,"o":"m 356 -17 q 137 102 218 -17 q 56 446 56 221 q 137 785 56 669 q 356 900 218 900 q 574 785 493 900 q 656 446 656 669 q 574 102 656 221 q 356 -17 493 -17 m 356 108 q 432 140 399 108 q 484 247 465 172 q 503 446 503 321 q 484 643 503 571 q 432 745 465 715 q 356 775 399 775 q 281 745 314 775 q 228 643 247 715 q 208 446 208 571 q 228 247 208 321 q 281 140 247 172 q 356 108 314 108 z "},"1":{"ha":713,"x_min":103,"x_max":635,"o":"m 103 0 l 103 131 l 300 131 l 300 711 l 138 711 l 138 811 q 251 841 203 824 q 342 883 300 858 l 461 883 l 461 131 l 635 131 l 635 0 l 103 0 z "},"2":{"ha":713,"x_min":49,"x_max":650,"o":"m 53 0 l 53 99 q 265 306 175 213 q 403 477 354 400 q 453 621 453 554 q 416 733 453 692 q 307 774 379 774 q 213 744 256 774 q 135 675 171 715 l 49 760 q 174 863 108 826 q 328 900 239 900 q 475 867 413 900 q 572 773 538 833 q 607 631 607 713 q 562 468 607 549 q 440 303 517 388 q 271 126 364 219 q 347 133 306 131 q 419 136 388 136 l 650 136 l 650 0 l 53 0 z "},"3":{"ha":713,"x_min":33,"x_max":643,"o":"m 333 -17 q 206 0 263 -17 q 107 45 150 17 q 33 108 64 74 l 110 211 q 201 142 150 171 q 319 114 253 114 q 437 149 392 114 q 482 247 482 185 q 459 326 482 293 q 380 378 436 360 q 222 397 324 397 l 222 514 q 360 533 310 514 q 431 583 410 551 q 453 656 453 614 q 418 742 453 711 q 322 774 383 774 q 228 751 271 774 q 144 690 185 728 l 63 789 q 185 869 119 839 q 328 900 250 900 q 476 873 413 900 q 577 794 540 846 q 614 667 614 742 q 573 543 614 593 q 460 464 532 493 l 460 458 q 553 415 511 444 q 619 342 594 386 q 643 239 643 297 q 601 101 643 158 q 488 13 558 43 q 333 -17 418 -17 z "},"4":{"ha":713,"x_min":25,"x_max":676,"o":"m 415 0 l 415 551 q 418 643 415 589 q 422 735 421 697 l 417 735 q 382 667 400 701 q 344 597 364 633 l 183 351 l 676 351 l 676 228 l 25 228 l 25 336 l 375 883 l 565 883 l 565 0 l 415 0 z "},"5":{"ha":713,"x_min":33,"x_max":646,"o":"m 335 -17 q 207 0 263 -17 q 108 45 151 17 q 33 106 65 74 l 107 208 q 197 142 147 171 q 314 114 247 114 q 402 134 364 114 q 463 192 440 154 q 485 283 485 231 q 440 406 485 363 q 322 449 394 449 q 251 437 281 449 q 181 399 221 425 l 104 447 l 131 883 l 603 883 l 603 749 l 269 749 l 251 535 q 306 556 279 549 q 368 564 333 564 q 506 534 443 564 q 608 443 569 504 q 646 288 646 382 q 602 122 646 190 q 488 19 558 54 q 335 -17 417 -17 z "},"6":{"ha":713,"x_min":61,"x_max":660,"o":"m 382 -17 q 259 9 317 -17 q 157 88 201 35 q 87 222 113 140 q 61 415 61 304 q 90 635 61 543 q 167 786 118 728 q 278 872 217 844 q 408 900 340 900 q 547 871 489 900 q 644 800 606 842 l 558 703 q 497 751 535 732 q 418 769 458 769 q 313 736 361 769 q 238 625 265 703 q 210 415 210 547 q 231 238 210 306 q 291 138 253 169 q 379 106 329 106 q 447 125 417 106 q 494 182 476 144 q 511 274 511 219 q 494 361 511 326 q 447 413 478 396 q 372 431 417 431 q 290 406 333 431 q 208 321 246 382 l 203 433 q 296 517 240 488 q 401 547 351 547 q 536 517 478 547 q 627 426 594 488 q 660 274 660 365 q 622 119 660 185 q 520 19 583 54 q 382 -17 457 -17 z "},"7":{"ha":713,"x_min":61,"x_max":654,"o":"m 222 0 q 245 216 229 118 q 292 402 261 314 q 368 574 322 490 q 481 749 414 658 l 61 749 l 61 883 l 654 883 l 654 786 q 524 601 575 689 q 446 424 474 514 q 405 232 418 335 q 385 0 392 129 l 222 0 z "},"8":{"ha":713,"x_min":57,"x_max":656,"o":"m 357 -17 q 203 15 271 -17 q 96 101 135 46 q 57 226 57 156 q 79 324 57 282 q 138 399 101 367 q 217 453 175 431 l 217 458 q 131 546 167 496 q 94 665 94 596 q 129 790 94 736 q 224 872 164 843 q 361 900 285 900 q 551 834 481 900 q 621 661 621 768 q 603 579 621 618 q 559 510 586 540 q 503 458 532 479 l 503 453 q 578 399 543 431 q 634 326 613 368 q 656 224 656 283 q 618 101 656 156 q 514 15 581 47 q 357 -17 447 -17 m 415 499 q 470 572 451 535 q 489 651 489 610 q 474 721 489 690 q 429 769 458 751 q 358 786 400 786 q 272 754 307 786 q 238 665 238 722 q 262 591 238 621 q 326 540 286 561 q 415 499 367 518 m 360 97 q 435 113 403 97 q 487 158 468 129 q 506 229 506 188 q 477 308 506 276 q 401 362 449 339 q 293 408 353 385 q 225 337 253 379 q 197 243 197 294 q 219 166 197 199 q 277 115 240 133 q 360 97 314 97 z "},"9":{"ha":713,"x_min":51,"x_max":649,"o":"m 301 -17 q 164 13 222 -17 q 65 83 106 43 l 151 181 q 215 133 176 153 q 293 114 253 114 q 397 147 350 114 q 473 258 444 181 q 501 469 501 336 q 480 647 501 578 q 420 747 458 715 q 331 778 382 778 q 265 758 294 778 q 217 702 235 739 q 199 611 199 665 q 215 524 199 558 q 263 471 232 489 q 339 453 294 453 q 421 478 378 453 q 501 563 464 503 l 508 450 q 415 368 471 399 q 308 338 358 338 q 175 367 233 338 q 84 458 117 397 q 51 611 51 518 q 90 764 51 699 q 190 865 128 829 q 329 900 253 900 q 452 874 394 900 q 553 796 510 849 q 623 662 597 743 q 649 469 649 581 q 620 248 649 340 q 543 97 592 156 q 432 11 494 39 q 301 -17 369 -17 z "}," ":{"ha":278,"x_min":0,"x_max":0,"o":""}," ":{"ha":278,"x_min":0,"x_max":0,"o":""},"A":{"ha":775,"x_min":-3,"x_max":778,"o":"m -3 0 l 293 908 l 482 908 l 778 0 l 608 0 l 469 483 q 427 632 447 556 q 388 783 407 708 l 382 783 q 344 631 364 707 q 301 483 324 556 l 161 0 l -3 0 m 172 246 l 172 372 l 600 372 l 600 246 l 172 246 z "},"B":{"ha":829,"x_min":115,"x_max":778,"o":"m 115 0 l 115 908 l 406 908 q 573 887 500 908 q 688 817 646 865 q 731 685 731 768 q 698 562 731 615 q 604 488 665 508 l 604 482 q 731 415 685 465 q 778 274 778 364 q 733 119 778 181 q 608 29 688 58 q 429 0 529 0 l 115 0 m 276 533 l 392 533 q 529 568 486 533 q 572 661 572 603 q 528 756 572 728 q 394 783 483 783 l 276 783 l 276 533 m 276 125 l 413 125 q 567 162 513 125 q 621 275 621 199 q 568 380 621 347 q 413 413 515 413 l 276 413 l 276 125 z "},"C":{"ha":800,"x_min":68,"x_max":761,"o":"m 481 -17 q 272 38 365 -17 q 123 197 178 92 q 68 451 68 301 q 100 651 68 563 q 190 800 132 739 q 322 893 247 861 q 483 925 397 925 q 636 891 569 925 q 746 810 703 857 l 660 711 q 583 766 625 747 q 488 785 540 785 q 358 744 415 785 q 267 631 300 704 q 233 456 233 557 q 265 277 233 351 q 356 163 297 203 q 492 124 414 124 q 596 147 550 124 q 679 210 642 171 l 761 114 q 636 17 706 50 q 481 -17 567 -17 z "},"D":{"ha":868,"x_min":115,"x_max":800,"o":"m 115 0 l 115 908 l 358 908 q 596 858 497 908 q 747 708 694 808 q 800 458 800 608 q 748 206 800 308 q 599 52 696 104 q 367 0 501 0 l 115 0 m 276 131 l 347 131 q 503 166 439 131 q 601 274 568 201 q 635 458 635 346 q 601 640 635 569 q 503 744 568 711 q 347 778 439 778 l 276 778 l 276 131 z "},"E":{"ha":747,"x_min":115,"x_max":676,"o":"m 115 0 l 115 908 l 663 908 l 663 772 l 276 772 l 276 540 l 603 540 l 603 404 l 276 404 l 276 136 l 676 136 l 676 0 l 115 0 z "},"F":{"ha":708,"x_min":115,"x_max":664,"o":"m 115 0 l 115 908 l 664 908 l 664 772 l 276 772 l 276 515 l 607 515 l 607 379 l 276 379 l 276 0 l 115 0 z "},"G":{"ha":872,"x_min":68,"x_max":786,"o":"m 496 -17 q 276 38 374 -17 q 124 197 179 92 q 68 451 68 301 q 101 650 68 563 q 192 799 133 738 q 329 893 251 861 q 497 925 407 925 q 663 890 594 925 q 772 810 731 856 l 686 711 q 610 765 653 744 q 503 785 567 785 q 361 745 422 785 q 267 632 300 706 q 233 456 233 558 q 265 278 233 353 q 359 163 297 203 q 511 124 421 124 q 585 134 550 124 q 642 164 619 144 l 642 360 l 469 360 l 469 492 l 786 492 l 786 92 q 665 15 740 46 q 496 -17 589 -17 z "},"H":{"ha":921,"x_min":115,"x_max":806,"o":"m 115 0 l 115 908 l 276 908 l 276 543 l 644 543 l 644 908 l 806 908 l 806 0 l 644 0 l 644 403 l 276 403 l 276 0 l 115 0 z "},"I":{"ha":392,"x_min":115,"x_max":276,"o":"m 115 0 l 115 908 l 276 908 l 276 0 l 115 0 z "},"J":{"ha":686,"x_min":36,"x_max":575,"o":"m 294 -17 q 141 22 206 -17 q 36 140 76 60 l 140 211 q 201 146 164 168 q 281 124 238 124 q 381 164 349 124 q 414 304 414 204 l 414 908 l 575 908 l 575 290 q 546 136 575 206 q 455 25 517 67 q 294 -17 393 -17 z "},"K":{"ha":829,"x_min":115,"x_max":831,"o":"m 115 0 l 115 908 l 276 908 l 276 496 l 281 496 l 604 908 l 783 908 l 504 554 l 831 0 l 653 0 l 407 428 l 276 265 l 276 0 l 115 0 z "},"L":{"ha":697,"x_min":115,"x_max":654,"o":"m 115 0 l 115 908 l 276 908 l 276 136 l 654 136 l 654 0 l 115 0 z "},"M":{"ha":1035,"x_min":115,"x_max":919,"o":"m 115 0 l 115 908 l 308 908 l 464 464 q 492 378 479 421 q 517 286 504 336 l 522 286 q 547 378 535 336 q 572 464 558 421 l 728 908 l 919 908 l 919 0 l 771 0 l 771 414 q 774 513 771 457 q 783 623 778 568 q 794 719 789 678 l 789 719 l 717 489 l 569 83 l 461 83 l 314 489 l 244 719 l 239 719 q 249 623 244 678 q 258 513 254 568 q 261 414 261 457 l 261 0 l 115 0 z "},"N":{"ha":913,"x_min":115,"x_max":796,"o":"m 115 0 l 115 908 l 292 908 l 564 408 q 612 310 589 363 q 656 203 635 257 l 661 203 q 649 356 656 276 q 642 511 642 436 l 642 908 l 796 908 l 796 0 l 619 0 l 347 500 q 298 599 322 546 q 253 706 274 651 l 247 706 q 263 555 256 635 q 269 397 269 475 l 269 0 l 115 0 z "},"O":{"ha":936,"x_min":68,"x_max":869,"o":"m 468 -17 q 260 41 350 -17 q 119 205 169 99 q 68 458 68 311 q 119 710 68 606 q 260 869 169 814 q 468 925 350 925 q 678 869 588 925 q 819 710 768 814 q 869 458 869 606 q 819 205 869 311 q 678 41 768 99 q 468 -17 588 -17 m 468 124 q 592 165 540 124 q 674 281 644 206 q 703 458 703 357 q 674 633 703 560 q 592 745 644 706 q 468 785 540 785 q 344 745 397 785 q 263 633 292 706 q 233 458 233 560 q 263 281 233 357 q 344 165 292 206 q 468 124 397 124 z "},"P":{"ha":808,"x_min":115,"x_max":753,"o":"m 115 0 l 115 908 l 401 908 q 582 882 503 908 q 707 794 661 856 q 753 628 753 733 q 708 463 753 528 q 584 365 663 397 q 407 333 506 333 l 276 333 l 276 0 l 115 0 m 276 463 l 394 463 q 545 504 496 463 q 594 628 594 546 q 542 747 594 714 q 389 779 490 779 l 276 779 l 276 463 z "},"Q":{"ha":936,"x_min":68,"x_max":903,"o":"m 468 -17 q 260 41 350 -17 q 119 205 169 99 q 68 458 68 311 q 119 709 68 604 q 260 869 169 814 q 468 925 350 925 q 676 869 586 925 q 818 709 767 814 q 869 458 869 604 q 818 205 869 311 q 676 41 767 99 q 468 -17 586 -17 m 468 115 q 593 157 540 115 q 674 275 646 199 q 703 458 703 351 q 674 633 703 560 q 593 745 646 706 q 468 785 540 785 q 344 745 397 785 q 263 633 292 706 q 233 458 233 560 q 263 275 233 351 q 344 157 292 199 q 468 115 397 115 m 757 -242 q 522 -171 617 -242 q 386 6 428 -100 l 551 19 q 603 -54 569 -25 q 682 -97 638 -83 q 775 -110 726 -110 q 830 -106 806 -110 q 874 -97 854 -103 l 903 -214 q 842 -233 881 -225 q 757 -242 804 -242 z "},"R":{"ha":822,"x_min":115,"x_max":792,"o":"m 115 0 l 115 908 l 422 908 q 592 883 517 908 q 711 799 667 858 q 756 639 756 740 q 711 479 756 542 q 592 386 667 417 q 422 356 517 356 l 276 356 l 276 0 l 115 0 m 276 483 l 406 483 q 548 522 499 483 q 597 639 597 561 q 548 748 597 717 q 406 779 499 779 l 276 779 l 276 483 m 611 0 l 392 399 l 508 494 l 792 0 l 611 0 z "},"S":{"ha":757,"x_min":53,"x_max":707,"o":"m 381 -17 q 202 18 286 -17 q 53 117 118 53 l 140 222 q 253 149 189 175 q 383 124 318 124 q 501 156 461 124 q 542 240 542 188 q 524 301 542 278 q 474 340 506 324 q 401 374 443 357 l 276 428 q 190 478 232 447 q 120 556 147 510 q 93 669 93 603 q 133 799 93 742 q 241 891 172 857 q 399 925 310 925 q 553 895 481 925 q 678 814 626 865 l 593 708 q 500 765 549 744 q 399 785 451 785 q 295 756 335 785 q 256 678 256 728 q 276 620 256 643 q 330 581 296 597 q 400 550 364 565 l 524 499 q 619 443 578 475 q 684 365 661 411 q 707 253 707 319 q 668 118 707 179 q 556 20 629 57 q 381 -17 483 -17 z "},"T":{"ha":758,"x_min":36,"x_max":722,"o":"m 299 0 l 299 772 l 36 772 l 36 908 l 722 908 l 722 772 l 460 772 l 460 0 l 299 0 z "},"U":{"ha":910,"x_min":111,"x_max":799,"o":"m 456 -17 q 313 6 376 -17 q 205 76 250 28 q 135 203 160 125 q 111 390 111 281 l 111 908 l 272 908 l 272 378 q 295 226 272 282 q 360 147 318 171 q 456 124 401 124 q 553 147 511 124 q 620 226 596 171 q 644 378 644 282 l 644 908 l 799 908 l 799 390 q 775 203 799 281 q 706 76 751 125 q 598 6 661 28 q 456 -17 535 -17 z "},"V":{"ha":744,"x_min":-6,"x_max":750,"o":"m 272 0 l -6 908 l 165 908 l 288 451 q 314 352 301 400 q 340 256 326 304 q 368 157 353 208 l 374 157 q 400 256 388 208 q 426 352 413 304 q 453 451 439 400 l 585 908 l 750 908 l 463 0 l 272 0 z "},"W":{"ha":1111,"x_min":25,"x_max":1086,"o":"m 200 0 l 25 908 l 197 908 l 275 450 q 296 305 286 378 q 314 153 306 232 l 319 153 q 346 305 332 232 q 375 450 360 378 l 481 908 l 639 908 l 742 450 q 772 306 757 379 q 800 153 788 232 l 806 153 q 824 305 814 232 q 844 450 835 378 l 922 908 l 1086 908 l 911 0 l 697 0 l 594 478 q 576 581 585 528 q 558 697 567 635 l 553 697 q 539 581 547 635 q 519 478 531 528 l 414 0 l 200 0 z "},"X":{"ha":751,"x_min":18,"x_max":733,"o":"m 18 0 l 276 468 l 35 908 l 214 908 l 314 707 q 347 643 332 676 q 383 568 363 610 l 389 568 q 420 643 406 610 q 450 707 435 676 l 546 908 l 717 908 l 475 461 l 733 0 l 554 0 l 443 214 q 408 285 425 250 q 369 363 390 321 l 364 363 q 331 285 347 321 q 297 214 314 250 l 189 0 l 18 0 z "},"Y":{"ha":696,"x_min":-6,"x_max":701,"o":"m 267 0 l 267 338 l -6 908 l 167 908 l 265 676 q 304 577 285 625 q 346 476 324 529 l 351 476 q 394 577 374 529 q 435 676 415 625 l 533 908 l 701 908 l 428 338 l 428 0 l 267 0 z "},"Z":{"ha":750,"x_min":56,"x_max":697,"o":"m 56 0 l 56 97 l 494 772 l 96 772 l 96 908 l 694 908 l 694 811 l 254 136 l 697 136 l 697 0 l 56 0 z "},"a":{"ha":717,"x_min":64,"x_max":626,"o":"m 267 -17 q 161 8 207 -17 q 90 78 115 33 q 64 183 64 124 q 160 358 64 299 q 467 439 257 417 q 453 503 465 474 q 415 549 442 532 q 342 567 388 567 q 244 549 292 567 q 150 503 196 531 l 92 611 q 174 655 129 635 q 268 687 218 675 q 372 699 318 699 q 513 665 457 699 q 598 565 569 631 q 626 403 626 499 l 626 0 l 494 0 l 483 75 l 478 75 q 379 10 431 36 q 267 -17 328 -17 m 317 114 q 394 131 358 114 q 467 183 429 149 l 467 328 q 319 299 374 317 q 242 255 265 281 q 219 194 219 229 q 247 133 219 151 q 317 114 275 114 z "},"b":{"ha":782,"x_min":101,"x_max":724,"o":"m 432 -17 q 338 6 386 -17 q 246 72 290 29 l 242 72 l 228 0 l 101 0 l 101 981 l 261 981 l 261 728 l 257 614 q 351 675 300 651 q 454 699 401 699 q 599 656 539 699 q 692 535 660 613 q 724 353 724 458 q 682 153 724 236 q 574 27 640 71 q 432 -17 508 -17 m 399 115 q 481 142 444 115 q 538 220 517 168 q 558 350 558 272 q 543 467 558 418 q 495 541 528 515 q 411 567 463 567 q 338 548 374 567 q 261 490 301 529 l 261 172 q 333 128 297 142 q 399 115 369 115 z "},"c":{"ha":642,"x_min":57,"x_max":608,"o":"m 389 -17 q 219 26 294 -17 q 101 148 144 68 q 57 340 57 228 q 104 534 57 454 q 230 656 151 614 q 399 699 308 699 q 513 677 464 699 q 599 622 563 656 l 522 522 q 472 556 500 543 q 407 568 443 568 q 311 540 353 568 q 245 460 269 511 q 221 340 221 410 q 244 222 221 272 q 309 142 268 171 q 404 114 350 114 q 480 129 444 114 q 543 168 515 144 l 608 69 q 509 7 565 31 q 389 -17 453 -17 z "},"d":{"ha":783,"x_min":60,"x_max":682,"o":"m 340 -17 q 136 78 213 -17 q 60 340 60 172 q 101 532 60 451 q 208 656 142 613 q 349 699 274 699 q 448 679 407 699 q 528 624 489 660 l 522 733 l 522 981 l 682 981 l 682 0 l 550 0 l 539 74 l 533 74 q 446 10 496 36 q 340 -17 396 -17 m 379 115 q 454 134 419 115 q 522 192 489 153 l 522 510 q 453 554 488 542 q 383 567 418 567 q 303 540 339 567 q 247 464 268 514 q 225 342 225 414 q 265 174 225 232 q 379 115 306 115 z "},"e":{"ha":704,"x_min":56,"x_max":653,"o":"m 394 -17 q 222 26 299 -17 q 100 148 144 68 q 56 342 56 228 q 101 533 56 453 q 219 656 147 613 q 372 699 292 699 q 528 657 465 699 q 622 542 590 615 q 653 375 653 469 q 651 332 653 353 q 644 292 649 311 l 175 292 l 175 414 l 511 414 q 478 530 511 488 q 375 572 444 572 q 299 551 336 572 q 238 481 263 531 q 214 342 214 431 q 242 210 214 261 q 315 135 269 160 q 414 111 361 111 q 498 124 458 111 q 572 158 538 136 l 628 56 q 520 3 581 22 q 394 -17 460 -17 z "},"f":{"ha":440,"x_min":28,"x_max":481,"o":"m 129 0 l 129 753 q 152 879 129 824 q 225 966 175 935 q 356 997 275 997 q 426 990 393 997 q 481 974 458 983 l 447 858 q 375 871 411 871 q 311 843 333 871 q 289 756 289 815 l 289 0 l 129 0 m 28 556 l 28 675 l 139 682 l 422 682 l 422 556 l 28 556 z "},"g":{"ha":722,"x_min":56,"x_max":703,"o":"m 339 -301 q 193 -282 257 -301 q 92 -223 129 -262 q 56 -124 56 -183 q 81 -44 56 -81 q 153 22 107 -7 l 153 28 q 110 72 128 44 q 92 142 92 100 q 115 214 92 181 q 167 268 138 247 l 167 274 q 105 347 132 300 q 78 454 78 394 q 115 587 78 532 q 214 670 153 642 q 347 699 275 699 q 401 694 375 699 q 447 682 428 690 l 692 682 l 692 564 l 564 564 l 564 558 q 594 510 583 538 q 606 447 606 483 q 571 321 606 372 q 478 243 536 269 q 347 217 419 217 q 301 221 325 217 q 254 235 278 225 q 231 207 240 221 q 221 169 221 193 q 246 124 221 140 q 332 107 271 107 l 453 107 q 640 67 576 107 q 703 -61 703 28 q 658 -183 703 -128 q 532 -269 614 -237 q 339 -301 450 -301 m 347 317 q 406 333 379 317 q 449 380 433 349 q 465 454 465 411 q 431 554 465 519 q 347 589 397 589 q 263 554 297 589 q 228 454 228 519 q 244 380 228 411 q 288 333 261 349 q 347 317 314 317 m 364 -197 q 460 -183 418 -197 q 525 -142 501 -168 q 549 -87 549 -117 q 517 -33 549 -47 q 428 -19 486 -19 l 335 -19 q 285 -17 307 -19 q 242 -10 263 -14 q 202 -53 215 -31 q 189 -100 189 -75 q 236 -172 189 -146 q 364 -197 283 -197 z "},"h":{"ha":775,"x_min":101,"x_max":683,"o":"m 101 0 l 101 981 l 261 981 l 261 728 l 256 596 q 351 667 299 636 q 474 699 404 699 q 633 628 583 699 q 683 428 683 557 l 683 0 l 524 0 l 524 407 q 499 526 524 492 q 417 561 474 561 q 338 540 372 561 q 261 476 304 518 l 261 0 l 101 0 z "},"i":{"ha":364,"x_min":85,"x_max":278,"o":"m 101 0 l 101 682 l 261 682 l 261 0 l 101 0 m 181 801 q 112 826 139 801 q 85 893 85 851 q 112 959 85 935 q 181 983 139 983 q 250 959 224 983 q 276 893 276 935 q 250 826 276 851 q 181 801 224 801 z "},"j":{"ha":365,"x_min":-64,"x_max":279,"o":"m 47 -286 q -17 -281 11 -286 q -64 -267 -44 -275 l -33 -149 q -4 -156 -19 -153 q 25 -160 11 -160 q 87 -128 71 -160 q 103 -37 103 -97 l 103 682 l 264 682 l 264 -35 q 243 -164 264 -107 q 175 -253 222 -221 q 47 -286 128 -286 m 183 801 q 115 826 142 801 q 88 893 88 851 q 115 959 88 935 q 183 983 142 983 q 253 959 226 983 q 279 893 279 935 q 253 826 279 851 q 183 801 226 801 z "},"k":{"ha":725,"x_min":101,"x_max":714,"o":"m 101 0 l 101 981 l 260 981 l 260 369 l 264 369 l 514 682 l 690 682 l 458 403 l 714 0 l 540 0 l 365 296 l 260 175 l 260 0 l 101 0 z "},"l":{"ha":376,"x_min":101,"x_max":342,"o":"m 257 -14 q 166 9 200 -14 q 117 75 132 32 q 101 178 101 118 l 101 981 l 261 981 l 261 169 q 272 128 261 139 q 297 117 283 117 q 308 117 303 117 q 321 119 313 118 l 342 0 q 306 -10 328 -6 q 257 -14 285 -14 z "},"m":{"ha":1171,"x_min":101,"x_max":1078,"o":"m 101 0 l 101 682 l 233 682 l 244 589 l 250 589 q 344 667 293 635 q 458 699 394 699 q 579 667 535 699 q 647 576 624 635 q 749 664 696 629 q 867 699 801 699 q 1026 628 975 699 q 1078 428 1078 557 l 1078 0 l 917 0 l 917 407 q 892 526 917 492 q 813 561 867 561 q 744 540 779 561 q 669 476 710 519 l 669 0 l 510 0 l 510 407 q 484 526 510 492 q 404 561 458 561 q 261 476 340 561 l 261 0 l 101 0 z "},"n":{"ha":778,"x_min":101,"x_max":683,"o":"m 101 0 l 101 682 l 233 682 l 244 590 l 250 590 q 350 667 296 635 q 474 699 404 699 q 633 628 583 699 q 683 428 683 557 l 683 0 l 524 0 l 524 407 q 499 526 524 492 q 417 561 474 561 q 338 540 372 561 q 261 476 304 518 l 261 0 l 101 0 z "},"o":{"ha":763,"x_min":57,"x_max":706,"o":"m 381 -17 q 222 26 296 -17 q 103 148 149 68 q 57 340 57 228 q 103 534 57 454 q 222 656 149 614 q 381 699 296 699 q 540 656 467 699 q 660 534 614 614 q 706 340 706 454 q 660 148 706 228 q 540 26 614 68 q 381 -17 467 -17 m 381 114 q 467 142 431 114 q 522 221 503 169 q 542 340 542 272 q 522 460 542 408 q 467 540 503 511 q 381 568 431 568 q 295 540 331 568 q 240 460 260 511 q 221 340 221 408 q 240 221 221 272 q 295 142 260 169 q 381 114 331 114 z "},"p":{"ha":783,"x_min":101,"x_max":724,"o":"m 101 -269 l 101 682 l 233 682 l 244 610 l 250 610 q 346 673 293 647 q 456 699 399 699 q 600 656 540 699 q 692 535 660 613 q 724 351 724 457 q 682 153 724 235 q 574 27 640 71 q 432 -17 508 -17 q 343 3 388 -17 q 257 58 299 22 l 261 -56 l 261 -269 l 101 -269 m 399 115 q 481 142 444 115 q 538 220 517 168 q 558 350 558 272 q 543 467 558 418 q 495 541 528 515 q 411 567 463 567 q 338 548 374 567 q 261 490 301 529 l 261 172 q 334 128 299 142 q 399 115 369 115 z "},"q":{"ha":783,"x_min":60,"x_max":682,"o":"m 522 -269 l 522 -46 l 528 68 q 442 8 492 33 q 340 -17 393 -17 q 136 78 213 -17 q 60 340 60 172 q 101 532 60 451 q 208 656 142 613 q 349 699 274 699 q 451 678 407 699 q 538 617 494 658 l 542 617 l 556 682 l 682 682 l 682 -269 l 522 -269 m 379 115 q 454 134 419 115 q 522 192 489 153 l 522 510 q 453 554 488 542 q 383 567 418 567 q 303 540 339 567 q 247 464 268 514 q 225 342 225 414 q 265 174 225 232 q 379 115 306 115 z "},"r":{"ha":518,"x_min":101,"x_max":521,"o":"m 101 0 l 101 682 l 233 682 l 244 561 l 250 561 q 337 663 286 628 q 443 699 388 699 q 488 696 469 699 q 521 685 506 693 l 489 549 q 458 555 472 553 q 422 557 444 557 q 338 526 382 557 q 261 417 293 494 l 261 0 l 101 0 z "},"s":{"ha":599,"x_min":33,"x_max":557,"o":"m 292 -17 q 152 10 221 -17 q 33 83 83 36 l 104 175 q 197 121 150 138 q 297 104 244 104 q 379 128 353 104 q 406 186 406 151 q 385 233 406 214 q 333 267 365 253 q 263 294 301 281 q 169 338 213 313 q 99 402 126 364 q 72 494 72 440 q 139 642 72 585 q 319 699 206 699 q 447 676 389 699 q 547 617 506 653 l 476 526 q 403 565 440 553 q 324 578 365 578 q 247 556 272 578 q 222 503 222 533 q 238 460 222 478 q 285 430 254 443 q 358 403 315 417 q 457 359 411 385 q 530 294 503 333 q 557 194 557 254 q 526 88 557 136 q 437 12 496 40 q 292 -17 378 -17 z "},"t":{"ha":501,"x_min":28,"x_max":482,"o":"m 342 -14 q 174 55 224 -14 q 125 233 125 124 l 125 556 l 28 556 l 28 675 l 133 682 l 153 896 l 286 896 l 286 682 l 460 682 l 460 556 l 286 556 l 286 233 q 310 144 286 174 q 382 114 333 114 q 418 117 400 114 q 453 128 436 119 l 482 15 q 419 -6 456 3 q 342 -14 383 -14 z "},"u":{"ha":772,"x_min":94,"x_max":671,"o":"m 304 -17 q 144 54 194 -17 q 94 254 94 125 l 94 682 l 254 682 l 254 275 q 279 156 254 190 q 360 121 304 121 q 438 143 404 121 q 511 215 472 165 l 511 682 l 671 682 l 671 0 l 540 0 l 528 100 l 524 100 q 426 15 479 47 q 304 -17 374 -17 z "},"v":{"ha":688,"x_min":17,"x_max":671,"o":"m 254 0 l 17 682 l 179 682 l 288 328 q 316 227 301 279 q 344 122 331 175 l 350 122 q 380 227 365 175 q 408 328 394 279 l 517 682 l 671 682 l 439 0 l 254 0 z "},"w":{"ha":1039,"x_min":33,"x_max":1006,"o":"m 214 0 l 33 682 l 197 682 l 278 328 q 297 234 289 282 q 313 125 306 186 l 318 125 q 337 234 328 186 q 356 328 346 282 l 439 682 l 606 682 l 692 328 q 713 234 703 282 q 732 125 722 186 l 738 125 q 755 234 747 186 q 772 328 763 282 l 853 682 l 1006 682 l 832 0 l 628 0 l 558 317 q 540 409 549 363 q 522 522 531 456 l 517 522 q 500 409 508 456 q 481 317 492 363 l 411 0 l 214 0 z "},"x":{"ha":668,"x_min":19,"x_max":649,"o":"m 19 0 l 236 356 l 33 682 l 206 682 l 282 553 q 313 496 297 525 q 344 438 328 467 l 350 438 q 376 496 363 467 q 403 553 390 525 l 468 682 l 633 682 l 432 338 l 649 0 l 476 0 l 393 135 q 359 196 376 165 q 324 256 342 226 l 318 256 q 288 197 303 226 q 258 135 272 167 l 186 0 l 19 0 z "},"y":{"ha":688,"x_min":17,"x_max":671,"o":"m 147 -281 q 98 -276 119 -281 q 58 -264 76 -272 l 89 -144 q 114 -150 103 -149 q 136 -151 125 -151 q 223 -118 190 -151 q 272 -35 256 -85 l 285 8 l 17 682 l 179 682 l 297 347 q 327 253 313 303 q 357 156 342 204 l 363 156 q 388 252 375 203 q 414 347 401 301 l 517 682 l 671 682 l 424 -31 q 360 -163 396 -107 q 272 -250 324 -219 q 147 -281 221 -281 z "},"z":{"ha":615,"x_min":47,"x_max":581,"o":"m 47 0 l 47 86 l 369 556 l 83 556 l 83 682 l 569 682 l 569 597 l 249 128 l 581 128 l 581 0 l 47 0 z "},"À":{"ha":775,"x_min":-3,"x_max":778,"o":"m -3 0 l 293 908 l 482 908 l 778 0 l 608 0 l 469 483 q 427 632 447 556 q 388 783 407 708 l 382 783 q 344 631 364 707 q 301 483 324 556 l 161 0 l -3 0 m 172 246 l 172 372 l 600 372 l 600 246 l 172 246 m 364 978 l 128 1161 l 138 1178 l 322 1178 l 500 978 l 364 978 z "},"Á":{"ha":775,"x_min":-3,"x_max":778,"o":"m -3 0 l 293 908 l 482 908 l 778 0 l 608 0 l 469 483 q 427 632 447 556 q 388 783 407 708 l 382 783 q 344 631 364 707 q 301 483 324 556 l 161 0 l -3 0 m 172 246 l 172 372 l 600 372 l 600 246 l 172 246 m 272 978 l 450 1178 l 635 1178 l 644 1161 l 408 978 l 272 978 z "},"Â":{"ha":775,"x_min":-3,"x_max":778,"o":"m -3 0 l 293 908 l 482 908 l 778 0 l 608 0 l 469 483 q 427 632 447 556 q 388 783 407 708 l 382 783 q 344 631 364 707 q 301 483 324 556 l 161 0 l -3 0 m 172 246 l 172 372 l 600 372 l 600 246 l 172 246 m 119 978 l 306 1178 l 467 1178 l 653 978 l 525 978 l 389 1083 l 383 1083 l 247 978 l 119 978 z "},"Ã":{"ha":775,"x_min":-3,"x_max":778,"o":"m -3 0 l 293 908 l 482 908 l 778 0 l 608 0 l 469 483 q 427 632 447 556 q 388 783 407 708 l 382 783 q 344 631 364 707 q 301 483 324 556 l 161 0 l -3 0 m 172 246 l 172 372 l 600 372 l 600 246 l 172 246 m 488 972 q 422 986 450 972 q 371 1017 393 1000 q 330 1048 349 1035 q 289 1061 311 1061 q 251 1042 267 1061 q 231 982 235 1024 l 125 990 q 174 1129 131 1083 q 285 1175 217 1175 q 351 1162 322 1175 q 401 1131 379 1149 q 443 1100 424 1114 q 483 1086 463 1086 q 522 1106 506 1086 q 542 1167 538 1125 l 647 1158 q 599 1019 643 1067 q 488 972 556 972 z "},"Ä":{"ha":775,"x_min":-3,"x_max":778,"o":"m -3 0 l 293 908 l 482 908 l 778 0 l 608 0 l 469 483 q 427 632 447 556 q 388 783 407 708 l 382 783 q 344 631 364 707 q 301 483 324 556 l 161 0 l -3 0 m 172 246 l 172 372 l 600 372 l 600 246 l 172 246 m 238 983 q 179 1006 203 983 q 156 1065 156 1029 q 179 1125 156 1101 q 238 1149 203 1149 q 298 1125 275 1149 q 321 1065 321 1101 q 298 1006 321 1029 q 238 983 275 983 m 535 983 q 475 1006 499 983 q 451 1065 451 1029 q 475 1125 451 1101 q 535 1149 499 1149 q 594 1125 571 1149 q 617 1065 617 1101 q 594 1006 617 1029 q 535 983 571 983 z "},"Å":{"ha":775,"x_min":-3,"x_max":778,"o":"m -3 0 l 293 908 l 482 908 l 778 0 l 608 0 l 469 483 q 427 632 447 556 q 388 783 407 708 l 382 783 q 344 631 364 707 q 301 483 324 556 l 161 0 l -3 0 m 172 246 l 172 372 l 600 372 l 600 246 l 172 246 m 386 969 q 263 1005 308 969 q 217 1101 217 1040 q 263 1197 217 1161 q 386 1232 308 1232 q 510 1197 465 1232 q 556 1100 556 1161 q 510 1005 556 1040 q 386 969 465 969 m 386 1031 q 436 1049 417 1031 q 456 1100 456 1068 q 436 1151 456 1133 q 386 1169 417 1169 q 336 1151 356 1169 q 317 1100 317 1133 q 336 1049 317 1068 q 386 1031 356 1031 z "},"Ā":{"ha":775,"x_min":-3,"x_max":778,"o":"m -3 0 l 293 908 l 482 908 l 778 0 l 608 0 l 469 483 q 427 632 447 556 q 388 783 407 708 l 382 783 q 344 631 364 707 q 301 483 324 556 l 161 0 l -3 0 m 172 246 l 172 372 l 600 372 l 600 246 l 172 246 m 186 1011 l 186 1117 l 586 1117 l 586 1011 l 186 1011 z "},"Ă":{"ha":775,"x_min":-3,"x_max":778,"o":"m -3 0 l 293 908 l 482 908 l 778 0 l 608 0 l 469 483 q 427 632 447 556 q 388 783 407 708 l 382 783 q 344 631 364 707 q 301 483 324 556 l 161 0 l -3 0 m 172 246 l 172 372 l 600 372 l 600 246 l 172 246 m 386 975 q 274 999 319 975 q 203 1064 229 1022 q 171 1160 178 1106 l 263 1175 q 302 1101 271 1129 q 386 1072 333 1072 q 470 1101 439 1072 q 510 1175 501 1129 l 601 1160 q 569 1064 596 1106 q 498 999 543 1022 q 386 975 453 975 z "},"Ȧ":{"ha":775,"x_min":-3,"x_max":778,"o":"m -3 0 l 293 908 l 482 908 l 778 0 l 608 0 l 469 483 q 427 632 447 556 q 388 783 407 708 l 382 783 q 344 631 364 707 q 301 483 324 556 l 161 0 l -3 0 m 172 246 l 172 372 l 600 372 l 600 246 l 172 246 m 386 982 q 316 1008 344 982 q 288 1074 288 1035 q 316 1139 288 1114 q 386 1164 344 1164 q 457 1139 429 1164 q 485 1074 485 1114 q 457 1008 485 1035 q 386 982 429 982 z "},"Ǎ":{"ha":775,"x_min":-3,"x_max":778,"o":"m -3 0 l 293 908 l 482 908 l 778 0 l 608 0 l 469 483 q 427 632 447 556 q 388 783 407 708 l 382 783 q 344 631 364 707 q 301 483 324 556 l 161 0 l -3 0 m 172 246 l 172 372 l 600 372 l 600 246 l 172 246 m 306 979 l 119 1178 l 247 1178 l 383 1079 l 389 1079 l 525 1178 l 653 1178 l 467 979 l 306 979 z "},"Ȁ":{"ha":775,"x_min":-3,"x_max":778,"o":"m -3 0 l 293 908 l 482 908 l 778 0 l 608 0 l 469 483 q 427 632 447 556 q 388 783 407 708 l 382 783 q 344 631 364 707 q 301 483 324 556 l 161 0 l -3 0 m 172 246 l 172 372 l 600 372 l 600 246 l 172 246 m 225 979 l 42 1161 l 51 1178 l 193 1178 l 328 979 l 225 979 m 492 979 l 308 1161 l 318 1178 l 460 1178 l 594 979 l 492 979 z "},"Ą":{"ha":775,"x_min":-3,"x_max":831,"o":"m 692 -308 q 576 -275 624 -308 q 529 -176 529 -242 q 547 -100 529 -135 q 591 -40 565 -65 q 640 0 617 -14 l 608 0 l 469 483 q 427 632 447 556 q 388 783 407 708 l 382 783 q 343 632 364 708 q 301 483 322 556 l 161 0 l -3 0 l 293 908 l 482 908 l 778 0 q 691 -53 725 -14 q 657 -132 657 -92 q 677 -178 657 -164 q 725 -193 697 -193 q 762 -186 744 -193 q 792 -171 779 -179 l 831 -261 q 767 -294 806 -281 q 692 -308 729 -308 m 172 246 l 172 372 l 600 372 l 600 246 l 172 246 z "},"Ạ":{"ha":775,"x_min":-3,"x_max":778,"o":"m -3 0 l 293 908 l 482 908 l 778 0 l 608 0 l 469 483 q 427 632 447 556 q 388 783 407 708 l 382 783 q 344 631 364 707 q 301 483 324 556 l 161 0 l -3 0 m 172 246 l 172 372 l 600 372 l 600 246 l 172 246 z "},"Ả":{"ha":775,"x_min":-3,"x_max":778,"o":"m -3 0 l 293 908 l 482 908 l 778 0 l 608 0 l 469 483 q 427 632 447 556 q 388 783 407 708 l 382 783 q 344 631 364 707 q 301 483 324 556 l 161 0 l -3 0 m 172 246 l 172 372 l 600 372 l 600 246 l 172 246 m 333 969 l 319 1036 q 369 1055 350 1043 q 389 1089 389 1067 q 363 1129 389 1114 q 276 1147 336 1144 l 294 1233 q 415 1216 368 1232 q 485 1172 463 1200 q 508 1107 508 1144 q 484 1034 508 1063 q 420 990 460 1006 q 333 969 381 975 z "},"Ấ":{"ha":775,"x_min":-3,"x_max":778,"o":"m -3 0 l 293 908 l 482 908 l 778 0 l 608 0 l 469 483 q 427 632 447 556 q 388 783 407 708 l 382 783 q 344 631 364 707 q 301 483 324 556 l 161 0 l -3 0 m 172 246 l 172 372 l 600 372 l 600 246 l 172 246 m 147 978 l 314 1150 l 458 1150 l 625 978 l 506 978 l 389 1065 l 383 1065 l 267 978 l 147 978 m 533 1092 l 633 1256 l 763 1256 l 772 1239 l 625 1092 l 533 1092 z "},"Ầ":{"ha":775,"x_min":-3,"x_max":778,"o":"m -3 0 l 293 908 l 482 908 l 778 0 l 608 0 l 469 483 q 427 632 447 556 q 388 783 407 708 l 382 783 q 344 631 364 707 q 301 483 324 556 l 161 0 l -3 0 m 172 246 l 172 372 l 600 372 l 600 246 l 172 246 m 147 978 l 314 1150 l 458 1150 l 625 978 l 506 978 l 389 1065 l 383 1065 l 267 978 l 147 978 m 147 1092 l 0 1239 l 10 1256 l 139 1256 l 239 1092 l 147 1092 z "},"Ẩ":{"ha":775,"x_min":-3,"x_max":778,"o":"m -3 0 l 293 908 l 482 908 l 778 0 l 608 0 l 469 483 q 427 632 447 556 q 388 783 407 708 l 382 783 q 344 631 364 707 q 301 483 324 556 l 161 0 l -3 0 m 172 246 l 172 372 l 600 372 l 600 246 l 172 246 m 579 1072 l 564 1128 q 602 1143 588 1133 q 617 1174 617 1153 q 596 1208 617 1197 q 524 1222 575 1219 l 538 1294 q 644 1278 603 1292 q 704 1242 685 1265 q 724 1188 724 1218 q 681 1106 724 1132 q 579 1072 639 1079 m 147 979 l 314 1151 l 458 1151 l 625 979 l 506 979 l 389 1067 l 383 1067 l 267 979 l 147 979 z "},"Ẫ":{"ha":775,"x_min":-3,"x_max":778,"o":"m -3 0 l 293 908 l 482 908 l 778 0 l 608 0 l 469 483 q 427 632 447 556 q 388 783 407 708 l 382 783 q 344 631 364 707 q 301 483 324 556 l 161 0 l -3 0 m 172 246 l 172 372 l 600 372 l 600 246 l 172 246 m 147 978 l 314 1142 l 458 1142 l 625 978 l 506 978 l 389 1057 l 383 1057 l 267 978 l 147 978 m 481 1174 q 419 1183 444 1174 q 375 1206 394 1193 q 338 1228 356 1218 q 300 1239 321 1239 q 268 1224 279 1239 q 251 1179 257 1208 l 167 1188 q 185 1264 169 1232 q 226 1313 200 1296 q 292 1329 253 1329 q 353 1319 328 1329 q 397 1297 378 1310 q 435 1274 417 1285 q 472 1264 453 1264 q 505 1279 493 1264 q 521 1324 517 1294 l 606 1315 q 588 1239 603 1271 q 546 1190 572 1207 q 481 1174 519 1174 z "},"Ậ":{"ha":775,"x_min":-3,"x_max":778,"o":"m -3 0 l 293 908 l 482 908 l 778 0 l 608 0 l 469 483 q 427 632 447 556 q 388 783 407 708 l 382 783 q 344 631 364 707 q 301 483 324 556 l 161 0 l -3 0 m 172 246 l 172 372 l 600 372 l 600 246 l 172 246 m 119 978 l 306 1178 l 467 1178 l 653 978 l 525 978 l 389 1083 l 383 1083 l 247 978 l 119 978 z "},"Ắ":{"ha":775,"x_min":-3,"x_max":778,"o":"m -3 0 l 293 908 l 482 908 l 778 0 l 608 0 l 469 483 q 427 632 447 556 q 388 783 407 708 l 382 783 q 344 631 364 707 q 301 483 324 556 l 161 0 l -3 0 m 172 246 l 172 372 l 600 372 l 600 246 l 172 246 m 386 975 q 274 998 319 975 q 203 1062 229 1021 q 171 1158 178 1103 l 254 1174 q 297 1092 264 1124 q 386 1061 331 1061 q 475 1092 442 1061 q 518 1174 508 1124 l 601 1158 q 569 1062 596 1103 q 498 998 543 1021 q 386 975 453 975 m 314 1161 l 414 1328 l 543 1328 l 553 1311 l 406 1161 l 314 1161 z "},"Ằ":{"ha":775,"x_min":-3,"x_max":778,"o":"m -3 0 l 293 908 l 482 908 l 778 0 l 608 0 l 469 483 q 427 632 447 556 q 388 783 407 708 l 382 783 q 344 631 364 707 q 301 483 324 556 l 161 0 l -3 0 m 172 246 l 172 372 l 600 372 l 600 246 l 172 246 m 386 975 q 274 998 319 975 q 203 1062 229 1021 q 171 1158 178 1103 l 254 1174 q 297 1092 264 1124 q 386 1061 331 1061 q 475 1092 442 1061 q 518 1174 508 1124 l 601 1158 q 569 1062 596 1103 q 498 998 543 1021 q 386 975 453 975 m 367 1161 l 219 1311 l 229 1328 l 358 1328 l 458 1161 l 367 1161 z "},"Ẳ":{"ha":775,"x_min":-3,"x_max":778,"o":"m -3 0 l 293 908 l 482 908 l 778 0 l 608 0 l 469 483 q 427 632 447 556 q 388 783 407 708 l 382 783 q 344 631 364 707 q 301 483 324 556 l 161 0 l -3 0 m 172 246 l 172 372 l 600 372 l 600 246 l 172 246 m 386 975 q 274 998 319 975 q 203 1062 229 1021 q 171 1158 178 1103 l 254 1174 q 297 1092 264 1124 q 386 1061 331 1061 q 475 1092 442 1061 q 518 1174 508 1124 l 601 1158 q 569 1062 596 1103 q 498 998 543 1021 q 386 975 453 975 m 349 1129 l 333 1186 q 371 1200 356 1190 q 386 1231 386 1210 q 365 1265 386 1253 q 292 1279 343 1276 l 307 1350 q 413 1335 372 1349 q 473 1299 454 1322 q 492 1244 492 1275 q 449 1162 492 1188 q 349 1129 407 1136 z "},"Ẵ":{"ha":775,"x_min":-3,"x_max":778,"o":"m -3 0 l 293 908 l 482 908 l 778 0 l 608 0 l 469 483 q 427 632 447 556 q 388 783 407 708 l 382 783 q 344 631 364 707 q 301 483 324 556 l 161 0 l -3 0 m 172 246 l 172 372 l 600 372 l 600 246 l 172 246 m 386 975 q 274 997 319 975 q 205 1053 229 1018 q 175 1131 181 1088 l 258 1146 q 300 1087 268 1113 q 386 1061 332 1061 q 473 1087 440 1061 q 514 1146 506 1113 l 597 1131 q 567 1053 592 1088 q 498 997 543 1018 q 386 975 453 975 m 478 1174 q 419 1183 443 1174 q 376 1206 394 1193 q 340 1228 357 1218 q 301 1239 322 1239 q 271 1224 282 1239 q 254 1179 260 1210 l 169 1188 q 188 1264 174 1232 q 229 1313 203 1296 q 294 1329 256 1329 q 353 1319 329 1329 q 397 1297 378 1310 q 433 1274 415 1285 q 471 1264 450 1264 q 502 1279 492 1264 q 518 1324 513 1294 l 603 1315 q 584 1239 599 1271 q 543 1190 569 1207 q 478 1174 517 1174 z "},"Ặ":{"ha":775,"x_min":-3,"x_max":778,"o":"m -3 0 l 293 908 l 482 908 l 778 0 l 608 0 l 469 483 q 427 632 447 556 q 388 783 407 708 l 382 783 q 344 631 364 707 q 301 483 324 556 l 161 0 l -3 0 m 172 246 l 172 372 l 600 372 l 600 246 l 172 246 m 386 975 q 274 999 319 975 q 203 1064 229 1022 q 171 1160 178 1106 l 263 1175 q 302 1101 271 1129 q 386 1072 333 1072 q 470 1101 439 1072 q 510 1175 501 1129 l 601 1160 q 569 1064 596 1106 q 498 999 543 1022 q 386 975 453 975 z "},"Ǻ":{"ha":775,"x_min":-3,"x_max":778,"o":"m -3 0 l 293 908 l 482 908 l 778 0 l 608 0 l 469 483 q 427 632 447 556 q 388 783 407 708 l 382 783 q 344 631 364 707 q 301 483 324 556 l 161 0 l -3 0 m 172 246 l 172 372 l 600 372 l 600 246 l 172 246 m 386 969 q 262 1005 307 969 q 217 1097 217 1040 q 229 1153 217 1131 q 267 1197 242 1175 l 426 1344 l 574 1344 l 583 1328 l 394 1201 l 401 1219 q 513 1189 469 1219 q 556 1097 556 1158 q 511 1005 556 1040 q 386 969 467 969 m 386 1031 q 436 1049 417 1031 q 456 1097 456 1067 q 436 1146 456 1128 q 386 1164 417 1164 q 336 1146 356 1164 q 317 1097 317 1128 q 336 1049 317 1067 q 386 1031 356 1031 z "},"Æ":{"ha":1158,"x_min":-4,"x_max":1088,"o":"m -4 0 l 450 908 l 1074 908 l 1074 772 l 708 772 l 708 540 l 1015 540 l 1015 404 l 708 404 l 708 136 l 1088 136 l 1088 0 l 547 0 l 547 785 l 542 785 q 476 645 508 715 q 413 508 444 575 l 165 0 l -4 0 m 206 236 l 206 363 l 636 363 l 636 236 l 206 236 z "},"Ǽ":{"ha":1158,"x_min":-4,"x_max":1088,"o":"m -4 0 l 450 908 l 1074 908 l 1074 772 l 708 772 l 708 540 l 1015 540 l 1015 404 l 708 404 l 708 136 l 1088 136 l 1088 0 l 547 0 l 547 785 l 542 785 q 476 645 508 715 q 413 508 444 575 l 165 0 l -4 0 m 206 236 l 206 363 l 636 363 l 636 236 l 206 236 m 650 978 l 828 1178 l 1013 1178 l 1022 1161 l 786 978 l 650 978 z "},"Ǣ":{"ha":1158,"x_min":-4,"x_max":1088,"o":"m -4 0 l 450 908 l 1074 908 l 1074 772 l 708 772 l 708 540 l 1015 540 l 1015 404 l 708 404 l 708 136 l 1088 136 l 1088 0 l 547 0 l 547 785 l 542 785 q 476 645 508 715 q 413 508 444 575 l 165 0 l -4 0 m 206 236 l 206 363 l 636 363 l 636 236 l 206 236 m 564 1011 l 564 1117 l 964 1117 l 964 1011 l 564 1011 z "},"Ⱥ":{"ha":775,"x_min":-3,"x_max":778,"o":"m 281 -78 l 217 -61 l 494 986 l 558 969 l 281 -78 m -3 0 l 293 908 l 482 908 l 778 0 l 608 0 l 469 483 q 427 632 447 556 q 388 783 407 708 l 382 783 q 344 631 364 707 q 301 483 324 556 l 161 0 l -3 0 m 172 246 l 172 372 l 600 372 l 600 246 l 172 246 z "},"Ƀ":{"ha":854,"x_min":31,"x_max":806,"o":"m 143 0 l 143 908 l 433 908 q 601 887 528 908 q 717 817 675 865 q 758 689 758 769 q 720 575 758 626 q 603 503 682 524 l 603 497 q 753 426 701 481 q 806 275 806 371 q 760 119 806 181 q 635 29 714 58 q 457 0 557 0 l 143 0 m 304 547 l 419 547 q 558 578 514 547 q 603 674 603 610 q 556 759 603 735 q 422 783 510 783 l 304 783 l 304 547 m 304 125 l 440 125 q 594 164 539 125 q 650 286 650 203 q 597 398 650 365 q 440 431 543 431 l 304 431 l 304 125 m 31 225 l 31 336 l 146 344 l 497 344 l 497 225 l 31 225 z "},"Ɓ":{"ha":1068,"x_min":56,"x_max":1017,"o":"m 383 0 l 383 842 l 544 842 l 544 533 l 633 533 q 772 569 729 533 q 814 665 814 604 q 766 761 814 732 q 622 790 718 790 l 489 790 q 321 763 386 790 q 226 689 256 735 q 196 586 196 643 q 220 494 196 529 q 290 433 244 460 l 224 325 q 101 422 146 361 q 56 581 56 483 q 107 758 56 681 q 272 881 158 836 q 565 925 385 925 q 794 901 706 925 q 926 824 883 876 q 969 688 969 771 q 937 563 969 617 q 843 488 904 508 l 843 482 q 970 415 924 465 q 1017 274 1017 364 q 972 119 1017 181 q 850 29 928 58 q 672 0 772 0 l 383 0 m 544 125 l 656 125 q 809 162 756 125 q 863 275 863 199 q 810 380 863 347 q 656 413 757 413 l 544 413 l 544 125 z "},"Ḃ":{"ha":829,"x_min":115,"x_max":778,"o":"m 115 0 l 115 908 l 406 908 q 573 887 500 908 q 688 817 646 865 q 731 685 731 768 q 698 562 731 615 q 604 488 665 508 l 604 482 q 731 415 685 465 q 778 274 778 364 q 733 119 778 181 q 608 29 688 58 q 429 0 529 0 l 115 0 m 276 533 l 392 533 q 529 568 486 533 q 572 661 572 603 q 528 756 572 728 q 394 783 483 783 l 276 783 l 276 533 m 276 125 l 413 125 q 567 162 513 125 q 621 275 621 199 q 568 380 621 347 q 413 413 515 413 l 276 413 l 276 125 m 407 982 q 337 1008 365 982 q 308 1074 308 1035 q 337 1139 308 1114 q 407 1164 365 1164 q 478 1139 450 1164 q 506 1074 506 1114 q 478 1008 506 1035 q 407 982 450 982 z "},"Ḇ":{"ha":829,"x_min":115,"x_max":778,"o":"m 115 0 l 115 908 l 406 908 q 573 887 500 908 q 688 817 646 865 q 731 685 731 768 q 698 562 731 615 q 604 488 665 508 l 604 482 q 731 415 685 465 q 778 274 778 364 q 733 119 778 181 q 608 29 688 58 q 429 0 529 0 l 115 0 m 276 533 l 392 533 q 529 568 486 533 q 572 661 572 603 q 528 756 572 728 q 394 783 483 783 l 276 783 l 276 533 m 276 125 l 413 125 q 567 162 513 125 q 621 275 621 199 q 568 380 621 347 q 413 413 515 413 l 276 413 l 276 125 z "},"Ç":{"ha":800,"x_min":68,"x_max":761,"o":"m 481 -17 q 272 38 365 -17 q 123 197 178 92 q 68 451 68 301 q 100 651 68 563 q 190 800 132 739 q 322 893 247 861 q 483 925 397 925 q 636 891 569 925 q 746 810 703 857 l 660 711 q 583 766 625 747 q 488 785 540 785 q 358 744 415 785 q 267 631 300 704 q 233 456 233 557 q 265 277 233 351 q 356 163 297 203 q 492 124 414 124 q 596 147 550 124 q 679 210 642 171 l 761 114 q 636 17 706 50 q 481 -17 567 -17 m 350 -324 l 336 -254 q 452 -233 421 -249 q 483 -189 483 -218 q 460 -149 483 -164 q 376 -126 438 -135 l 440 4 l 538 4 l 497 -86 q 574 -122 547 -99 q 601 -187 601 -144 q 535 -285 601 -253 q 350 -324 469 -318 z "},"Ć":{"ha":800,"x_min":68,"x_max":761,"o":"m 481 -17 q 272 38 365 -17 q 123 197 178 92 q 68 451 68 301 q 100 651 68 563 q 190 800 132 739 q 322 893 247 861 q 483 925 397 925 q 636 891 569 925 q 746 810 703 857 l 660 711 q 583 766 625 747 q 488 785 540 785 q 358 744 415 785 q 267 631 300 704 q 233 456 233 557 q 265 277 233 351 q 356 163 297 203 q 492 124 414 124 q 596 147 550 124 q 679 210 642 171 l 761 114 q 636 17 706 50 q 481 -17 567 -17 m 356 978 l 533 1178 l 718 1178 l 728 1161 l 492 978 l 356 978 z "},"Ĉ":{"ha":800,"x_min":68,"x_max":761,"o":"m 481 -17 q 272 38 365 -17 q 123 197 178 92 q 68 451 68 301 q 100 651 68 563 q 190 800 132 739 q 322 893 247 861 q 483 925 397 925 q 636 891 569 925 q 746 810 703 857 l 660 711 q 583 766 625 747 q 488 785 540 785 q 358 744 415 785 q 267 631 300 704 q 233 456 233 557 q 265 277 233 351 q 356 163 297 203 q 492 124 414 124 q 596 147 550 124 q 679 210 642 171 l 761 114 q 636 17 706 50 q 481 -17 567 -17 m 203 978 l 389 1178 l 550 1178 l 736 978 l 608 978 l 472 1083 l 467 1083 l 331 978 l 203 978 z "},"Ċ":{"ha":800,"x_min":68,"x_max":761,"o":"m 481 -17 q 272 38 365 -17 q 123 197 178 92 q 68 451 68 301 q 100 651 68 563 q 190 800 132 739 q 322 893 247 861 q 483 925 397 925 q 636 891 569 925 q 746 810 703 857 l 660 711 q 583 766 625 747 q 488 785 540 785 q 358 744 415 785 q 267 631 300 704 q 233 456 233 557 q 265 277 233 351 q 356 163 297 203 q 492 124 414 124 q 596 147 550 124 q 679 210 642 171 l 761 114 q 636 17 706 50 q 481 -17 567 -17 m 469 982 q 399 1008 428 982 q 371 1074 371 1035 q 399 1139 371 1114 q 469 1164 428 1164 q 540 1139 513 1164 q 568 1074 568 1114 q 540 1008 568 1035 q 469 982 513 982 z "},"Č":{"ha":800,"x_min":68,"x_max":761,"o":"m 481 -17 q 272 38 365 -17 q 123 197 178 92 q 68 451 68 301 q 100 651 68 563 q 190 800 132 739 q 322 893 247 861 q 483 925 397 925 q 636 891 569 925 q 746 810 703 857 l 660 711 q 583 766 625 747 q 488 785 540 785 q 358 744 415 785 q 267 631 300 704 q 233 456 233 557 q 265 277 233 351 q 356 163 297 203 q 492 124 414 124 q 596 147 550 124 q 679 210 642 171 l 761 114 q 636 17 706 50 q 481 -17 567 -17 m 389 979 l 203 1178 l 331 1178 l 467 1079 l 472 1079 l 608 1178 l 736 1178 l 550 979 l 389 979 z "},"Ȼ":{"ha":800,"x_min":68,"x_max":761,"o":"m 331 -78 l 261 -61 l 572 986 l 642 969 l 331 -78 m 481 -17 q 272 38 365 -17 q 123 197 178 92 q 68 451 68 301 q 100 651 68 563 q 190 800 132 739 q 322 893 247 861 q 483 925 397 925 q 636 891 569 925 q 746 810 703 857 l 660 711 q 583 766 625 747 q 488 785 540 785 q 358 744 415 785 q 267 631 300 704 q 233 456 233 557 q 265 277 233 351 q 356 163 297 203 q 492 124 414 124 q 596 147 550 124 q 679 210 642 171 l 761 114 q 636 17 706 50 q 481 -17 567 -17 z "},"Ḋ":{"ha":868,"x_min":115,"x_max":800,"o":"m 115 0 l 115 908 l 358 908 q 596 858 497 908 q 747 708 694 808 q 800 458 800 608 q 748 206 800 308 q 599 52 696 104 q 367 0 501 0 l 115 0 m 276 131 l 347 131 q 503 166 439 131 q 601 274 568 201 q 635 458 635 346 q 601 640 635 569 q 503 744 568 711 q 347 778 439 778 l 276 778 l 276 131 m 442 982 q 372 1008 400 982 q 343 1074 343 1035 q 372 1139 343 1114 q 442 1164 400 1164 q 513 1139 485 1164 q 540 1074 540 1114 q 513 1008 540 1035 q 442 982 485 982 z "},"Ď":{"ha":868,"x_min":115,"x_max":800,"o":"m 115 0 l 115 908 l 358 908 q 596 858 497 908 q 747 708 694 808 q 800 458 800 608 q 748 206 800 308 q 599 52 696 104 q 367 0 501 0 l 115 0 m 276 131 l 347 131 q 503 166 439 131 q 601 274 568 201 q 635 458 635 346 q 601 640 635 569 q 503 744 568 711 q 347 778 439 778 l 276 778 l 276 131 m 361 979 l 175 1178 l 303 1178 l 439 1079 l 444 1079 l 581 1178 l 708 1178 l 522 979 l 361 979 z "},"Ḍ":{"ha":868,"x_min":115,"x_max":800,"o":"m 115 0 l 115 908 l 358 908 q 596 858 497 908 q 747 708 694 808 q 800 458 800 608 q 748 206 800 308 q 599 52 696 104 q 367 0 501 0 l 115 0 m 276 131 l 347 131 q 503 166 439 131 q 601 274 568 201 q 635 458 635 346 q 601 640 635 569 q 503 744 568 711 q 347 778 439 778 l 276 778 l 276 131 z "},"Ḏ":{"ha":868,"x_min":115,"x_max":800,"o":"m 115 0 l 115 908 l 358 908 q 596 858 497 908 q 747 708 694 808 q 800 458 800 608 q 748 206 800 308 q 599 52 696 104 q 367 0 501 0 l 115 0 m 276 131 l 347 131 q 503 166 439 131 q 601 274 568 201 q 635 458 635 346 q 601 640 635 569 q 503 744 568 711 q 347 778 439 778 l 276 778 l 276 131 z "},"Ḑ":{"ha":868,"x_min":115,"x_max":800,"o":"m 115 0 l 115 908 l 358 908 q 596 858 497 908 q 747 708 694 808 q 800 458 800 608 q 748 206 800 308 q 599 52 696 104 q 367 0 501 0 l 115 0 m 276 131 l 347 131 q 503 166 439 131 q 601 274 568 201 q 635 458 635 346 q 601 640 635 569 q 503 744 568 711 q 347 778 439 778 l 276 778 l 276 131 m 256 -324 l 242 -254 q 358 -233 326 -249 q 389 -189 389 -218 q 366 -149 389 -164 q 282 -126 343 -135 l 346 4 l 443 4 l 403 -86 q 480 -122 453 -99 q 507 -187 507 -144 q 441 -285 507 -253 q 256 -324 375 -318 z "},"Đ":{"ha":896,"x_min":42,"x_max":836,"o":"m 42 414 l 42 528 l 153 536 l 503 536 l 503 414 l 42 414 m 151 0 l 151 908 l 394 908 q 632 858 533 908 q 783 708 731 808 q 836 458 836 608 q 784 206 836 308 q 635 52 732 104 q 403 0 538 0 l 151 0 m 313 131 l 383 131 q 540 166 475 131 q 638 274 604 201 q 671 458 671 346 q 638 640 671 569 q 540 744 604 711 q 383 778 475 778 l 313 778 l 313 131 z "},"Ɗ":{"ha":1117,"x_min":56,"x_max":1043,"o":"m 383 0 l 383 842 l 544 842 l 544 131 l 606 131 q 749 167 689 131 q 844 277 810 203 q 878 467 878 351 q 843 647 878 576 q 738 751 808 717 q 558 785 667 785 l 489 785 q 321 758 386 785 q 226 687 256 732 q 196 586 196 642 q 220 494 196 529 q 290 433 244 460 l 224 325 q 101 422 146 361 q 56 581 56 483 q 106 758 56 681 q 266 881 156 836 q 557 925 376 925 q 826 874 718 925 q 989 720 935 822 q 1043 467 1043 618 q 990 209 1043 313 q 838 53 936 106 q 604 0 740 0 l 383 0 z "},"È":{"ha":747,"x_min":115,"x_max":676,"o":"m 115 0 l 115 908 l 663 908 l 663 772 l 276 772 l 276 540 l 603 540 l 603 404 l 276 404 l 276 136 l 676 136 l 676 0 l 115 0 m 381 978 l 144 1161 l 154 1178 l 339 1178 l 517 978 l 381 978 z "},"É":{"ha":747,"x_min":115,"x_max":676,"o":"m 115 0 l 115 908 l 663 908 l 663 772 l 276 772 l 276 540 l 603 540 l 603 404 l 276 404 l 276 136 l 676 136 l 676 0 l 115 0 m 289 978 l 467 1178 l 651 1178 l 661 1161 l 425 978 l 289 978 z "},"Ê":{"ha":747,"x_min":115,"x_max":676,"o":"m 115 0 l 115 908 l 663 908 l 663 772 l 276 772 l 276 540 l 603 540 l 603 404 l 276 404 l 276 136 l 676 136 l 676 0 l 115 0 m 136 978 l 322 1178 l 483 1178 l 669 978 l 542 978 l 406 1083 l 400 1083 l 264 978 l 136 978 z "},"Ẽ":{"ha":747,"x_min":115,"x_max":676,"o":"m 115 0 l 115 908 l 663 908 l 663 772 l 276 772 l 276 540 l 603 540 l 603 404 l 276 404 l 276 136 l 676 136 l 676 0 l 115 0 m 504 972 q 438 986 467 972 q 388 1017 410 1000 q 347 1048 365 1035 q 306 1061 328 1061 q 267 1042 283 1061 q 247 982 251 1024 l 142 990 q 190 1129 147 1083 q 301 1175 233 1175 q 367 1162 339 1175 q 418 1131 396 1149 q 460 1100 440 1114 q 500 1086 479 1086 q 538 1106 522 1086 q 558 1167 554 1125 l 664 1158 q 616 1019 660 1067 q 504 972 572 972 z "},"Ë":{"ha":747,"x_min":115,"x_max":676,"o":"m 115 0 l 115 908 l 663 908 l 663 772 l 276 772 l 276 540 l 603 540 l 603 404 l 276 404 l 276 136 l 676 136 l 676 0 l 115 0 m 254 983 q 196 1006 219 983 q 172 1065 172 1029 q 196 1125 172 1101 q 254 1149 219 1149 q 315 1125 292 1149 q 338 1065 338 1101 q 315 1006 338 1029 q 254 983 292 983 m 551 983 q 492 1006 515 983 q 468 1065 468 1029 q 492 1125 468 1101 q 551 1149 515 1149 q 610 1125 588 1149 q 633 1065 633 1101 q 610 1006 633 1029 q 551 983 588 983 z "},"Ē":{"ha":747,"x_min":115,"x_max":676,"o":"m 115 0 l 115 908 l 663 908 l 663 772 l 276 772 l 276 540 l 603 540 l 603 404 l 276 404 l 276 136 l 676 136 l 676 0 l 115 0 m 203 1011 l 203 1117 l 603 1117 l 603 1011 l 203 1011 z "},"Ĕ":{"ha":747,"x_min":115,"x_max":676,"o":"m 115 0 l 115 908 l 663 908 l 663 772 l 276 772 l 276 540 l 603 540 l 603 404 l 276 404 l 276 136 l 676 136 l 676 0 l 115 0 m 403 975 q 291 999 336 975 q 220 1064 246 1022 q 188 1160 194 1106 l 279 1175 q 319 1101 288 1129 q 403 1072 350 1072 q 487 1101 456 1072 q 526 1175 518 1129 l 618 1160 q 586 1064 613 1106 q 515 999 560 1022 q 403 975 469 975 z "},"Ė":{"ha":747,"x_min":115,"x_max":676,"o":"m 115 0 l 115 908 l 663 908 l 663 772 l 276 772 l 276 540 l 603 540 l 603 404 l 276 404 l 276 136 l 676 136 l 676 0 l 115 0 m 403 982 q 333 1008 361 982 q 304 1074 304 1035 q 333 1139 304 1114 q 403 1164 361 1164 q 474 1139 446 1164 q 501 1074 501 1114 q 474 1008 501 1035 q 403 982 446 982 z "},"Ě":{"ha":747,"x_min":115,"x_max":676,"o":"m 115 0 l 115 908 l 663 908 l 663 772 l 276 772 l 276 540 l 603 540 l 603 404 l 276 404 l 276 136 l 676 136 l 676 0 l 115 0 m 322 979 l 136 1178 l 264 1178 l 400 1079 l 406 1079 l 542 1178 l 669 1178 l 483 979 l 322 979 z "},"Ȅ":{"ha":747,"x_min":58,"x_max":676,"o":"m 115 0 l 115 908 l 663 908 l 663 772 l 276 772 l 276 540 l 603 540 l 603 404 l 276 404 l 276 136 l 676 136 l 676 0 l 115 0 m 242 979 l 58 1161 l 68 1178 l 210 1178 l 344 979 l 242 979 m 508 979 l 325 1161 l 335 1178 l 476 1178 l 611 979 l 508 979 z "},"Ę":{"ha":747,"x_min":115,"x_max":710,"o":"m 569 -308 q 454 -275 501 -308 q 407 -176 407 -242 q 442 -69 407 -115 q 518 0 478 -24 l 115 0 l 115 908 l 663 908 l 663 772 l 276 772 l 276 540 l 603 540 l 603 404 l 276 404 l 276 136 l 676 136 l 676 0 l 664 0 q 605 -20 635 0 q 556 -70 575 -40 q 536 -132 536 -100 q 556 -178 536 -164 q 604 -193 576 -193 q 640 -186 624 -193 q 669 -171 657 -179 l 710 -261 q 646 -294 685 -281 q 569 -308 607 -308 z "},"Ẹ":{"ha":747,"x_min":115,"x_max":676,"o":"m 115 0 l 115 908 l 663 908 l 663 772 l 276 772 l 276 540 l 603 540 l 603 404 l 276 404 l 276 136 l 676 136 l 676 0 l 115 0 z "},"Ẻ":{"ha":747,"x_min":115,"x_max":676,"o":"m 115 0 l 115 908 l 663 908 l 663 772 l 276 772 l 276 540 l 603 540 l 603 404 l 276 404 l 276 136 l 676 136 l 676 0 l 115 0 m 350 969 l 336 1036 q 386 1055 367 1043 q 406 1089 406 1067 q 379 1129 406 1114 q 293 1147 353 1144 l 311 1233 q 432 1216 385 1232 q 502 1172 479 1200 q 525 1107 525 1144 q 501 1034 525 1063 q 437 990 476 1006 q 350 969 397 975 z "},"Ế":{"ha":747,"x_min":115,"x_max":789,"o":"m 115 0 l 115 908 l 663 908 l 663 772 l 276 772 l 276 540 l 603 540 l 603 404 l 276 404 l 276 136 l 676 136 l 676 0 l 115 0 m 164 978 l 331 1150 l 475 1150 l 642 978 l 522 978 l 406 1065 l 400 1065 l 283 978 l 164 978 m 550 1092 l 650 1256 l 779 1256 l 789 1239 l 642 1092 l 550 1092 z "},"Ề":{"ha":747,"x_min":17,"x_max":676,"o":"m 115 0 l 115 908 l 663 908 l 663 772 l 276 772 l 276 540 l 603 540 l 603 404 l 276 404 l 276 136 l 676 136 l 676 0 l 115 0 m 164 978 l 331 1150 l 475 1150 l 642 978 l 522 978 l 406 1065 l 400 1065 l 283 978 l 164 978 m 164 1092 l 17 1239 l 26 1256 l 156 1256 l 256 1092 l 164 1092 z "},"Ể":{"ha":747,"x_min":115,"x_max":740,"o":"m 115 0 l 115 908 l 663 908 l 663 772 l 276 772 l 276 540 l 603 540 l 603 404 l 276 404 l 276 136 l 676 136 l 676 0 l 115 0 m 596 1072 l 581 1128 q 619 1143 604 1133 q 633 1174 633 1153 q 613 1208 633 1197 q 540 1222 592 1219 l 554 1294 q 660 1278 619 1292 q 721 1242 701 1265 q 740 1188 740 1218 q 698 1106 740 1132 q 596 1072 656 1079 m 164 979 l 331 1151 l 475 1151 l 642 979 l 522 979 l 406 1067 l 400 1067 l 283 979 l 164 979 z "},"Ễ":{"ha":747,"x_min":115,"x_max":676,"o":"m 115 0 l 115 908 l 663 908 l 663 772 l 276 772 l 276 540 l 603 540 l 603 404 l 276 404 l 276 136 l 676 136 l 676 0 l 115 0 m 164 978 l 331 1142 l 475 1142 l 642 978 l 522 978 l 406 1057 l 400 1057 l 283 978 l 164 978 m 497 1174 q 436 1183 461 1174 q 392 1206 411 1193 q 355 1228 372 1218 q 317 1239 338 1239 q 285 1224 296 1239 q 268 1179 274 1208 l 183 1188 q 201 1264 186 1232 q 243 1313 217 1296 q 308 1329 269 1329 q 369 1319 344 1329 q 414 1297 394 1310 q 451 1274 433 1285 q 489 1264 469 1264 q 522 1279 510 1264 q 538 1324 533 1294 l 622 1315 q 604 1239 619 1271 q 563 1190 589 1207 q 497 1174 536 1174 z "},"Ệ":{"ha":747,"x_min":115,"x_max":676,"o":"m 115 0 l 115 908 l 663 908 l 663 772 l 276 772 l 276 540 l 603 540 l 603 404 l 276 404 l 276 136 l 676 136 l 676 0 l 115 0 m 136 978 l 322 1178 l 483 1178 l 669 978 l 542 978 l 406 1083 l 400 1083 l 264 978 l 136 978 z "},"Ḗ":{"ha":747,"x_min":115,"x_max":676,"o":"m 115 0 l 115 908 l 663 908 l 663 772 l 276 772 l 276 540 l 603 540 l 603 404 l 276 404 l 276 136 l 676 136 l 676 0 l 115 0 m 203 1011 l 203 1117 l 603 1117 l 603 1011 l 203 1011 m 308 1174 l 431 1344 l 576 1344 l 586 1328 l 417 1174 l 308 1174 z "},"Ǝ":{"ha":747,"x_min":71,"x_max":631,"o":"m 71 0 l 71 136 l 469 136 l 469 404 l 143 404 l 143 540 l 469 540 l 469 772 l 85 772 l 85 908 l 631 908 l 631 0 l 71 0 z "},"Ɛ":{"ha":751,"x_min":53,"x_max":721,"o":"m 408 -17 q 226 16 306 -17 q 99 111 146 49 q 53 263 53 174 q 77 366 53 321 q 142 440 101 411 q 233 481 183 468 l 233 486 q 135 567 171 514 q 100 690 100 619 q 142 818 100 765 q 253 898 183 871 q 411 925 324 925 q 562 895 490 925 q 686 815 633 865 l 611 714 q 523 767 571 749 q 417 785 475 785 q 303 754 347 785 q 258 663 258 724 q 301 567 258 600 q 439 533 343 533 l 528 533 l 528 413 l 415 413 q 263 379 315 413 q 211 274 211 346 q 239 192 211 225 q 315 141 267 158 q 422 124 363 124 q 540 143 489 124 q 642 206 592 163 l 721 108 q 586 14 657 44 q 408 -17 515 -17 z "},"Ḟ":{"ha":708,"x_min":115,"x_max":664,"o":"m 115 0 l 115 908 l 664 908 l 664 772 l 276 772 l 276 515 l 607 515 l 607 379 l 276 379 l 276 0 l 115 0 m 400 982 q 330 1008 358 982 q 301 1074 301 1035 q 330 1139 301 1114 q 400 1164 358 1164 q 471 1139 443 1164 q 499 1074 499 1114 q 471 1008 499 1035 q 400 982 443 982 z "},"Ǵ":{"ha":872,"x_min":68,"x_max":786,"o":"m 496 -17 q 276 38 374 -17 q 124 197 179 92 q 68 451 68 301 q 101 650 68 563 q 192 799 133 738 q 329 893 251 861 q 497 925 407 925 q 663 890 594 925 q 772 810 731 856 l 686 711 q 610 765 653 744 q 503 785 567 785 q 361 745 422 785 q 267 632 300 706 q 233 456 233 558 q 265 278 233 353 q 359 163 297 203 q 511 124 421 124 q 585 134 550 124 q 642 164 619 144 l 642 360 l 469 360 l 469 492 l 786 492 l 786 92 q 665 15 740 46 q 496 -17 589 -17 m 383 978 l 561 1178 l 746 1178 l 756 1161 l 519 978 l 383 978 z "},"Ĝ":{"ha":872,"x_min":68,"x_max":786,"o":"m 496 -17 q 276 38 374 -17 q 124 197 179 92 q 68 451 68 301 q 101 650 68 563 q 192 799 133 738 q 329 893 251 861 q 497 925 407 925 q 663 890 594 925 q 772 810 731 856 l 686 711 q 610 765 653 744 q 503 785 567 785 q 361 745 422 785 q 267 632 300 706 q 233 456 233 558 q 265 278 233 353 q 359 163 297 203 q 511 124 421 124 q 585 134 550 124 q 642 164 619 144 l 642 360 l 469 360 l 469 492 l 786 492 l 786 92 q 665 15 740 46 q 496 -17 589 -17 m 231 978 l 417 1178 l 578 1178 l 764 978 l 636 978 l 500 1083 l 494 1083 l 358 978 l 231 978 z "},"Ḡ":{"ha":872,"x_min":68,"x_max":786,"o":"m 496 -17 q 276 38 374 -17 q 124 197 179 92 q 68 451 68 301 q 101 650 68 563 q 192 799 133 738 q 329 893 251 861 q 497 925 407 925 q 663 890 594 925 q 772 810 731 856 l 686 711 q 610 765 653 744 q 503 785 567 785 q 361 745 422 785 q 267 632 300 706 q 233 456 233 558 q 265 278 233 353 q 359 163 297 203 q 511 124 421 124 q 585 134 550 124 q 642 164 619 144 l 642 360 l 469 360 l 469 492 l 786 492 l 786 92 q 665 15 740 46 q 496 -17 589 -17 m 297 1011 l 297 1117 l 697 1117 l 697 1011 l 297 1011 z "},"Ğ":{"ha":872,"x_min":68,"x_max":786,"o":"m 496 -17 q 276 38 374 -17 q 124 197 179 92 q 68 451 68 301 q 101 650 68 563 q 192 799 133 738 q 329 893 251 861 q 497 925 407 925 q 663 890 594 925 q 772 810 731 856 l 686 711 q 610 765 653 744 q 503 785 567 785 q 361 745 422 785 q 267 632 300 706 q 233 456 233 558 q 265 278 233 353 q 359 163 297 203 q 511 124 421 124 q 585 134 550 124 q 642 164 619 144 l 642 360 l 469 360 l 469 492 l 786 492 l 786 92 q 665 15 740 46 q 496 -17 589 -17 m 497 975 q 385 999 431 975 q 315 1064 340 1022 q 282 1160 289 1106 l 374 1175 q 413 1101 382 1129 q 497 1072 444 1072 q 581 1101 550 1072 q 621 1175 613 1129 l 713 1160 q 681 1064 707 1106 q 609 999 654 1022 q 497 975 564 975 z "},"Ġ":{"ha":872,"x_min":68,"x_max":786,"o":"m 496 -17 q 276 38 374 -17 q 124 197 179 92 q 68 451 68 301 q 101 650 68 563 q 192 799 133 738 q 329 893 251 861 q 497 925 407 925 q 663 890 594 925 q 772 810 731 856 l 686 711 q 610 765 653 744 q 503 785 567 785 q 361 745 422 785 q 267 632 300 706 q 233 456 233 558 q 265 278 233 353 q 359 163 297 203 q 511 124 421 124 q 585 134 550 124 q 642 164 619 144 l 642 360 l 469 360 l 469 492 l 786 492 l 786 92 q 665 15 740 46 q 496 -17 589 -17 m 497 982 q 427 1008 456 982 q 399 1074 399 1035 q 427 1139 399 1114 q 497 1164 456 1164 q 568 1139 540 1164 q 596 1074 596 1114 q 568 1008 596 1035 q 497 982 540 982 z "},"Ǧ":{"ha":872,"x_min":68,"x_max":786,"o":"m 496 -17 q 276 38 374 -17 q 124 197 179 92 q 68 451 68 301 q 101 650 68 563 q 192 799 133 738 q 329 893 251 861 q 497 925 407 925 q 663 890 594 925 q 772 810 731 856 l 686 711 q 610 765 653 744 q 503 785 567 785 q 361 745 422 785 q 267 632 300 706 q 233 456 233 558 q 265 278 233 353 q 359 163 297 203 q 511 124 421 124 q 585 134 550 124 q 642 164 619 144 l 642 360 l 469 360 l 469 492 l 786 492 l 786 92 q 665 15 740 46 q 496 -17 589 -17 m 417 979 l 231 1178 l 358 1178 l 494 1079 l 500 1079 l 636 1178 l 764 1178 l 578 979 l 417 979 z "},"Ģ":{"ha":872,"x_min":68,"x_max":786,"o":"m 496 -17 q 276 38 374 -17 q 124 197 179 92 q 68 451 68 301 q 101 650 68 563 q 192 799 133 738 q 329 893 251 861 q 497 925 407 925 q 663 890 594 925 q 772 810 731 856 l 686 711 q 610 765 653 744 q 503 785 567 785 q 361 745 422 785 q 267 632 300 706 q 233 456 233 558 q 265 278 233 353 q 359 163 297 203 q 511 124 421 124 q 585 134 550 124 q 642 164 619 144 l 642 360 l 469 360 l 469 492 l 786 492 l 786 92 q 665 15 740 46 q 496 -17 589 -17 m 367 -324 l 353 -254 q 469 -234 438 -249 q 500 -194 500 -219 q 477 -158 500 -171 q 406 -140 454 -144 l 439 -76 q 579 -112 540 -86 q 618 -187 618 -139 q 552 -285 618 -253 q 367 -324 486 -318 z "},"Ǥ":{"ha":929,"x_min":68,"x_max":896,"o":"m 496 -17 q 276 38 374 -17 q 124 197 179 92 q 68 451 68 301 q 101 651 68 563 q 192 800 133 739 q 328 893 250 861 q 497 925 407 925 q 662 890 594 925 q 772 810 729 854 l 686 711 q 609 765 651 744 q 503 785 567 785 q 362 745 422 785 q 267 632 301 706 q 233 456 233 558 q 265 277 233 351 q 358 163 296 203 q 511 124 421 124 q 585 134 550 124 q 642 164 619 144 l 642 492 l 786 492 l 786 92 q 665 15 740 46 q 496 -17 589 -17 m 469 269 l 469 383 l 647 392 l 896 392 l 896 269 l 469 269 z "},"Ɠ":{"ha":872,"x_min":68,"x_max":861,"o":"m 496 -17 q 276 38 374 -17 q 124 197 179 92 q 68 451 68 301 q 101 650 68 563 q 192 799 133 738 q 329 893 251 861 q 497 925 407 925 q 567 917 533 925 q 642 893 601 910 l 628 867 q 594 931 601 906 q 586 978 586 956 q 607 1051 586 1018 q 665 1103 628 1083 q 754 1124 703 1124 q 817 1117 792 1124 q 861 1101 842 1111 l 831 989 q 809 997 819 994 q 782 1000 799 1000 q 733 981 753 1000 q 714 931 714 961 q 731 879 714 899 q 772 829 749 860 l 686 725 q 610 768 653 751 q 503 785 567 785 q 361 745 422 785 q 267 632 300 706 q 233 456 233 558 q 265 278 233 353 q 359 163 297 203 q 511 124 421 124 q 585 134 550 124 q 642 164 619 144 l 642 360 l 469 360 l 469 492 l 786 492 l 786 92 q 665 15 740 46 q 496 -17 589 -17 z "},"Ĥ":{"ha":921,"x_min":115,"x_max":806,"o":"m 115 0 l 115 908 l 276 908 l 276 543 l 644 543 l 644 908 l 806 908 l 806 0 l 644 0 l 644 403 l 276 403 l 276 0 l 115 0 m 192 978 l 378 1178 l 539 1178 l 725 978 l 597 978 l 461 1083 l 456 1083 l 319 978 l 192 978 z "},"Ḧ":{"ha":921,"x_min":115,"x_max":806,"o":"m 115 0 l 115 908 l 276 908 l 276 543 l 644 543 l 644 908 l 806 908 l 806 0 l 644 0 l 644 403 l 276 403 l 276 0 l 115 0 m 310 983 q 251 1006 275 983 q 228 1065 228 1029 q 251 1125 228 1101 q 310 1149 275 1149 q 370 1125 347 1149 q 393 1065 393 1101 q 370 1006 393 1029 q 310 983 347 983 m 607 983 q 547 1006 571 983 q 524 1065 524 1029 q 547 1125 524 1101 q 607 1149 571 1149 q 666 1125 643 1149 q 689 1065 689 1101 q 666 1006 689 1029 q 607 983 643 983 z "},"Ḣ":{"ha":921,"x_min":115,"x_max":806,"o":"m 115 0 l 115 908 l 276 908 l 276 543 l 644 543 l 644 908 l 806 908 l 806 0 l 644 0 l 644 403 l 276 403 l 276 0 l 115 0 m 458 982 q 388 1008 417 982 q 360 1074 360 1035 q 388 1139 360 1114 q 458 1164 417 1164 q 529 1139 501 1164 q 557 1074 557 1114 q 529 1008 557 1035 q 458 982 501 982 z "},"Ȟ":{"ha":921,"x_min":115,"x_max":806,"o":"m 115 0 l 115 908 l 276 908 l 276 543 l 644 543 l 644 908 l 806 908 l 806 0 l 644 0 l 644 403 l 276 403 l 276 0 l 115 0 m 378 979 l 192 1178 l 319 1178 l 456 1079 l 461 1079 l 597 1178 l 725 1178 l 539 979 l 378 979 z "},"Ḥ":{"ha":921,"x_min":115,"x_max":806,"o":"m 115 0 l 115 908 l 276 908 l 276 543 l 644 543 l 644 908 l 806 908 l 806 0 l 644 0 l 644 403 l 276 403 l 276 0 l 115 0 z "},"Ḩ":{"ha":921,"x_min":53,"x_max":806,"o":"m 115 0 l 115 908 l 276 908 l 276 543 l 644 543 l 644 908 l 806 908 l 806 0 l 644 0 l 644 403 l 276 403 l 276 0 l 115 0 m 67 -324 l 53 -254 q 169 -233 138 -249 q 200 -189 200 -218 q 177 -149 200 -164 q 93 -126 154 -135 l 157 4 l 254 4 l 214 -86 q 291 -122 264 -99 q 318 -187 318 -144 q 252 -285 318 -253 q 67 -324 186 -318 z "},"Ḫ":{"ha":921,"x_min":115,"x_max":806,"o":"m 115 0 l 115 908 l 276 908 l 276 543 l 644 543 l 644 908 l 806 908 l 806 0 l 644 0 l 644 403 l 276 403 l 276 0 l 115 0 z "},"Ħ":{"ha":976,"x_min":31,"x_max":943,"o":"m 31 661 l 31 775 l 150 783 l 943 783 l 943 661 l 31 661 m 143 0 l 143 908 l 304 908 l 304 543 l 672 543 l 672 908 l 833 908 l 833 0 l 672 0 l 672 403 l 304 403 l 304 0 l 143 0 z "},"Ì":{"ha":392,"x_min":-61,"x_max":311,"o":"m 115 0 l 115 908 l 276 908 l 276 0 l 115 0 m 175 978 l -61 1161 l -51 1178 l 133 1178 l 311 978 l 175 978 z "},"Í":{"ha":392,"x_min":83,"x_max":456,"o":"m 115 0 l 115 908 l 276 908 l 276 0 l 115 0 m 83 978 l 261 1178 l 446 1178 l 456 1161 l 219 978 l 83 978 z "},"Î":{"ha":392,"x_min":-69,"x_max":464,"o":"m 115 0 l 115 908 l 276 908 l 276 0 l 115 0 m -69 978 l 117 1178 l 278 1178 l 464 978 l 336 978 l 200 1083 l 194 1083 l 58 978 l -69 978 z "},"Ĩ":{"ha":392,"x_min":-62,"x_max":458,"o":"m 115 0 l 115 908 l 276 908 l 276 0 l 115 0 m 299 972 q 233 986 261 972 q 182 1017 204 1000 q 141 1048 160 1035 q 100 1061 122 1061 q 62 1042 78 1061 q 42 982 46 1024 l -64 990 q -15 1129 -58 1083 q 96 1175 28 1175 q 162 1162 133 1175 q 213 1131 190 1149 q 254 1100 235 1114 q 294 1086 274 1086 q 333 1106 317 1086 q 353 1167 349 1125 l 458 1158 q 410 1019 454 1067 q 299 972 367 972 z "},"Ï":{"ha":392,"x_min":-33,"x_max":429,"o":"m 115 0 l 115 908 l 276 908 l 276 0 l 115 0 m 49 983 q -10 1006 14 983 q -33 1065 -33 1029 q -10 1125 -33 1101 q 49 1149 14 1149 q 109 1125 86 1149 q 132 1065 132 1101 q 109 1006 132 1029 q 49 983 86 983 m 346 983 q 286 1006 310 983 q 263 1065 263 1029 q 286 1125 263 1101 q 346 1149 310 1149 q 405 1125 382 1149 q 428 1065 428 1101 q 405 1006 428 1029 q 346 983 382 983 z "},"Ī":{"ha":392,"x_min":-3,"x_max":397,"o":"m 115 0 l 115 908 l 276 908 l 276 0 l 115 0 m -3 1011 l -3 1117 l 397 1117 l 397 1011 l -3 1011 z "},"Ĭ":{"ha":392,"x_min":-17,"x_max":413,"o":"m 115 0 l 115 908 l 276 908 l 276 0 l 115 0 m 197 975 q 85 999 131 975 q 15 1064 40 1022 q -18 1160 -11 1106 l 74 1175 q 113 1101 82 1129 q 197 1072 144 1072 q 281 1101 250 1072 q 321 1175 313 1129 l 413 1160 q 381 1064 407 1106 q 309 999 354 1022 q 197 975 264 975 z "},"İ":{"ha":392,"x_min":99,"x_max":297,"o":"m 115 0 l 115 908 l 276 908 l 276 0 l 115 0 m 197 982 q 127 1008 156 982 q 99 1074 99 1035 q 127 1139 99 1114 q 197 1164 156 1164 q 268 1139 240 1164 q 296 1074 296 1114 q 268 1008 296 1035 q 197 982 240 982 z "},"Ǐ":{"ha":392,"x_min":-69,"x_max":464,"o":"m 115 0 l 115 908 l 276 908 l 276 0 l 115 0 m 117 979 l -69 1178 l 58 1178 l 194 1079 l 200 1079 l 336 1178 l 464 1178 l 278 979 l 117 979 z "},"Ȉ":{"ha":392,"x_min":-147,"x_max":406,"o":"m 115 0 l 115 908 l 276 908 l 276 0 l 115 0 m 36 979 l -147 1161 l -137 1178 l 4 1178 l 139 979 l 36 979 m 303 979 l 119 1161 l 129 1178 l 271 1178 l 406 979 l 303 979 z "},"Į":{"ha":392,"x_min":46,"x_max":347,"o":"m 208 -308 q 93 -275 140 -308 q 46 -176 46 -242 q 80 -73 46 -118 q 151 0 114 -28 l 115 0 l 115 908 l 276 908 l 276 0 q 200 -61 226 -26 q 174 -132 174 -96 q 194 -178 174 -164 q 242 -193 214 -193 q 278 -186 261 -193 q 308 -171 296 -179 l 347 -261 q 284 -294 322 -281 q 208 -308 246 -308 z "},"Ỉ":{"ha":392,"x_min":89,"x_max":319,"o":"m 115 0 l 115 908 l 276 908 l 276 0 l 115 0 m 144 969 l 131 1036 q 181 1055 161 1043 q 200 1089 200 1067 q 174 1129 200 1114 q 88 1147 147 1144 l 106 1233 q 226 1216 179 1232 q 297 1172 274 1200 q 319 1107 319 1144 q 295 1034 319 1063 q 231 990 271 1006 q 144 969 192 975 z "},"Ị":{"ha":392,"x_min":101,"x_max":294,"o":"m 115 0 l 115 908 l 276 908 l 276 0 l 115 0 z "},"Ɨ":{"ha":447,"x_min":31,"x_max":417,"o":"m 31 414 l 31 528 l 150 536 l 417 536 l 417 414 l 31 414 m 143 0 l 143 908 l 304 908 l 304 0 l 143 0 z "},"Ĳ":{"ha":785,"x_min":115,"x_max":669,"o":"m 115 0 l 115 908 l 276 908 l 276 0 l 115 0 m 451 -242 q 388 -236 415 -242 q 342 -222 361 -231 l 371 -101 q 399 -108 385 -106 q 429 -111 414 -111 q 492 -80 475 -111 q 508 10 508 -49 l 508 908 l 669 908 l 669 11 q 649 -118 669 -61 q 580 -208 628 -175 q 451 -242 532 -242 z "},"Ĵ":{"ha":686,"x_min":36,"x_max":758,"o":"m 294 -17 q 141 22 206 -17 q 36 140 76 60 l 140 211 q 201 146 164 168 q 281 124 238 124 q 381 164 349 124 q 414 304 414 204 l 414 908 l 575 908 l 575 290 q 546 136 575 206 q 455 25 517 67 q 294 -17 393 -17 m 225 978 l 411 1178 l 572 1178 l 758 978 l 631 978 l 494 1083 l 489 1083 l 353 978 l 225 978 z "},"Ɉ":{"ha":714,"x_min":36,"x_max":683,"o":"m 236 447 l 236 561 l 378 569 l 683 569 l 683 447 l 236 447 m 294 -17 q 141 22 206 -17 q 36 140 76 60 l 140 211 q 201 146 164 168 q 281 124 238 124 q 381 164 349 124 q 414 304 414 204 l 414 908 l 575 908 l 575 290 q 546 136 575 206 q 455 25 517 67 q 294 -17 393 -17 z "},"Ķ":{"ha":829,"x_min":115,"x_max":831,"o":"m 115 0 l 115 908 l 276 908 l 276 496 l 281 496 l 604 908 l 783 908 l 504 554 l 831 0 l 653 0 l 407 428 l 276 265 l 276 0 l 115 0 m 328 -324 l 314 -254 q 430 -234 399 -249 q 461 -194 461 -219 q 438 -158 461 -171 q 367 -140 415 -144 l 400 -76 q 540 -112 501 -86 q 579 -187 579 -139 q 513 -285 579 -253 q 328 -324 447 -318 z "},"Ḳ":{"ha":829,"x_min":115,"x_max":831,"o":"m 115 0 l 115 908 l 276 908 l 276 496 l 281 496 l 604 908 l 783 908 l 504 554 l 831 0 l 653 0 l 407 428 l 276 265 l 276 0 l 115 0 z "},"Ḵ":{"ha":829,"x_min":115,"x_max":831,"o":"m 115 0 l 115 908 l 276 908 l 276 496 l 281 496 l 604 908 l 783 908 l 504 554 l 831 0 l 653 0 l 407 428 l 276 265 l 276 0 l 115 0 z "},"Ĺ":{"ha":697,"x_min":86,"x_max":654,"o":"m 115 0 l 115 908 l 276 908 l 276 136 l 654 136 l 654 0 l 115 0 m 86 978 l 264 1178 l 449 1178 l 458 1161 l 222 978 l 86 978 z "},"Ľ":{"ha":697,"x_min":115,"x_max":654,"o":"m 115 0 l 115 908 l 276 908 l 276 136 l 654 136 l 654 0 l 115 0 m 476 711 l 469 1013 l 576 1013 l 575 925 l 549 711 l 476 711 z "},"Ļ":{"ha":697,"x_min":115,"x_max":654,"o":"m 115 0 l 115 908 l 276 908 l 276 136 l 654 136 l 654 0 l 115 0 m 272 -324 l 258 -254 q 374 -234 343 -249 q 406 -194 406 -219 q 383 -158 406 -171 q 311 -140 360 -144 l 344 -76 q 485 -112 446 -86 q 524 -187 524 -139 q 458 -285 524 -253 q 272 -324 392 -318 z "},"Ḷ":{"ha":697,"x_min":115,"x_max":654,"o":"m 115 0 l 115 908 l 276 908 l 276 136 l 654 136 l 654 0 l 115 0 z "},"Ḹ":{"ha":697,"x_min":0,"x_max":654,"o":"m 115 0 l 115 908 l 276 908 l 276 136 l 654 136 l 654 0 l 115 0 m 0 1011 l 0 1117 l 400 1117 l 400 1011 l 0 1011 z "},"Ḻ":{"ha":697,"x_min":115,"x_max":654,"o":"m 115 0 l 115 908 l 276 908 l 276 136 l 654 136 l 654 0 l 115 0 z "},"Ł":{"ha":725,"x_min":-19,"x_max":685,"o":"m 42 267 l -19 386 l 147 458 l 278 519 l 547 642 l 608 522 l 289 383 l 158 322 l 42 267 m 146 0 l 146 908 l 307 908 l 307 136 l 685 136 l 685 0 l 146 0 z "},"Ƚ":{"ha":722,"x_min":31,"x_max":682,"o":"m 31 436 l 31 550 l 146 558 l 544 558 l 544 436 l 31 436 m 143 0 l 143 908 l 304 908 l 304 136 l 682 136 l 682 0 l 143 0 z "},"Ⱡ":{"ha":722,"x_min":31,"x_max":682,"o":"m 31 361 l 31 447 l 144 456 l 544 456 l 544 361 l 31 361 m 31 539 l 31 625 l 144 633 l 544 633 l 544 539 l 31 539 m 143 0 l 143 908 l 304 908 l 304 136 l 682 136 l 682 0 l 143 0 z "},"Ɫ":{"ha":794,"x_min":6,"x_max":751,"o":"m 515 385 q 413 400 460 385 q 324 435 365 415 q 244 471 282 456 q 165 486 206 486 q 126 463 139 486 q 108 397 113 440 l 6 417 q 25 515 8 474 q 72 578 42 556 q 150 600 103 600 q 254 584 207 600 q 342 548 301 568 q 422 513 383 528 q 500 497 461 497 q 539 521 525 497 q 556 586 553 544 l 658 567 q 640 470 656 511 q 592 407 624 429 q 515 385 561 385 m 213 0 l 213 908 l 374 908 l 374 136 l 751 136 l 751 0 l 213 0 z "},"Ɬ":{"ha":792,"x_min":-3,"x_max":749,"o":"m 194 369 q 44 416 92 369 q -3 531 -3 463 q 35 625 -3 589 q 128 661 72 661 q 212 635 178 661 q 263 566 246 608 q 281 478 281 524 l 210 497 q 192 556 210 533 q 143 578 174 578 q 110 567 121 578 q 100 539 100 556 q 119 505 100 518 q 178 492 139 492 l 594 492 l 594 369 l 194 369 m 210 0 l 210 908 l 371 908 l 371 136 l 749 136 l 749 0 l 210 0 z "},"Ŀ":{"ha":697,"x_min":115,"x_max":654,"o":"m 115 0 l 115 908 l 276 908 l 276 136 l 654 136 l 654 0 l 115 0 m 547 346 q 474 377 504 346 q 443 454 443 408 q 474 532 443 501 q 547 563 504 563 q 621 532 592 563 q 650 454 650 501 q 621 377 650 408 q 547 346 592 346 z "},"Ḿ":{"ha":1035,"x_min":115,"x_max":919,"o":"m 115 0 l 115 908 l 308 908 l 464 464 q 492 378 479 421 q 517 286 504 336 l 522 286 q 547 378 535 336 q 572 464 558 421 l 728 908 l 919 908 l 919 0 l 771 0 l 771 414 q 774 513 771 457 q 783 623 778 568 q 794 719 789 678 l 789 719 l 717 489 l 569 83 l 461 83 l 314 489 l 244 719 l 239 719 q 249 623 244 678 q 258 513 254 568 q 261 414 261 457 l 261 0 l 115 0 m 406 978 l 583 1178 l 768 1178 l 778 1161 l 542 978 l 406 978 z "},"Ṁ":{"ha":1035,"x_min":115,"x_max":919,"o":"m 115 0 l 115 908 l 308 908 l 464 464 q 492 378 479 421 q 517 286 504 336 l 522 286 q 547 378 535 336 q 572 464 558 421 l 728 908 l 919 908 l 919 0 l 771 0 l 771 414 q 774 513 771 457 q 783 623 778 568 q 794 719 789 678 l 789 719 l 717 489 l 569 83 l 461 83 l 314 489 l 244 719 l 239 719 q 249 623 244 678 q 258 513 254 568 q 261 414 261 457 l 261 0 l 115 0 m 519 982 q 449 1008 478 982 q 421 1074 421 1035 q 449 1139 421 1114 q 519 1164 478 1164 q 590 1139 563 1164 q 618 1074 618 1114 q 590 1008 618 1035 q 519 982 563 982 z "},"Ṃ":{"ha":1035,"x_min":115,"x_max":919,"o":"m 115 0 l 115 908 l 308 908 l 464 464 q 492 378 479 421 q 517 286 504 336 l 522 286 q 547 378 535 336 q 572 464 558 421 l 728 908 l 919 908 l 919 0 l 771 0 l 771 414 q 774 513 771 457 q 783 623 778 568 q 794 719 789 678 l 789 719 l 717 489 l 569 83 l 461 83 l 314 489 l 244 719 l 239 719 q 249 623 244 678 q 258 513 254 568 q 261 414 261 457 l 261 0 l 115 0 z "},"Ǹ":{"ha":911,"x_min":115,"x_max":796,"o":"m 115 0 l 115 908 l 292 908 l 564 408 q 612 310 589 363 q 656 203 635 257 l 661 203 q 649 356 656 276 q 642 511 642 436 l 642 908 l 796 908 l 796 0 l 619 0 l 347 500 q 298 599 322 546 q 253 706 274 651 l 247 706 q 263 555 256 635 q 269 397 269 475 l 269 0 l 115 0 m 444 978 l 208 1161 l 218 1178 l 403 1178 l 581 978 l 444 978 z "},"Ń":{"ha":911,"x_min":115,"x_max":796,"o":"m 115 0 l 115 908 l 292 908 l 564 408 q 612 310 589 363 q 656 203 635 257 l 661 203 q 649 356 656 276 q 642 511 642 436 l 642 908 l 796 908 l 796 0 l 619 0 l 347 500 q 298 599 322 546 q 253 706 274 651 l 247 706 q 263 555 256 635 q 269 397 269 475 l 269 0 l 115 0 m 353 978 l 531 1178 l 715 1178 l 725 1161 l 489 978 l 353 978 z "},"Ň":{"ha":911,"x_min":115,"x_max":796,"o":"m 115 0 l 115 908 l 292 908 l 564 408 q 612 310 589 363 q 656 203 635 257 l 661 203 q 649 356 656 276 q 642 511 642 436 l 642 908 l 796 908 l 796 0 l 619 0 l 347 500 q 298 599 322 546 q 253 706 274 651 l 247 706 q 263 555 256 635 q 269 397 269 475 l 269 0 l 115 0 m 386 979 l 200 1178 l 328 1178 l 464 1079 l 469 1079 l 606 1178 l 733 1178 l 547 979 l 386 979 z "},"Ñ":{"ha":911,"x_min":115,"x_max":796,"o":"m 115 0 l 115 908 l 292 908 l 564 408 q 612 310 589 363 q 656 203 635 257 l 661 203 q 649 356 656 276 q 642 511 642 436 l 642 908 l 796 908 l 796 0 l 619 0 l 347 500 q 298 599 322 546 q 253 706 274 651 l 247 706 q 263 555 256 635 q 269 397 269 475 l 269 0 l 115 0 m 568 972 q 502 986 531 972 q 451 1017 474 1000 q 410 1048 429 1035 q 369 1061 392 1061 q 331 1042 347 1061 q 311 982 315 1024 l 206 990 q 254 1129 211 1083 q 365 1175 297 1175 q 431 1162 403 1175 q 482 1131 460 1149 q 524 1100 504 1114 q 564 1086 543 1086 q 602 1106 586 1086 q 622 1167 618 1125 l 728 1158 q 680 1019 724 1067 q 568 972 636 972 z "},"Ṅ":{"ha":911,"x_min":115,"x_max":796,"o":"m 115 0 l 115 908 l 292 908 l 564 408 q 612 310 589 363 q 656 203 635 257 l 661 203 q 649 356 656 276 q 642 511 642 436 l 642 908 l 796 908 l 796 0 l 619 0 l 347 500 q 298 599 322 546 q 253 706 274 651 l 247 706 q 263 555 256 635 q 269 397 269 475 l 269 0 l 115 0 m 467 982 q 397 1008 425 982 q 368 1074 368 1035 q 397 1139 368 1114 q 467 1164 425 1164 q 538 1139 510 1164 q 565 1074 565 1114 q 538 1008 565 1035 q 467 982 510 982 z "},"Ņ":{"ha":911,"x_min":115,"x_max":796,"o":"m 115 0 l 115 908 l 292 908 l 564 408 q 612 310 589 363 q 656 203 635 257 l 661 203 q 649 356 656 276 q 642 511 642 436 l 642 908 l 796 908 l 796 0 l 619 0 l 347 500 q 298 599 322 546 q 253 706 274 651 l 247 706 q 263 555 256 635 q 269 397 269 475 l 269 0 l 115 0 m 339 -324 l 325 -254 q 441 -234 410 -249 q 472 -194 472 -219 q 449 -158 472 -171 q 378 -140 426 -144 l 411 -76 q 551 -112 513 -86 q 590 -187 590 -139 q 524 -285 590 -253 q 339 -324 458 -318 z "},"Ṇ":{"ha":911,"x_min":115,"x_max":796,"o":"m 115 0 l 115 908 l 292 908 l 564 408 q 612 310 589 363 q 656 203 635 257 l 661 203 q 649 356 656 276 q 642 511 642 436 l 642 908 l 796 908 l 796 0 l 619 0 l 347 500 q 298 599 322 546 q 253 706 274 651 l 247 706 q 263 555 256 635 q 269 397 269 475 l 269 0 l 115 0 z "},"Ṉ":{"ha":911,"x_min":115,"x_max":796,"o":"m 115 0 l 115 908 l 292 908 l 564 408 q 612 310 589 363 q 656 203 635 257 l 661 203 q 649 356 656 276 q 642 511 642 436 l 642 908 l 796 908 l 796 0 l 619 0 l 347 500 q 298 599 322 546 q 253 706 274 651 l 247 706 q 263 555 256 635 q 269 397 269 475 l 269 0 l 115 0 z "},"Ŋ":{"ha":904,"x_min":115,"x_max":836,"o":"m 568 -17 q 506 -10 540 -17 q 451 7 471 -4 l 488 146 q 516 138 501 140 q 550 135 531 135 q 610 163 583 135 q 654 261 638 190 q 671 463 671 332 q 647 653 671 583 q 580 754 624 724 q 478 785 536 785 q 408 769 444 785 q 336 726 371 754 q 276 661 301 699 l 276 0 l 115 0 l 115 908 l 272 908 l 272 803 q 346 867 306 840 q 431 910 386 894 q 522 925 476 925 q 683 880 613 925 q 795 733 754 835 q 836 463 836 632 q 806 188 836 294 q 715 33 775 82 q 568 -17 656 -17 z "},"Ƞ":{"ha":933,"x_min":115,"x_max":822,"o":"m 661 -225 l 661 490 q 640 665 661 600 q 577 757 618 729 q 478 785 536 785 q 408 769 444 785 q 336 726 371 754 q 276 661 301 699 l 276 0 l 115 0 l 115 908 l 272 908 l 272 803 q 346 867 306 840 q 431 910 386 894 q 524 925 476 925 q 683 883 615 925 q 786 749 750 840 q 822 507 822 657 l 822 -225 l 661 -225 z "},"Ò":{"ha":936,"x_min":68,"x_max":869,"o":"m 468 -17 q 260 41 350 -17 q 119 205 169 99 q 68 458 68 311 q 119 710 68 606 q 260 869 169 814 q 468 925 350 925 q 678 869 588 925 q 819 710 768 814 q 869 458 869 606 q 819 205 869 311 q 678 41 768 99 q 468 -17 588 -17 m 468 124 q 592 165 540 124 q 674 281 644 206 q 703 458 703 357 q 674 633 703 560 q 592 745 644 706 q 468 785 540 785 q 344 745 397 785 q 263 633 292 706 q 233 458 233 560 q 263 281 233 357 q 344 165 292 206 q 468 124 397 124 m 446 978 l 210 1161 l 219 1178 l 404 1178 l 582 978 l 446 978 z "},"Ó":{"ha":936,"x_min":68,"x_max":869,"o":"m 468 -17 q 260 41 350 -17 q 119 205 169 99 q 68 458 68 311 q 119 710 68 606 q 260 869 169 814 q 468 925 350 925 q 678 869 588 925 q 819 710 768 814 q 869 458 869 606 q 819 205 869 311 q 678 41 768 99 q 468 -17 588 -17 m 468 124 q 592 165 540 124 q 674 281 644 206 q 703 458 703 357 q 674 633 703 560 q 592 745 644 706 q 468 785 540 785 q 344 745 397 785 q 263 633 292 706 q 233 458 233 560 q 263 281 233 357 q 344 165 292 206 q 468 124 397 124 m 354 978 l 532 1178 l 717 1178 l 726 1161 l 490 978 l 354 978 z "},"Ô":{"ha":936,"x_min":68,"x_max":869,"o":"m 468 -17 q 260 41 350 -17 q 119 205 169 99 q 68 458 68 311 q 119 710 68 606 q 260 869 169 814 q 468 925 350 925 q 678 869 588 925 q 819 710 768 814 q 869 458 869 606 q 819 205 869 311 q 678 41 768 99 q 468 -17 588 -17 m 468 124 q 592 165 540 124 q 674 281 644 206 q 703 458 703 357 q 674 633 703 560 q 592 745 644 706 q 468 785 540 785 q 344 745 397 785 q 263 633 292 706 q 233 458 233 560 q 263 281 233 357 q 344 165 292 206 q 468 124 397 124 m 201 978 l 388 1178 l 549 1178 l 735 978 l 607 978 l 471 1083 l 465 1083 l 329 978 l 201 978 z "},"Õ":{"ha":936,"x_min":68,"x_max":869,"o":"m 468 -17 q 260 41 350 -17 q 119 205 169 99 q 68 458 68 311 q 119 710 68 606 q 260 869 169 814 q 468 925 350 925 q 678 869 588 925 q 819 710 768 814 q 869 458 869 606 q 819 205 869 311 q 678 41 768 99 q 468 -17 588 -17 m 468 124 q 592 165 540 124 q 674 281 644 206 q 703 458 703 357 q 674 633 703 560 q 592 745 644 706 q 468 785 540 785 q 344 745 397 785 q 263 633 292 706 q 233 458 233 560 q 263 281 233 357 q 344 165 292 206 q 468 124 397 124 m 569 972 q 503 986 532 972 q 453 1017 475 1000 q 412 1048 431 1035 q 371 1061 393 1061 q 333 1042 349 1061 q 313 982 317 1024 l 207 990 q 256 1129 213 1083 q 367 1175 299 1175 q 433 1162 404 1175 q 483 1131 461 1149 q 525 1100 506 1114 q 565 1086 544 1086 q 603 1106 588 1086 q 624 1167 619 1125 l 729 1158 q 681 1019 725 1067 q 569 972 638 972 z "},"Ö":{"ha":936,"x_min":68,"x_max":869,"o":"m 468 -17 q 260 41 350 -17 q 119 205 169 99 q 68 458 68 311 q 119 710 68 606 q 260 869 169 814 q 468 925 350 925 q 678 869 588 925 q 819 710 768 814 q 869 458 869 606 q 819 205 869 311 q 678 41 768 99 q 468 -17 588 -17 m 468 124 q 592 165 540 124 q 674 281 644 206 q 703 458 703 357 q 674 633 703 560 q 592 745 644 706 q 468 785 540 785 q 344 745 397 785 q 263 633 292 706 q 233 458 233 560 q 263 281 233 357 q 344 165 292 206 q 468 124 397 124 m 319 983 q 261 1006 285 983 q 238 1065 238 1029 q 261 1125 238 1101 q 319 1149 285 1149 q 380 1125 357 1149 q 403 1065 403 1101 q 380 1006 403 1029 q 319 983 357 983 m 617 983 q 557 1006 581 983 q 533 1065 533 1029 q 557 1125 533 1101 q 617 1149 581 1149 q 676 1125 653 1149 q 699 1065 699 1101 q 676 1006 699 1029 q 617 983 653 983 z "},"Ō":{"ha":936,"x_min":68,"x_max":869,"o":"m 468 -17 q 260 41 350 -17 q 119 205 169 99 q 68 458 68 311 q 119 710 68 606 q 260 869 169 814 q 468 925 350 925 q 678 869 588 925 q 819 710 768 814 q 869 458 869 606 q 819 205 869 311 q 678 41 768 99 q 468 -17 588 -17 m 468 124 q 592 165 540 124 q 674 281 644 206 q 703 458 703 357 q 674 633 703 560 q 592 745 644 706 q 468 785 540 785 q 344 745 397 785 q 263 633 292 706 q 233 458 233 560 q 263 281 233 357 q 344 165 292 206 q 468 124 397 124 m 268 1011 l 268 1117 l 668 1117 l 668 1011 l 268 1011 z "},"Ŏ":{"ha":936,"x_min":68,"x_max":869,"o":"m 468 -17 q 260 41 350 -17 q 119 205 169 99 q 68 458 68 311 q 119 710 68 606 q 260 869 169 814 q 468 925 350 925 q 678 869 588 925 q 819 710 768 814 q 869 458 869 606 q 819 205 869 311 q 678 41 768 99 q 468 -17 588 -17 m 468 124 q 592 165 540 124 q 674 281 644 206 q 703 458 703 357 q 674 633 703 560 q 592 745 644 706 q 468 785 540 785 q 344 745 397 785 q 263 633 292 706 q 233 458 233 560 q 263 281 233 357 q 344 165 292 206 q 468 124 397 124 m 468 975 q 356 999 401 975 q 285 1064 311 1022 q 253 1160 260 1106 l 344 1175 q 384 1101 353 1129 q 468 1072 415 1072 q 552 1101 521 1072 q 592 1175 583 1129 l 683 1160 q 651 1064 678 1106 q 580 999 625 1022 q 468 975 535 975 z "},"Ő":{"ha":936,"x_min":68,"x_max":869,"o":"m 468 -17 q 260 41 350 -17 q 119 205 169 99 q 68 458 68 311 q 119 710 68 606 q 260 869 169 814 q 468 925 350 925 q 678 869 588 925 q 819 710 768 814 q 869 458 869 606 q 819 205 869 311 q 678 41 768 99 q 468 -17 588 -17 m 468 124 q 592 165 540 124 q 674 281 644 206 q 703 458 703 357 q 674 633 703 560 q 592 745 644 706 q 468 785 540 785 q 344 745 397 785 q 263 633 292 706 q 233 458 233 560 q 263 281 233 357 q 344 165 292 206 q 468 124 397 124 m 260 978 l 394 1178 l 536 1178 l 546 1161 l 363 978 l 260 978 m 526 978 l 661 1178 l 803 1178 l 813 1161 l 629 978 l 526 978 z "},"Ǒ":{"ha":936,"x_min":68,"x_max":869,"o":"m 468 -17 q 260 41 350 -17 q 119 205 169 99 q 68 458 68 311 q 119 710 68 606 q 260 869 169 814 q 468 925 350 925 q 678 869 588 925 q 819 710 768 814 q 869 458 869 606 q 819 205 869 311 q 678 41 768 99 q 468 -17 588 -17 m 468 124 q 592 165 540 124 q 674 281 644 206 q 703 458 703 357 q 674 633 703 560 q 592 745 644 706 q 468 785 540 785 q 344 745 397 785 q 263 633 292 706 q 233 458 233 560 q 263 281 233 357 q 344 165 292 206 q 468 124 397 124 m 388 979 l 201 1178 l 329 1178 l 465 1079 l 471 1079 l 607 1178 l 735 1178 l 549 979 l 388 979 z "},"Ȍ":{"ha":936,"x_min":68,"x_max":869,"o":"m 468 -17 q 260 41 350 -17 q 119 205 169 99 q 68 458 68 311 q 119 710 68 606 q 260 869 169 814 q 468 925 350 925 q 678 869 588 925 q 819 710 768 814 q 869 458 869 606 q 819 205 869 311 q 678 41 768 99 q 468 -17 588 -17 m 468 124 q 592 165 540 124 q 674 281 644 206 q 703 458 703 357 q 674 633 703 560 q 592 745 644 706 q 468 785 540 785 q 344 745 397 785 q 263 633 292 706 q 233 458 233 560 q 263 281 233 357 q 344 165 292 206 q 468 124 397 124 m 307 979 l 124 1161 l 133 1178 l 275 1178 l 410 979 l 307 979 m 574 979 l 390 1161 l 400 1178 l 542 1178 l 676 979 l 574 979 z "},"Ǫ":{"ha":936,"x_min":68,"x_max":869,"o":"m 490 -308 q 375 -275 422 -308 q 328 -176 328 -242 q 360 -77 328 -128 q 446 4 392 -26 l 468 -17 q 260 41 350 -17 q 119 205 169 99 q 68 458 68 311 q 119 709 68 604 q 260 869 169 814 q 468 925 350 925 q 676 869 586 925 q 818 709 767 814 q 869 458 869 604 q 832 235 869 328 q 730 83 794 142 q 582 -1 665 25 q 508 -40 536 -17 q 468 -87 481 -62 q 456 -132 456 -111 q 476 -178 456 -164 q 525 -193 496 -193 q 561 -186 544 -193 q 590 -171 578 -179 l 631 -261 q 567 -294 606 -281 q 490 -308 528 -308 m 468 119 q 593 161 540 119 q 674 279 646 203 q 703 458 703 356 q 674 633 703 560 q 593 745 646 706 q 468 785 540 785 q 344 745 397 785 q 263 633 292 706 q 233 458 233 560 q 263 279 233 356 q 344 161 292 203 q 468 119 397 119 z "},"Ọ":{"ha":936,"x_min":68,"x_max":869,"o":"m 468 -17 q 260 41 350 -17 q 119 205 169 99 q 68 458 68 311 q 119 710 68 606 q 260 869 169 814 q 468 925 350 925 q 678 869 588 925 q 819 710 768 814 q 869 458 869 606 q 819 205 869 311 q 678 41 768 99 q 468 -17 588 -17 m 468 124 q 592 165 540 124 q 674 281 644 206 q 703 458 703 357 q 674 633 703 560 q 592 745 644 706 q 468 785 540 785 q 344 745 397 785 q 263 633 292 706 q 233 458 233 560 q 263 281 233 357 q 344 165 292 206 q 468 124 397 124 z "},"Ỏ":{"ha":936,"x_min":68,"x_max":869,"o":"m 468 -17 q 260 41 350 -17 q 119 205 169 99 q 68 458 68 311 q 119 710 68 606 q 260 869 169 814 q 468 925 350 925 q 678 869 588 925 q 819 710 768 814 q 869 458 869 606 q 819 205 869 311 q 678 41 768 99 q 468 -17 588 -17 m 468 124 q 592 165 540 124 q 674 281 644 206 q 703 458 703 357 q 674 633 703 560 q 592 745 644 706 q 468 785 540 785 q 344 745 397 785 q 263 633 292 706 q 233 458 233 560 q 263 281 233 357 q 344 165 292 206 q 468 124 397 124 m 415 969 l 401 1036 q 451 1055 432 1043 q 471 1089 471 1067 q 444 1129 471 1114 q 358 1147 418 1144 l 376 1233 q 497 1216 450 1232 q 567 1172 544 1200 q 590 1107 590 1144 q 566 1034 590 1063 q 502 990 542 1006 q 415 969 463 975 z "},"Ố":{"ha":936,"x_min":68,"x_max":869,"o":"m 468 -17 q 260 41 350 -17 q 119 205 169 99 q 68 458 68 311 q 119 710 68 606 q 260 869 169 814 q 468 925 350 925 q 678 869 588 925 q 819 710 768 814 q 869 458 869 606 q 819 205 869 311 q 678 41 768 99 q 468 -17 588 -17 m 468 124 q 592 165 540 124 q 674 281 644 206 q 703 458 703 357 q 674 633 703 560 q 592 745 644 706 q 468 785 540 785 q 344 745 397 785 q 263 633 292 706 q 233 458 233 560 q 263 281 233 357 q 344 165 292 206 q 468 124 397 124 m 229 978 l 396 1150 l 540 1150 l 707 978 l 588 978 l 471 1065 l 465 1065 l 349 978 l 229 978 m 615 1092 l 715 1256 l 844 1256 l 854 1239 l 707 1092 l 615 1092 z "},"Ồ":{"ha":936,"x_min":68,"x_max":869,"o":"m 468 -17 q 260 41 350 -17 q 119 205 169 99 q 68 458 68 311 q 119 710 68 606 q 260 869 169 814 q 468 925 350 925 q 678 869 588 925 q 819 710 768 814 q 869 458 869 606 q 819 205 869 311 q 678 41 768 99 q 468 -17 588 -17 m 468 124 q 592 165 540 124 q 674 281 644 206 q 703 458 703 357 q 674 633 703 560 q 592 745 644 706 q 468 785 540 785 q 344 745 397 785 q 263 633 292 706 q 233 458 233 560 q 263 281 233 357 q 344 165 292 206 q 468 124 397 124 m 229 978 l 396 1150 l 540 1150 l 707 978 l 588 978 l 471 1065 l 465 1065 l 349 978 l 229 978 m 229 1092 l 82 1239 l 92 1256 l 221 1256 l 321 1092 l 229 1092 z "},"Ổ":{"ha":936,"x_min":68,"x_max":869,"o":"m 468 -17 q 260 41 350 -17 q 119 205 169 99 q 68 458 68 311 q 119 710 68 606 q 260 869 169 814 q 468 925 350 925 q 678 869 588 925 q 819 710 768 814 q 869 458 869 606 q 819 205 869 311 q 678 41 768 99 q 468 -17 588 -17 m 468 124 q 592 165 540 124 q 674 281 644 206 q 703 458 703 357 q 674 633 703 560 q 592 745 644 706 q 468 785 540 785 q 344 745 397 785 q 263 633 292 706 q 233 458 233 560 q 263 281 233 357 q 344 165 292 206 q 468 124 397 124 m 661 1072 l 646 1128 q 684 1143 669 1133 q 699 1174 699 1153 q 678 1208 699 1197 q 606 1222 657 1219 l 619 1294 q 726 1278 685 1292 q 786 1242 767 1265 q 806 1188 806 1218 q 763 1106 806 1132 q 661 1072 721 1079 m 229 979 l 396 1151 l 540 1151 l 707 979 l 588 979 l 471 1067 l 465 1067 l 349 979 l 229 979 z "},"Ỗ":{"ha":936,"x_min":68,"x_max":869,"o":"m 468 -17 q 260 41 350 -17 q 119 205 169 99 q 68 458 68 311 q 119 710 68 606 q 260 869 169 814 q 468 925 350 925 q 678 869 588 925 q 819 710 768 814 q 869 458 869 606 q 819 205 869 311 q 678 41 768 99 q 468 -17 588 -17 m 468 124 q 592 165 540 124 q 674 281 644 206 q 703 458 703 357 q 674 633 703 560 q 592 745 644 706 q 468 785 540 785 q 344 745 397 785 q 263 633 292 706 q 233 458 233 560 q 263 281 233 357 q 344 165 292 206 q 468 124 397 124 m 229 978 l 396 1142 l 540 1142 l 707 978 l 588 978 l 471 1057 l 465 1057 l 349 978 l 229 978 m 563 1174 q 501 1183 526 1174 q 457 1206 476 1193 q 420 1228 438 1218 q 382 1239 403 1239 q 350 1224 361 1239 q 333 1179 339 1208 l 249 1188 q 267 1264 251 1232 q 308 1313 282 1296 q 374 1329 335 1329 q 435 1319 410 1329 q 479 1297 460 1310 q 517 1274 499 1285 q 554 1264 535 1264 q 587 1279 575 1264 q 603 1324 599 1294 l 688 1315 q 669 1239 685 1271 q 628 1190 654 1207 q 563 1174 601 1174 z "},"Ộ":{"ha":936,"x_min":68,"x_max":869,"o":"m 468 -17 q 260 41 350 -17 q 119 205 169 99 q 68 458 68 311 q 119 710 68 606 q 260 869 169 814 q 468 925 350 925 q 678 869 588 925 q 819 710 768 814 q 869 458 869 606 q 819 205 869 311 q 678 41 768 99 q 468 -17 588 -17 m 468 124 q 592 165 540 124 q 674 281 644 206 q 703 458 703 357 q 674 633 703 560 q 592 745 644 706 q 468 785 540 785 q 344 745 397 785 q 263 633 292 706 q 233 458 233 560 q 263 281 233 357 q 344 165 292 206 q 468 124 397 124 m 201 978 l 388 1178 l 549 1178 l 735 978 l 607 978 l 471 1083 l 465 1083 l 329 978 l 201 978 z "},"Ṓ":{"ha":936,"x_min":68,"x_max":869,"o":"m 468 -17 q 260 41 350 -17 q 119 205 169 99 q 68 458 68 311 q 119 710 68 606 q 260 869 169 814 q 468 925 350 925 q 678 869 588 925 q 819 710 768 814 q 869 458 869 606 q 819 205 869 311 q 678 41 768 99 q 468 -17 588 -17 m 468 124 q 592 165 540 124 q 674 281 644 206 q 703 458 703 357 q 674 633 703 560 q 592 745 644 706 q 468 785 540 785 q 344 745 397 785 q 263 633 292 706 q 233 458 233 560 q 263 281 233 357 q 344 165 292 206 q 468 124 397 124 m 268 1011 l 268 1117 l 668 1117 l 668 1011 l 268 1011 m 374 1174 l 496 1344 l 642 1344 l 651 1328 l 482 1174 l 374 1174 z "},"Ø":{"ha":936,"x_min":57,"x_max":894,"o":"m 153 -56 l 57 22 l 797 964 l 894 886 l 153 -56 m 471 -17 q 263 41 353 -17 q 122 205 172 99 q 71 458 71 311 q 122 710 71 606 q 263 869 172 814 q 471 925 353 925 q 681 869 590 925 q 822 710 771 814 q 872 458 872 606 q 822 205 872 311 q 681 41 771 99 q 471 -17 590 -17 m 471 124 q 595 165 543 124 q 676 281 647 206 q 706 458 706 357 q 676 633 706 560 q 595 745 647 706 q 471 785 543 785 q 347 745 400 785 q 265 633 294 706 q 236 458 236 560 q 265 281 236 357 q 347 165 294 206 q 471 124 400 124 z "},"Ǿ":{"ha":936,"x_min":57,"x_max":894,"o":"m 153 -56 l 57 22 l 797 964 l 894 886 l 153 -56 m 471 -17 q 263 41 353 -17 q 122 205 172 99 q 71 458 71 311 q 122 710 71 606 q 263 869 172 814 q 471 925 353 925 q 681 869 590 925 q 822 710 771 814 q 872 458 872 606 q 822 205 872 311 q 681 41 771 99 q 471 -17 590 -17 m 471 124 q 595 165 543 124 q 676 281 647 206 q 706 458 706 357 q 676 633 706 560 q 595 745 647 706 q 471 785 543 785 q 347 745 400 785 q 265 633 294 706 q 236 458 236 560 q 265 281 236 357 q 347 165 294 206 q 471 124 400 124 m 353 978 l 531 1178 l 715 1178 l 725 1161 l 489 978 l 353 978 z "},"Œ":{"ha":1193,"x_min":68,"x_max":1122,"o":"m 515 0 q 281 51 382 0 q 124 205 181 103 q 68 458 68 307 q 124 708 68 608 q 283 858 181 808 q 524 908 386 908 l 1108 908 l 1108 772 l 744 772 l 744 540 l 1050 540 l 1050 404 l 744 404 l 744 136 l 1122 136 l 1122 0 l 515 0 m 533 131 l 583 131 l 583 778 l 533 778 q 373 744 440 778 q 269 641 306 711 q 233 458 233 571 q 269 274 233 346 q 373 166 306 201 q 533 131 440 131 z "},"Ʌ":{"ha":744,"x_min":-6,"x_max":750,"o":"m -6 0 l 276 908 l 467 908 l 750 0 l 579 0 l 451 457 q 412 605 429 535 q 371 753 394 675 l 365 753 q 325 605 343 675 q 286 457 307 535 l 160 0 l -6 0 z "},"Ɔ":{"ha":800,"x_min":38,"x_max":733,"o":"m 335 -17 q 170 17 244 -17 q 38 115 96 50 l 124 211 q 215 145 164 167 q 332 124 267 124 q 503 206 440 124 q 567 460 567 288 q 537 640 567 568 q 454 749 507 713 q 331 785 401 785 q 227 767 275 785 q 139 711 179 749 l 61 810 q 180 893 110 861 q 339 925 250 925 q 538 872 449 925 q 681 714 628 819 q 733 451 733 608 q 681 190 733 293 q 538 35 628 86 q 335 -17 447 -17 z "},"Ꝏ":{"ha":1461,"x_min":68,"x_max":1393,"o":"m 429 -17 q 242 41 324 -17 q 115 205 161 99 q 68 458 68 311 q 115 709 68 604 q 242 869 161 814 q 429 925 324 925 q 557 899 496 925 q 668 816 618 874 q 750 658 718 758 l 711 658 q 793 816 743 758 q 904 899 843 874 q 1031 925 965 925 q 1218 869 1136 925 q 1347 709 1300 814 q 1393 458 1393 604 q 1347 205 1393 311 q 1218 41 1300 99 q 1031 -17 1136 -17 q 904 9 965 -17 q 793 92 843 35 q 711 250 743 150 l 750 250 q 668 92 718 150 q 557 9 618 35 q 429 -17 496 -17 m 447 124 q 556 165 510 124 q 628 281 603 206 q 654 458 654 356 q 628 633 654 560 q 556 745 603 706 q 447 785 510 785 q 333 745 381 785 q 259 633 285 706 q 233 458 233 560 q 259 281 233 356 q 333 165 285 206 q 447 124 381 124 m 1014 124 q 1128 165 1081 124 q 1202 281 1176 206 q 1228 458 1228 356 q 1202 633 1228 560 q 1128 745 1176 706 q 1014 785 1081 785 q 904 745 951 785 q 832 633 857 706 q 807 458 807 560 q 832 281 807 356 q 904 165 857 206 q 1014 124 951 124 z "},"Ȣ":{"ha":936,"x_min":68,"x_max":869,"o":"m 468 -17 q 258 19 349 -17 q 118 123 168 56 q 68 283 68 190 q 101 415 68 360 q 192 506 135 471 q 326 556 250 540 l 326 518 q 204 579 249 540 q 142 675 160 618 q 124 807 124 732 l 124 908 l 285 908 l 285 819 q 308 688 285 736 q 372 618 331 639 q 468 597 414 597 q 566 618 524 597 q 632 688 608 639 q 656 819 656 736 l 656 908 l 811 908 l 811 807 q 792 675 811 732 q 730 579 774 618 q 608 518 686 540 l 608 556 q 742 506 683 540 q 835 415 801 471 q 869 283 869 360 q 819 123 869 190 q 679 19 769 56 q 468 -17 589 -17 m 468 124 q 591 143 538 124 q 674 201 644 163 q 703 296 703 239 q 674 391 703 353 q 591 448 644 429 q 468 467 538 467 q 346 448 399 467 q 263 391 293 429 q 233 296 233 353 q 263 201 233 239 q 346 143 293 163 q 468 124 399 124 z "},"Ơ":{"ha":936,"x_min":69,"x_max":893,"o":"m 735 822 l 654 881 q 731 917 706 893 q 756 989 756 942 q 749 1035 756 1013 q 735 1075 743 1058 l 856 1125 q 882 1070 871 1103 q 893 1000 893 1038 q 853 886 893 929 q 735 822 813 843 m 471 -17 q 263 41 353 -17 q 121 205 172 99 q 69 458 69 311 q 121 709 69 604 q 263 869 172 814 q 471 925 353 925 q 679 869 589 925 q 820 709 769 814 q 871 458 871 604 q 820 205 871 311 q 679 41 769 99 q 471 -17 589 -17 m 471 124 q 594 165 542 124 q 676 281 647 206 q 706 458 706 356 q 676 633 706 560 q 594 745 647 706 q 471 785 542 785 q 346 745 399 785 q 265 633 293 706 q 236 458 236 560 q 265 281 236 356 q 346 165 293 206 q 471 124 399 124 z "},"Ớ":{"ha":936,"x_min":69,"x_max":893,"o":"m 735 822 l 654 881 q 731 917 706 893 q 756 989 756 942 q 749 1035 756 1013 q 735 1075 743 1058 l 856 1125 q 882 1070 871 1103 q 893 1000 893 1038 q 853 886 893 929 q 735 822 813 843 m 471 -17 q 263 41 353 -17 q 121 205 172 99 q 69 458 69 311 q 121 709 69 604 q 263 869 172 814 q 471 925 353 925 q 679 869 589 925 q 820 709 769 814 q 871 458 871 604 q 820 205 871 311 q 679 41 769 99 q 471 -17 589 -17 m 471 124 q 594 165 542 124 q 676 281 647 206 q 706 458 706 356 q 676 633 706 560 q 594 745 647 706 q 471 785 542 785 q 346 745 399 785 q 265 633 293 706 q 236 458 236 560 q 265 281 236 356 q 346 165 293 206 q 471 124 399 124 m 357 978 l 535 1178 l 719 1178 l 729 1161 l 493 978 l 357 978 z "},"Ờ":{"ha":936,"x_min":69,"x_max":893,"o":"m 735 822 l 654 881 q 731 917 706 893 q 756 989 756 942 q 749 1035 756 1013 q 735 1075 743 1058 l 856 1125 q 882 1070 871 1103 q 893 1000 893 1038 q 853 886 893 929 q 735 822 813 843 m 471 -17 q 263 41 353 -17 q 121 205 172 99 q 69 458 69 311 q 121 709 69 604 q 263 869 172 814 q 471 925 353 925 q 679 869 589 925 q 820 709 769 814 q 871 458 871 604 q 820 205 871 311 q 679 41 769 99 q 471 -17 589 -17 m 471 124 q 594 165 542 124 q 676 281 647 206 q 706 458 706 356 q 676 633 706 560 q 594 745 647 706 q 471 785 542 785 q 346 745 399 785 q 265 633 293 706 q 236 458 236 560 q 265 281 236 356 q 346 165 293 206 q 471 124 399 124 m 449 978 l 213 1161 l 222 1178 l 407 1178 l 585 978 l 449 978 z "},"Ở":{"ha":936,"x_min":69,"x_max":893,"o":"m 735 822 l 654 881 q 731 917 706 893 q 756 989 756 942 q 749 1035 756 1013 q 735 1075 743 1058 l 856 1125 q 882 1070 871 1103 q 893 1000 893 1038 q 853 886 893 929 q 735 822 813 843 m 471 -17 q 263 41 353 -17 q 121 205 172 99 q 69 458 69 311 q 121 709 69 604 q 263 869 172 814 q 471 925 353 925 q 679 869 589 925 q 820 709 769 814 q 871 458 871 604 q 820 205 871 311 q 679 41 769 99 q 471 -17 589 -17 m 471 124 q 594 165 542 124 q 676 281 647 206 q 706 458 706 356 q 676 633 706 560 q 594 745 647 706 q 471 785 542 785 q 346 745 399 785 q 265 633 293 706 q 236 458 236 560 q 265 281 236 356 q 346 165 293 206 q 471 124 399 124 m 418 969 l 404 1036 q 454 1055 435 1043 q 474 1089 474 1067 q 447 1129 474 1114 q 361 1147 421 1144 l 379 1233 q 500 1216 453 1232 q 570 1172 547 1200 q 593 1107 593 1144 q 569 1034 593 1063 q 505 990 544 1006 q 418 969 465 975 z "},"Ỡ":{"ha":936,"x_min":69,"x_max":893,"o":"m 735 822 l 654 881 q 731 917 706 893 q 756 989 756 942 q 749 1035 756 1013 q 735 1075 743 1058 l 856 1125 q 882 1070 871 1103 q 893 1000 893 1038 q 853 886 893 929 q 735 822 813 843 m 471 -17 q 263 41 353 -17 q 121 205 172 99 q 69 458 69 311 q 121 709 69 604 q 263 869 172 814 q 471 925 353 925 q 679 869 589 925 q 820 709 769 814 q 871 458 871 604 q 820 205 871 311 q 679 41 769 99 q 471 -17 589 -17 m 471 124 q 594 165 542 124 q 676 281 647 206 q 706 458 706 356 q 676 633 706 560 q 594 745 647 706 q 471 785 542 785 q 346 745 399 785 q 265 633 293 706 q 236 458 236 560 q 265 281 236 356 q 346 165 293 206 q 471 124 399 124 m 556 972 q 490 986 518 972 q 439 1017 461 1000 q 398 1048 417 1035 q 357 1061 379 1061 q 319 1042 335 1061 q 299 982 303 1024 l 193 990 q 242 1129 199 1083 q 353 1175 285 1175 q 419 1162 390 1175 q 469 1131 447 1149 q 511 1100 492 1114 q 551 1086 531 1086 q 590 1106 574 1086 q 610 1167 606 1125 l 715 1158 q 667 1019 711 1067 q 556 972 624 972 z "},"Ợ":{"ha":936,"x_min":69,"x_max":893,"o":"m 735 822 l 654 881 q 731 917 706 893 q 756 989 756 942 q 749 1035 756 1013 q 735 1075 743 1058 l 856 1125 q 882 1070 871 1103 q 893 1000 893 1038 q 853 886 893 929 q 735 822 813 843 m 471 -17 q 263 41 353 -17 q 121 205 172 99 q 69 458 69 311 q 121 709 69 604 q 263 869 172 814 q 471 925 353 925 q 679 869 589 925 q 820 709 769 814 q 871 458 871 604 q 820 205 871 311 q 679 41 769 99 q 471 -17 589 -17 m 471 124 q 594 165 542 124 q 676 281 647 206 q 706 458 706 356 q 676 633 706 560 q 594 745 647 706 q 471 785 542 785 q 346 745 399 785 q 265 633 293 706 q 236 458 236 560 q 265 281 236 356 q 346 165 293 206 q 471 124 399 124 z "},"Ṗ":{"ha":808,"x_min":115,"x_max":753,"o":"m 115 0 l 115 908 l 401 908 q 582 882 503 908 q 707 794 661 856 q 753 628 753 733 q 708 463 753 528 q 584 365 663 397 q 407 333 506 333 l 276 333 l 276 0 l 115 0 m 276 463 l 394 463 q 545 504 496 463 q 594 628 594 546 q 542 747 594 714 q 389 779 490 779 l 276 779 l 276 463 m 428 982 q 358 1008 386 982 q 329 1074 329 1035 q 358 1139 329 1114 q 428 1164 386 1164 q 499 1139 471 1164 q 526 1074 526 1114 q 499 1008 526 1035 q 428 982 471 982 z "},"Ŕ":{"ha":822,"x_min":115,"x_max":792,"o":"m 115 0 l 115 908 l 422 908 q 592 883 517 908 q 711 799 667 858 q 756 639 756 740 q 711 479 756 542 q 592 386 667 417 q 422 356 517 356 l 276 356 l 276 0 l 115 0 m 276 483 l 406 483 q 548 522 499 483 q 597 639 597 561 q 548 748 597 717 q 406 779 499 779 l 276 779 l 276 483 m 611 0 l 392 399 l 508 494 l 792 0 l 611 0 m 306 978 l 483 1178 l 668 1178 l 678 1161 l 442 978 l 306 978 z "},"Ř":{"ha":822,"x_min":115,"x_max":792,"o":"m 115 0 l 115 908 l 422 908 q 592 883 517 908 q 711 799 667 858 q 756 639 756 740 q 711 479 756 542 q 592 386 667 417 q 422 356 517 356 l 276 356 l 276 0 l 115 0 m 276 483 l 406 483 q 548 522 499 483 q 597 639 597 561 q 548 748 597 717 q 406 779 499 779 l 276 779 l 276 483 m 611 0 l 392 399 l 508 494 l 792 0 l 611 0 m 339 979 l 153 1178 l 281 1178 l 417 1079 l 422 1079 l 558 1178 l 686 1178 l 500 979 l 339 979 z "},"Ṙ":{"ha":822,"x_min":115,"x_max":792,"o":"m 115 0 l 115 908 l 422 908 q 592 883 517 908 q 711 799 667 858 q 756 639 756 740 q 711 479 756 542 q 592 386 667 417 q 422 356 517 356 l 276 356 l 276 0 l 115 0 m 276 483 l 406 483 q 548 522 499 483 q 597 639 597 561 q 548 748 597 717 q 406 779 499 779 l 276 779 l 276 483 m 611 0 l 392 399 l 508 494 l 792 0 l 611 0 m 419 982 q 349 1008 378 982 q 321 1074 321 1035 q 349 1139 321 1114 q 419 1164 378 1164 q 490 1139 463 1164 q 518 1074 518 1114 q 490 1008 518 1035 q 419 982 463 982 z "},"Ŗ":{"ha":822,"x_min":115,"x_max":792,"o":"m 115 0 l 115 908 l 422 908 q 592 883 517 908 q 711 799 667 858 q 756 639 756 740 q 711 479 756 542 q 592 386 667 417 q 422 356 517 356 l 276 356 l 276 0 l 115 0 m 276 483 l 406 483 q 548 522 499 483 q 597 639 597 561 q 548 748 597 717 q 406 779 499 779 l 276 779 l 276 483 m 611 0 l 392 399 l 508 494 l 792 0 l 611 0 m 313 -324 l 299 -254 q 415 -234 383 -249 q 446 -194 446 -219 q 423 -158 446 -171 q 351 -140 400 -144 l 385 -76 q 525 -112 486 -86 q 564 -187 564 -139 q 498 -285 564 -253 q 313 -324 432 -318 z "},"Ṛ":{"ha":822,"x_min":115,"x_max":792,"o":"m 115 0 l 115 908 l 422 908 q 592 883 517 908 q 711 799 667 858 q 756 639 756 740 q 711 479 756 542 q 592 386 667 417 q 422 356 517 356 l 276 356 l 276 0 l 115 0 m 276 483 l 406 483 q 548 522 499 483 q 597 639 597 561 q 548 748 597 717 q 406 779 499 779 l 276 779 l 276 483 m 611 0 l 392 399 l 508 494 l 792 0 l 611 0 z "},"Ṝ":{"ha":822,"x_min":115,"x_max":792,"o":"m 115 0 l 115 908 l 422 908 q 592 883 517 908 q 711 799 667 858 q 756 639 756 740 q 711 479 756 542 q 592 386 667 417 q 422 356 517 356 l 276 356 l 276 0 l 115 0 m 276 483 l 406 483 q 548 522 499 483 q 597 639 597 561 q 548 748 597 717 q 406 779 499 779 l 276 779 l 276 483 m 611 0 l 392 399 l 508 494 l 792 0 l 611 0 m 219 1011 l 219 1117 l 619 1117 l 619 1011 l 219 1011 z "},"Ṟ":{"ha":822,"x_min":115,"x_max":792,"o":"m 115 0 l 115 908 l 422 908 q 592 883 517 908 q 711 799 667 858 q 756 639 756 740 q 711 479 756 542 q 592 386 667 417 q 422 356 517 356 l 276 356 l 276 0 l 115 0 m 276 483 l 406 483 q 548 522 499 483 q 597 639 597 561 q 548 748 597 717 q 406 779 499 779 l 276 779 l 276 483 m 611 0 l 392 399 l 508 494 l 792 0 l 611 0 z "},"Ś":{"ha":757,"x_min":53,"x_max":707,"o":"m 381 -17 q 202 18 286 -17 q 53 117 118 53 l 140 222 q 253 149 189 175 q 383 124 318 124 q 501 156 461 124 q 542 240 542 188 q 524 301 542 278 q 474 340 506 324 q 401 374 443 357 l 276 428 q 190 478 232 447 q 120 556 147 510 q 93 669 93 603 q 133 799 93 742 q 241 891 172 857 q 399 925 310 925 q 553 895 481 925 q 678 814 626 865 l 593 708 q 500 765 549 744 q 399 785 451 785 q 295 756 335 785 q 256 678 256 728 q 276 620 256 643 q 330 581 296 597 q 400 550 364 565 l 524 499 q 619 443 578 475 q 684 365 661 411 q 707 253 707 319 q 668 118 707 179 q 556 20 629 57 q 381 -17 483 -17 m 285 978 l 463 1178 l 647 1178 l 657 1161 l 421 978 l 285 978 z "},"Ŝ":{"ha":757,"x_min":53,"x_max":707,"o":"m 381 -17 q 202 18 286 -17 q 53 117 118 53 l 140 222 q 253 149 189 175 q 383 124 318 124 q 501 156 461 124 q 542 240 542 188 q 524 301 542 278 q 474 340 506 324 q 401 374 443 357 l 276 428 q 190 478 232 447 q 120 556 147 510 q 93 669 93 603 q 133 799 93 742 q 241 891 172 857 q 399 925 310 925 q 553 895 481 925 q 678 814 626 865 l 593 708 q 500 765 549 744 q 399 785 451 785 q 295 756 335 785 q 256 678 256 728 q 276 620 256 643 q 330 581 296 597 q 400 550 364 565 l 524 499 q 619 443 578 475 q 684 365 661 411 q 707 253 707 319 q 668 118 707 179 q 556 20 629 57 q 381 -17 483 -17 m 132 978 l 318 1178 l 479 1178 l 665 978 l 538 978 l 401 1083 l 396 1083 l 260 978 l 132 978 z "},"Ṡ":{"ha":757,"x_min":53,"x_max":707,"o":"m 381 -17 q 202 18 286 -17 q 53 117 118 53 l 140 222 q 253 149 189 175 q 383 124 318 124 q 501 156 461 124 q 542 240 542 188 q 524 301 542 278 q 474 340 506 324 q 401 374 443 357 l 276 428 q 190 478 232 447 q 120 556 147 510 q 93 669 93 603 q 133 799 93 742 q 241 891 172 857 q 399 925 310 925 q 553 895 481 925 q 678 814 626 865 l 593 708 q 500 765 549 744 q 399 785 451 785 q 295 756 335 785 q 256 678 256 728 q 276 620 256 643 q 330 581 296 597 q 400 550 364 565 l 524 499 q 619 443 578 475 q 684 365 661 411 q 707 253 707 319 q 668 118 707 179 q 556 20 629 57 q 381 -17 483 -17 m 399 982 q 328 1008 357 982 q 300 1074 300 1035 q 328 1139 300 1114 q 399 1164 357 1164 q 469 1139 442 1164 q 497 1074 497 1114 q 469 1008 497 1035 q 399 982 442 982 z "},"Š":{"ha":757,"x_min":53,"x_max":707,"o":"m 381 -17 q 202 18 286 -17 q 53 117 118 53 l 140 222 q 253 149 189 175 q 383 124 318 124 q 501 156 461 124 q 542 240 542 188 q 524 301 542 278 q 474 340 506 324 q 401 374 443 357 l 276 428 q 190 478 232 447 q 120 556 147 510 q 93 669 93 603 q 133 799 93 742 q 241 891 172 857 q 399 925 310 925 q 553 895 481 925 q 678 814 626 865 l 593 708 q 500 765 549 744 q 399 785 451 785 q 295 756 335 785 q 256 678 256 728 q 276 620 256 643 q 330 581 296 597 q 400 550 364 565 l 524 499 q 619 443 578 475 q 684 365 661 411 q 707 253 707 319 q 668 118 707 179 q 556 20 629 57 q 381 -17 483 -17 m 318 979 l 132 1178 l 260 1178 l 396 1079 l 401 1079 l 538 1178 l 665 1178 l 479 979 l 318 979 z "},"Ş":{"ha":757,"x_min":53,"x_max":707,"o":"m 381 -17 q 202 18 286 -17 q 53 117 118 53 l 140 222 q 253 149 189 175 q 383 124 318 124 q 501 156 461 124 q 542 240 542 188 q 524 301 542 278 q 474 340 506 324 q 401 374 443 357 l 276 428 q 190 478 232 447 q 120 556 147 510 q 93 669 93 603 q 133 799 93 742 q 241 891 172 857 q 399 925 310 925 q 553 895 481 925 q 678 814 626 865 l 593 708 q 500 765 549 744 q 399 785 451 785 q 295 756 335 785 q 256 678 256 728 q 276 620 256 643 q 330 581 296 597 q 400 550 364 565 l 524 499 q 619 443 578 475 q 684 365 661 411 q 707 253 707 319 q 668 118 707 179 q 556 20 629 57 q 381 -17 483 -17 m 253 -324 l 239 -254 q 355 -233 324 -249 q 386 -189 386 -218 q 363 -149 386 -164 q 279 -126 340 -135 l 343 4 l 440 4 l 400 -86 q 477 -122 450 -99 q 504 -187 504 -144 q 438 -285 504 -253 q 253 -324 372 -318 z "},"Ș":{"ha":757,"x_min":53,"x_max":707,"o":"m 381 -17 q 202 18 286 -17 q 53 117 118 53 l 140 222 q 253 149 189 175 q 383 124 318 124 q 501 156 461 124 q 542 240 542 188 q 524 301 542 278 q 474 340 506 324 q 401 374 443 357 l 276 428 q 190 478 232 447 q 120 556 147 510 q 93 669 93 603 q 133 799 93 742 q 241 891 172 857 q 399 925 310 925 q 553 895 481 925 q 678 814 626 865 l 593 708 q 500 765 549 744 q 399 785 451 785 q 295 756 335 785 q 256 678 256 728 q 276 620 256 643 q 330 581 296 597 q 400 550 364 565 l 524 499 q 619 443 578 475 q 684 365 661 411 q 707 253 707 319 q 668 118 707 179 q 556 20 629 57 q 381 -17 483 -17 m 253 -324 l 239 -254 q 355 -234 324 -249 q 386 -194 386 -219 q 363 -158 386 -171 q 292 -140 340 -144 l 325 -76 q 465 -112 426 -86 q 504 -187 504 -139 q 438 -285 504 -253 q 253 -324 372 -318 z "},"Ṣ":{"ha":757,"x_min":53,"x_max":707,"o":"m 381 -17 q 202 18 286 -17 q 53 117 118 53 l 140 222 q 253 149 189 175 q 383 124 318 124 q 501 156 461 124 q 542 240 542 188 q 524 301 542 278 q 474 340 506 324 q 401 374 443 357 l 276 428 q 190 478 232 447 q 120 556 147 510 q 93 669 93 603 q 133 799 93 742 q 241 891 172 857 q 399 925 310 925 q 553 895 481 925 q 678 814 626 865 l 593 708 q 500 765 549 744 q 399 785 451 785 q 295 756 335 785 q 256 678 256 728 q 276 620 256 643 q 330 581 296 597 q 400 550 364 565 l 524 499 q 619 443 578 475 q 684 365 661 411 q 707 253 707 319 q 668 118 707 179 q 556 20 629 57 q 381 -17 483 -17 z "},"Ṧ":{"ha":757,"x_min":53,"x_max":707,"o":"m 381 -17 q 202 18 286 -17 q 53 117 118 53 l 140 222 q 253 149 189 175 q 383 124 318 124 q 501 156 461 124 q 542 240 542 188 q 524 301 542 278 q 474 340 506 324 q 401 374 443 357 l 276 428 q 190 478 232 447 q 120 556 147 510 q 93 669 93 603 q 133 799 93 742 q 241 891 172 857 q 399 925 310 925 q 553 895 481 925 q 678 814 626 865 l 593 708 q 500 765 549 744 q 399 785 451 785 q 295 756 335 785 q 256 678 256 728 q 276 620 256 643 q 330 581 296 597 q 400 550 364 565 l 524 499 q 619 443 578 475 q 684 365 661 411 q 707 253 707 319 q 668 118 707 179 q 556 20 629 57 q 381 -17 483 -17 m 326 979 l 149 1151 l 271 1151 l 396 1065 l 401 1065 l 526 1151 l 649 1151 l 471 979 l 326 979 m 399 1163 q 335 1185 361 1163 q 310 1246 310 1208 q 335 1307 310 1283 q 399 1331 361 1331 q 462 1307 436 1331 q 488 1246 488 1283 q 462 1185 488 1208 q 399 1163 436 1163 z "},"ẞ":{"ha":953,"x_min":119,"x_max":896,"o":"m 622 -17 q 474 13 539 -17 q 368 92 408 42 l 456 183 q 524 131 489 147 q 603 115 558 115 q 697 151 663 115 q 731 243 731 188 q 709 310 731 278 q 635 366 688 342 q 493 406 583 390 l 482 503 l 653 696 q 592 765 633 736 q 488 793 551 793 q 335 733 389 793 q 281 549 281 674 l 281 0 l 119 0 l 119 574 q 163 758 119 679 q 289 881 206 836 q 492 925 372 925 q 641 895 576 925 q 750 813 706 865 q 815 690 794 761 l 644 500 q 783 445 726 481 q 867 360 839 410 q 896 242 896 310 q 863 110 896 169 q 769 17 831 51 q 622 -17 708 -17 z "},"Ť":{"ha":758,"x_min":36,"x_max":722,"o":"m 299 0 l 299 772 l 36 772 l 36 908 l 722 908 l 722 772 l 460 772 l 460 0 l 299 0 m 297 979 l 111 1178 l 239 1178 l 375 1079 l 381 1079 l 517 1178 l 644 1178 l 458 979 l 297 979 z "},"Ṫ":{"ha":758,"x_min":36,"x_max":722,"o":"m 299 0 l 299 772 l 36 772 l 36 908 l 722 908 l 722 772 l 460 772 l 460 0 l 299 0 m 378 982 q 308 1008 336 982 q 279 1074 279 1035 q 308 1139 279 1114 q 378 1164 336 1164 q 449 1139 421 1164 q 476 1074 476 1114 q 449 1008 476 1035 q 378 982 421 982 z "},"Ţ":{"ha":758,"x_min":36,"x_max":722,"o":"m 299 0 l 299 772 l 36 772 l 36 908 l 722 908 l 722 772 l 460 772 l 460 0 l 299 0 m 242 -324 l 228 -254 q 344 -233 313 -249 q 375 -189 375 -218 q 352 -149 375 -164 q 268 -126 329 -135 l 332 4 l 429 4 l 389 -86 q 466 -122 439 -99 q 493 -187 493 -144 q 427 -285 493 -253 q 242 -324 361 -318 z "},"Ț":{"ha":758,"x_min":36,"x_max":722,"o":"m 299 0 l 299 772 l 36 772 l 36 908 l 722 908 l 722 772 l 460 772 l 460 0 l 299 0 m 247 -324 l 233 -254 q 349 -234 318 -249 q 381 -194 381 -219 q 358 -158 381 -171 q 286 -140 335 -144 l 319 -76 q 460 -112 421 -86 q 499 -187 499 -139 q 433 -285 499 -253 q 247 -324 367 -318 z "},"Ṭ":{"ha":758,"x_min":36,"x_max":722,"o":"m 299 0 l 299 772 l 36 772 l 36 908 l 722 908 l 722 772 l 460 772 l 460 0 l 299 0 z "},"Ṯ":{"ha":758,"x_min":36,"x_max":722,"o":"m 299 0 l 299 772 l 36 772 l 36 908 l 722 908 l 722 772 l 460 772 l 460 0 l 299 0 z "},"Ŧ":{"ha":758,"x_min":36,"x_max":722,"o":"m 131 392 l 131 508 l 258 514 l 628 514 l 628 392 l 131 392 m 299 0 l 299 772 l 36 772 l 36 908 l 722 908 l 722 772 l 460 772 l 460 0 l 299 0 z "},"Ⱦ":{"ha":758,"x_min":36,"x_max":800,"o":"m 106 -53 l 47 -17 l 742 978 l 800 942 l 106 -53 m 299 0 l 299 772 l 36 772 l 36 908 l 722 908 l 722 772 l 460 772 l 460 0 l 299 0 z "},"Ù":{"ha":910,"x_min":111,"x_max":799,"o":"m 456 -17 q 313 6 376 -17 q 205 76 250 28 q 135 203 160 125 q 111 390 111 281 l 111 908 l 272 908 l 272 378 q 295 226 272 282 q 360 147 318 171 q 456 124 401 124 q 553 147 511 124 q 620 226 596 171 q 644 378 644 282 l 644 908 l 799 908 l 799 390 q 775 203 799 281 q 706 76 751 125 q 598 6 661 28 q 456 -17 535 -17 m 432 978 l 196 1161 l 206 1178 l 390 1178 l 568 978 l 432 978 z "},"Ú":{"ha":910,"x_min":111,"x_max":799,"o":"m 456 -17 q 313 6 376 -17 q 205 76 250 28 q 135 203 160 125 q 111 390 111 281 l 111 908 l 272 908 l 272 378 q 295 226 272 282 q 360 147 318 171 q 456 124 401 124 q 553 147 511 124 q 620 226 596 171 q 644 378 644 282 l 644 908 l 799 908 l 799 390 q 775 203 799 281 q 706 76 751 125 q 598 6 661 28 q 456 -17 535 -17 m 340 978 l 518 1178 l 703 1178 l 713 1161 l 476 978 l 340 978 z "},"Û":{"ha":910,"x_min":111,"x_max":799,"o":"m 456 -17 q 313 6 376 -17 q 205 76 250 28 q 135 203 160 125 q 111 390 111 281 l 111 908 l 272 908 l 272 378 q 295 226 272 282 q 360 147 318 171 q 456 124 401 124 q 553 147 511 124 q 620 226 596 171 q 644 378 644 282 l 644 908 l 799 908 l 799 390 q 775 203 799 281 q 706 76 751 125 q 598 6 661 28 q 456 -17 535 -17 m 188 978 l 374 1178 l 535 1178 l 721 978 l 593 978 l 457 1083 l 451 1083 l 315 978 l 188 978 z "},"Ũ":{"ha":910,"x_min":111,"x_max":799,"o":"m 456 -17 q 313 6 376 -17 q 205 76 250 28 q 135 203 160 125 q 111 390 111 281 l 111 908 l 272 908 l 272 378 q 295 226 272 282 q 360 147 318 171 q 456 124 401 124 q 553 147 511 124 q 620 226 596 171 q 644 378 644 282 l 644 908 l 799 908 l 799 390 q 775 203 799 281 q 706 76 751 125 q 598 6 661 28 q 456 -17 535 -17 m 556 972 q 490 986 518 972 q 439 1017 461 1000 q 398 1048 417 1035 q 357 1061 379 1061 q 319 1042 335 1061 q 299 982 303 1024 l 193 990 q 242 1129 199 1083 q 353 1175 285 1175 q 419 1162 390 1175 q 469 1131 447 1149 q 511 1100 492 1114 q 551 1086 531 1086 q 590 1106 574 1086 q 610 1167 606 1125 l 715 1158 q 667 1019 711 1067 q 556 972 624 972 z "},"Ü":{"ha":910,"x_min":111,"x_max":799,"o":"m 456 -17 q 313 6 376 -17 q 205 76 250 28 q 135 203 160 125 q 111 390 111 281 l 111 908 l 272 908 l 272 378 q 295 226 272 282 q 360 147 318 171 q 456 124 401 124 q 553 147 511 124 q 620 226 596 171 q 644 378 644 282 l 644 908 l 799 908 l 799 390 q 775 203 799 281 q 706 76 751 125 q 598 6 661 28 q 456 -17 535 -17 m 306 983 q 247 1006 271 983 q 224 1065 224 1029 q 247 1125 224 1101 q 306 1149 271 1149 q 366 1125 343 1149 q 389 1065 389 1101 q 366 1006 389 1029 q 306 983 343 983 m 603 983 q 543 1006 567 983 q 519 1065 519 1029 q 543 1125 519 1101 q 603 1149 567 1149 q 662 1125 639 1149 q 685 1065 685 1101 q 662 1006 685 1029 q 603 983 639 983 z "},"Ū":{"ha":910,"x_min":111,"x_max":799,"o":"m 456 -17 q 313 6 376 -17 q 205 76 250 28 q 135 203 160 125 q 111 390 111 281 l 111 908 l 272 908 l 272 378 q 295 226 272 282 q 360 147 318 171 q 456 124 401 124 q 553 147 511 124 q 620 226 596 171 q 644 378 644 282 l 644 908 l 799 908 l 799 390 q 775 203 799 281 q 706 76 751 125 q 598 6 661 28 q 456 -17 535 -17 m 254 1011 l 254 1117 l 654 1117 l 654 1011 l 254 1011 z "},"Ŭ":{"ha":910,"x_min":111,"x_max":799,"o":"m 456 -17 q 313 6 376 -17 q 205 76 250 28 q 135 203 160 125 q 111 390 111 281 l 111 908 l 272 908 l 272 378 q 295 226 272 282 q 360 147 318 171 q 456 124 401 124 q 553 147 511 124 q 620 226 596 171 q 644 378 644 282 l 644 908 l 799 908 l 799 390 q 775 203 799 281 q 706 76 751 125 q 598 6 661 28 q 456 -17 535 -17 m 454 975 q 342 999 388 975 q 272 1064 297 1022 q 239 1160 246 1106 l 331 1175 q 370 1101 339 1129 q 454 1072 401 1072 q 538 1101 507 1072 q 578 1175 569 1129 l 669 1160 q 638 1064 664 1106 q 566 999 611 1022 q 454 975 521 975 z "},"Ů":{"ha":910,"x_min":111,"x_max":799,"o":"m 456 -17 q 313 6 376 -17 q 205 76 250 28 q 135 203 160 125 q 111 390 111 281 l 111 908 l 272 908 l 272 378 q 295 226 272 282 q 360 147 318 171 q 456 124 401 124 q 553 147 511 124 q 620 226 596 171 q 644 378 644 282 l 644 908 l 799 908 l 799 390 q 775 203 799 281 q 706 76 751 125 q 598 6 661 28 q 456 -17 535 -17 m 454 969 q 331 1005 376 969 q 285 1101 285 1040 q 331 1197 285 1161 q 454 1232 376 1232 q 578 1197 533 1232 q 624 1100 624 1161 q 578 1005 624 1040 q 454 969 533 969 m 454 1031 q 504 1049 485 1031 q 524 1100 524 1068 q 504 1151 524 1133 q 454 1169 485 1169 q 404 1151 424 1169 q 385 1100 385 1133 q 404 1049 385 1068 q 454 1031 424 1031 z "},"Ű":{"ha":910,"x_min":111,"x_max":799,"o":"m 456 -17 q 313 6 376 -17 q 205 76 250 28 q 135 203 160 125 q 111 390 111 281 l 111 908 l 272 908 l 272 378 q 295 226 272 282 q 360 147 318 171 q 456 124 401 124 q 553 147 511 124 q 620 226 596 171 q 644 378 644 282 l 644 908 l 799 908 l 799 390 q 775 203 799 281 q 706 76 751 125 q 598 6 661 28 q 456 -17 535 -17 m 246 978 l 381 1178 l 522 1178 l 532 1161 l 349 978 l 246 978 m 513 978 l 647 1178 l 789 1178 l 799 1161 l 615 978 l 513 978 z "},"Ǔ":{"ha":910,"x_min":111,"x_max":799,"o":"m 456 -17 q 313 6 376 -17 q 205 76 250 28 q 135 203 160 125 q 111 390 111 281 l 111 908 l 272 908 l 272 378 q 295 226 272 282 q 360 147 318 171 q 456 124 401 124 q 553 147 511 124 q 620 226 596 171 q 644 378 644 282 l 644 908 l 799 908 l 799 390 q 775 203 799 281 q 706 76 751 125 q 598 6 661 28 q 456 -17 535 -17 m 374 979 l 188 1178 l 315 1178 l 451 1079 l 457 1079 l 593 1178 l 721 1178 l 535 979 l 374 979 z "},"Ų":{"ha":910,"x_min":111,"x_max":799,"o":"m 476 -308 q 361 -275 408 -308 q 314 -176 314 -242 q 348 -72 314 -121 q 421 4 382 -24 l 456 -17 q 314 7 378 -17 q 205 79 250 31 q 135 208 160 128 q 111 399 111 288 l 111 908 l 272 908 l 272 386 q 295 228 272 286 q 360 144 318 169 q 456 119 401 119 q 553 144 511 119 q 620 228 596 169 q 644 386 644 286 l 644 908 l 799 908 l 799 399 q 770 192 799 275 q 685 60 742 108 q 544 -12 629 11 q 490 -40 513 -21 q 454 -84 467 -60 q 442 -132 442 -108 q 462 -178 442 -164 q 511 -193 482 -193 q 547 -186 531 -193 q 576 -171 564 -179 l 617 -261 q 553 -294 592 -281 q 476 -308 514 -308 z "},"Ǖ":{"ha":910,"x_min":111,"x_max":799,"o":"m 456 -17 q 313 6 376 -17 q 205 76 250 28 q 135 203 160 125 q 111 390 111 281 l 111 908 l 272 908 l 272 378 q 295 226 272 282 q 360 147 318 171 q 456 124 401 124 q 553 147 511 124 q 620 226 596 171 q 644 378 644 282 l 644 908 l 799 908 l 799 390 q 775 203 799 281 q 706 76 751 125 q 598 6 661 28 q 456 -17 535 -17 m 306 983 q 249 1006 271 983 q 226 1063 226 1028 q 249 1119 226 1097 q 306 1142 271 1142 q 363 1119 342 1142 q 385 1063 385 1097 q 363 1006 385 1028 q 306 983 342 983 m 603 983 q 546 1006 568 983 q 524 1063 524 1028 q 546 1119 524 1097 q 603 1142 568 1142 q 660 1119 638 1142 q 682 1063 682 1097 q 660 1006 682 1028 q 603 983 638 983 m 256 1203 l 256 1290 l 653 1290 l 653 1203 l 256 1203 z "},"Ǘ":{"ha":910,"x_min":111,"x_max":799,"o":"m 456 -17 q 313 6 376 -17 q 205 76 250 28 q 135 203 160 125 q 111 390 111 281 l 111 908 l 272 908 l 272 378 q 295 226 272 282 q 360 147 318 171 q 456 124 401 124 q 553 147 511 124 q 620 226 596 171 q 644 378 644 282 l 644 908 l 799 908 l 799 390 q 775 203 799 281 q 706 76 751 125 q 598 6 661 28 q 456 -17 535 -17 m 306 983 q 249 1006 271 983 q 226 1063 226 1028 q 249 1119 226 1097 q 306 1142 271 1142 q 363 1119 342 1142 q 385 1063 385 1097 q 363 1006 385 1028 q 306 983 342 983 m 603 983 q 546 1006 568 983 q 524 1063 524 1028 q 546 1119 524 1097 q 603 1142 568 1142 q 660 1119 638 1142 q 682 1063 682 1097 q 660 1006 682 1028 q 603 983 638 983 m 365 1174 l 482 1344 l 628 1344 l 638 1328 l 474 1174 l 365 1174 z "},"Ǚ":{"ha":910,"x_min":111,"x_max":799,"o":"m 456 -17 q 313 6 376 -17 q 205 76 250 28 q 135 203 160 125 q 111 390 111 281 l 111 908 l 272 908 l 272 378 q 295 226 272 282 q 360 147 318 171 q 456 124 401 124 q 553 147 511 124 q 620 226 596 171 q 644 378 644 282 l 644 908 l 799 908 l 799 390 q 775 203 799 281 q 706 76 751 125 q 598 6 661 28 q 456 -17 535 -17 m 306 983 q 249 1006 271 983 q 226 1063 226 1028 q 249 1119 226 1097 q 306 1142 271 1142 q 363 1119 342 1142 q 385 1063 385 1097 q 363 1006 385 1028 q 306 983 342 983 m 603 983 q 546 1006 568 983 q 524 1063 524 1028 q 546 1119 524 1097 q 603 1142 568 1142 q 660 1119 638 1142 q 682 1063 682 1097 q 660 1006 682 1028 q 603 983 638 983 m 382 1175 l 215 1331 l 333 1331 l 451 1258 l 457 1258 l 575 1331 l 693 1331 l 526 1175 l 382 1175 z "},"Ǜ":{"ha":910,"x_min":111,"x_max":799,"o":"m 456 -17 q 313 6 376 -17 q 205 76 250 28 q 135 203 160 125 q 111 390 111 281 l 111 908 l 272 908 l 272 378 q 295 226 272 282 q 360 147 318 171 q 456 124 401 124 q 553 147 511 124 q 620 226 596 171 q 644 378 644 282 l 644 908 l 799 908 l 799 390 q 775 203 799 281 q 706 76 751 125 q 598 6 661 28 q 456 -17 535 -17 m 306 983 q 249 1006 271 983 q 226 1063 226 1028 q 249 1119 226 1097 q 306 1142 271 1142 q 363 1119 342 1142 q 385 1063 385 1097 q 363 1006 385 1028 q 306 983 342 983 m 603 983 q 546 1006 568 983 q 524 1063 524 1028 q 546 1119 524 1097 q 603 1142 568 1142 q 660 1119 638 1142 q 682 1063 682 1097 q 660 1006 682 1028 q 603 983 638 983 m 435 1174 l 271 1328 l 281 1344 l 426 1344 l 543 1174 l 435 1174 z "},"Ṳ":{"ha":910,"x_min":111,"x_max":799,"o":"m 456 -17 q 313 6 376 -17 q 205 76 250 28 q 135 203 160 125 q 111 390 111 281 l 111 908 l 272 908 l 272 378 q 295 226 272 282 q 360 147 318 171 q 456 124 401 124 q 553 147 511 124 q 620 226 596 171 q 644 378 644 282 l 644 908 l 799 908 l 799 390 q 775 203 799 281 q 706 76 751 125 q 598 6 661 28 q 456 -17 535 -17 z "},"Ụ":{"ha":910,"x_min":111,"x_max":799,"o":"m 456 -17 q 313 6 376 -17 q 205 76 250 28 q 135 203 160 125 q 111 390 111 281 l 111 908 l 272 908 l 272 378 q 295 226 272 282 q 360 147 318 171 q 456 124 401 124 q 553 147 511 124 q 620 226 596 171 q 644 378 644 282 l 644 908 l 799 908 l 799 390 q 775 203 799 281 q 706 76 751 125 q 598 6 661 28 q 456 -17 535 -17 z "},"Ʉ":{"ha":965,"x_min":25,"x_max":939,"o":"m 25 447 l 25 563 l 142 569 l 939 569 l 939 447 l 25 447 m 483 -17 q 341 6 404 -17 q 233 76 278 28 q 163 203 188 125 q 139 390 139 281 l 139 908 l 300 908 l 300 378 q 323 226 300 282 q 388 147 346 171 q 483 124 429 124 q 581 147 539 124 q 648 226 624 171 q 672 378 672 282 l 672 908 l 826 908 l 826 390 q 803 203 826 281 q 734 76 779 125 q 626 6 689 28 q 483 -17 563 -17 z "},"Ủ":{"ha":910,"x_min":111,"x_max":799,"o":"m 456 -17 q 313 6 376 -17 q 205 76 250 28 q 135 203 160 125 q 111 390 111 281 l 111 908 l 272 908 l 272 378 q 295 226 272 282 q 360 147 318 171 q 456 124 401 124 q 553 147 511 124 q 620 226 596 171 q 644 378 644 282 l 644 908 l 799 908 l 799 390 q 775 203 799 281 q 706 76 751 125 q 598 6 661 28 q 456 -17 535 -17 m 401 969 l 388 1036 q 438 1055 418 1043 q 457 1089 457 1067 q 431 1129 457 1114 q 344 1147 404 1144 l 363 1233 q 483 1216 436 1232 q 553 1172 531 1200 q 576 1107 576 1144 q 552 1034 576 1063 q 488 990 528 1006 q 401 969 449 975 z "},"Ư":{"ha":932,"x_min":111,"x_max":972,"o":"m 799 846 l 715 908 q 776 922 749 911 q 819 954 803 932 q 835 1017 835 976 q 828 1063 835 1040 q 814 1103 822 1086 l 936 1153 q 961 1098 950 1131 q 972 1028 972 1065 q 951 936 972 972 q 890 878 929 900 q 799 846 850 856 m 456 -17 q 314 6 378 -17 q 205 76 250 28 q 135 203 160 125 q 111 390 111 281 l 111 908 l 272 908 l 272 378 q 295 226 272 282 q 360 147 318 171 q 456 124 401 124 q 553 147 511 124 q 620 226 596 171 q 644 378 644 282 l 644 908 l 799 908 l 799 390 q 775 203 799 281 q 707 76 751 125 q 599 6 663 28 q 456 -17 535 -17 z "},"Ứ":{"ha":932,"x_min":111,"x_max":972,"o":"m 799 846 l 715 908 q 776 922 749 911 q 819 954 803 932 q 835 1017 835 976 q 828 1063 835 1040 q 814 1103 822 1086 l 936 1153 q 961 1098 950 1131 q 972 1028 972 1065 q 951 936 972 972 q 890 878 929 900 q 799 846 850 856 m 456 -17 q 314 6 378 -17 q 205 76 250 28 q 135 203 160 125 q 111 390 111 281 l 111 908 l 272 908 l 272 378 q 295 226 272 282 q 360 147 318 171 q 456 124 401 124 q 553 147 511 124 q 620 226 596 171 q 644 378 644 282 l 644 908 l 799 908 l 799 390 q 775 203 799 281 q 707 76 751 125 q 599 6 663 28 q 456 -17 535 -17 m 342 978 l 519 1178 l 704 1178 l 714 1161 l 478 978 l 342 978 z "},"Ừ":{"ha":932,"x_min":111,"x_max":972,"o":"m 799 846 l 715 908 q 776 922 749 911 q 819 954 803 932 q 835 1017 835 976 q 828 1063 835 1040 q 814 1103 822 1086 l 936 1153 q 961 1098 950 1131 q 972 1028 972 1065 q 951 936 972 972 q 890 878 929 900 q 799 846 850 856 m 456 -17 q 314 6 378 -17 q 205 76 250 28 q 135 203 160 125 q 111 390 111 281 l 111 908 l 272 908 l 272 378 q 295 226 272 282 q 360 147 318 171 q 456 124 401 124 q 553 147 511 124 q 620 226 596 171 q 644 378 644 282 l 644 908 l 799 908 l 799 390 q 775 203 799 281 q 707 76 751 125 q 599 6 663 28 q 456 -17 535 -17 m 433 978 l 197 1161 l 207 1178 l 392 1178 l 569 978 l 433 978 z "},"Ử":{"ha":932,"x_min":111,"x_max":972,"o":"m 799 846 l 715 908 q 776 922 749 911 q 819 954 803 932 q 835 1017 835 976 q 828 1063 835 1040 q 814 1103 822 1086 l 936 1153 q 961 1098 950 1131 q 972 1028 972 1065 q 951 936 972 972 q 890 878 929 900 q 799 846 850 856 m 456 -17 q 314 6 378 -17 q 205 76 250 28 q 135 203 160 125 q 111 390 111 281 l 111 908 l 272 908 l 272 378 q 295 226 272 282 q 360 147 318 171 q 456 124 401 124 q 553 147 511 124 q 620 226 596 171 q 644 378 644 282 l 644 908 l 799 908 l 799 390 q 775 203 799 281 q 707 76 751 125 q 599 6 663 28 q 456 -17 535 -17 m 403 969 l 389 1036 q 439 1055 419 1043 q 458 1089 458 1067 q 432 1129 458 1114 q 346 1147 406 1144 l 364 1233 q 485 1216 438 1232 q 555 1172 532 1200 q 578 1107 578 1144 q 553 1034 578 1063 q 490 990 529 1006 q 403 969 450 975 z "},"Ữ":{"ha":932,"x_min":111,"x_max":972,"o":"m 799 846 l 715 908 q 776 922 749 911 q 819 954 803 932 q 835 1017 835 976 q 828 1063 835 1040 q 814 1103 822 1086 l 936 1153 q 961 1098 950 1131 q 972 1028 972 1065 q 951 936 972 972 q 890 878 929 900 q 799 846 850 856 m 456 -17 q 314 6 378 -17 q 205 76 250 28 q 135 203 160 125 q 111 390 111 281 l 111 908 l 272 908 l 272 378 q 295 226 272 282 q 360 147 318 171 q 456 124 401 124 q 553 147 511 124 q 620 226 596 171 q 644 378 644 282 l 644 908 l 799 908 l 799 390 q 775 203 799 281 q 707 76 751 125 q 599 6 663 28 q 456 -17 535 -17 m 557 972 q 491 986 519 972 q 440 1017 463 1000 q 399 1048 418 1035 q 358 1061 381 1061 q 320 1042 336 1061 q 300 982 304 1024 l 194 990 q 243 1129 200 1083 q 354 1175 286 1175 q 420 1162 392 1175 q 471 1131 449 1149 q 513 1100 493 1114 q 553 1086 532 1086 q 591 1106 575 1086 q 611 1167 607 1125 l 717 1158 q 669 1019 713 1067 q 557 972 625 972 z "},"Ự":{"ha":932,"x_min":111,"x_max":972,"o":"m 799 846 l 715 908 q 776 922 749 911 q 819 954 803 932 q 835 1017 835 976 q 828 1063 835 1040 q 814 1103 822 1086 l 936 1153 q 961 1098 950 1131 q 972 1028 972 1065 q 951 936 972 972 q 890 878 929 900 q 799 846 850 856 m 456 -17 q 314 6 378 -17 q 205 76 250 28 q 135 203 160 125 q 111 390 111 281 l 111 908 l 272 908 l 272 378 q 295 226 272 282 q 360 147 318 171 q 456 124 401 124 q 553 147 511 124 q 620 226 596 171 q 644 378 644 282 l 644 908 l 799 908 l 799 390 q 775 203 799 281 q 707 76 751 125 q 599 6 663 28 q 456 -17 535 -17 z "},"Ṿ":{"ha":744,"x_min":-6,"x_max":750,"o":"m 272 0 l -6 908 l 165 908 l 288 451 q 314 352 301 400 q 340 256 326 304 q 368 157 353 208 l 374 157 q 400 256 388 208 q 426 352 413 304 q 453 451 439 400 l 585 908 l 750 908 l 463 0 l 272 0 z "},"Ẁ":{"ha":1111,"x_min":25,"x_max":1086,"o":"m 200 0 l 25 908 l 197 908 l 275 450 q 296 305 286 378 q 314 153 306 232 l 319 153 q 346 305 332 232 q 375 450 360 378 l 481 908 l 639 908 l 742 450 q 772 306 757 379 q 800 153 788 232 l 806 153 q 824 305 814 232 q 844 450 835 378 l 922 908 l 1086 908 l 911 0 l 697 0 l 594 478 q 576 581 585 528 q 558 697 567 635 l 553 697 q 539 581 547 635 q 519 478 531 528 l 414 0 l 200 0 m 533 978 l 297 1161 l 307 1178 l 492 1178 l 669 978 l 533 978 z "},"Ẃ":{"ha":1111,"x_min":25,"x_max":1086,"o":"m 200 0 l 25 908 l 197 908 l 275 450 q 296 305 286 378 q 314 153 306 232 l 319 153 q 346 305 332 232 q 375 450 360 378 l 481 908 l 639 908 l 742 450 q 772 306 757 379 q 800 153 788 232 l 806 153 q 824 305 814 232 q 844 450 835 378 l 922 908 l 1086 908 l 911 0 l 697 0 l 594 478 q 576 581 585 528 q 558 697 567 635 l 553 697 q 539 581 547 635 q 519 478 531 528 l 414 0 l 200 0 m 442 978 l 619 1178 l 804 1178 l 814 1161 l 578 978 l 442 978 z "},"Ŵ":{"ha":1111,"x_min":25,"x_max":1086,"o":"m 200 0 l 25 908 l 197 908 l 275 450 q 296 305 286 378 q 314 153 306 232 l 319 153 q 346 305 332 232 q 375 450 360 378 l 481 908 l 639 908 l 742 450 q 772 306 757 379 q 800 153 788 232 l 806 153 q 824 305 814 232 q 844 450 835 378 l 922 908 l 1086 908 l 911 0 l 697 0 l 594 478 q 576 581 585 528 q 558 697 567 635 l 553 697 q 539 581 547 635 q 519 478 531 528 l 414 0 l 200 0 m 289 978 l 475 1178 l 636 1178 l 822 978 l 694 978 l 558 1083 l 553 1083 l 417 978 l 289 978 z "},"Ẅ":{"ha":1111,"x_min":25,"x_max":1086,"o":"m 200 0 l 25 908 l 197 908 l 275 450 q 296 305 286 378 q 314 153 306 232 l 319 153 q 346 305 332 232 q 375 450 360 378 l 481 908 l 639 908 l 742 450 q 772 306 757 379 q 800 153 788 232 l 806 153 q 824 305 814 232 q 844 450 835 378 l 922 908 l 1086 908 l 911 0 l 697 0 l 594 478 q 576 581 585 528 q 558 697 567 635 l 553 697 q 539 581 547 635 q 519 478 531 528 l 414 0 l 200 0 m 407 983 q 349 1006 372 983 q 325 1065 325 1029 q 349 1125 325 1101 q 407 1149 372 1149 q 467 1125 444 1149 q 490 1065 490 1101 q 467 1006 490 1029 q 407 983 444 983 m 704 983 q 644 1006 668 983 q 621 1065 621 1029 q 644 1125 621 1101 q 704 1149 668 1149 q 763 1125 740 1149 q 786 1065 786 1101 q 763 1006 786 1029 q 704 983 740 983 z "},"Ỳ":{"ha":696,"x_min":-6,"x_max":701,"o":"m 267 0 l 267 338 l -6 908 l 167 908 l 265 676 q 304 577 285 625 q 346 476 324 529 l 351 476 q 394 577 374 529 q 435 676 415 625 l 533 908 l 701 908 l 428 338 l 428 0 l 267 0 m 325 978 l 89 1161 l 99 1178 l 283 1178 l 461 978 l 325 978 z "},"Ý":{"ha":696,"x_min":-6,"x_max":701,"o":"m 267 0 l 267 338 l -6 908 l 167 908 l 265 676 q 304 577 285 625 q 346 476 324 529 l 351 476 q 394 577 374 529 q 435 676 415 625 l 533 908 l 701 908 l 428 338 l 428 0 l 267 0 m 233 978 l 411 1178 l 596 1178 l 606 1161 l 369 978 l 233 978 z "},"Ŷ":{"ha":696,"x_min":-6,"x_max":701,"o":"m 267 0 l 267 338 l -6 908 l 167 908 l 265 676 q 304 577 285 625 q 346 476 324 529 l 351 476 q 394 577 374 529 q 435 676 415 625 l 533 908 l 701 908 l 428 338 l 428 0 l 267 0 m 81 978 l 267 1178 l 428 1178 l 614 978 l 486 978 l 350 1083 l 344 1083 l 208 978 l 81 978 z "},"Ỹ":{"ha":696,"x_min":-6,"x_max":701,"o":"m 267 0 l 267 338 l -6 908 l 167 908 l 265 676 q 304 577 285 625 q 346 476 324 529 l 351 476 q 394 577 374 529 q 435 676 415 625 l 533 908 l 701 908 l 428 338 l 428 0 l 267 0 m 449 972 q 383 986 411 972 q 332 1017 354 1000 q 291 1048 310 1035 q 250 1061 272 1061 q 212 1042 228 1061 q 192 982 196 1024 l 86 990 q 135 1129 92 1083 q 246 1175 178 1175 q 312 1162 283 1175 q 363 1131 340 1149 q 404 1100 385 1114 q 444 1086 424 1086 q 483 1106 467 1086 q 503 1167 499 1125 l 608 1158 q 560 1019 604 1067 q 449 972 517 972 z "},"Ÿ":{"ha":696,"x_min":-6,"x_max":701,"o":"m 267 0 l 267 338 l -6 908 l 167 908 l 265 676 q 304 577 285 625 q 346 476 324 529 l 351 476 q 394 577 374 529 q 435 676 415 625 l 533 908 l 701 908 l 428 338 l 428 0 l 267 0 m 199 983 q 140 1006 164 983 q 117 1065 117 1029 q 140 1125 117 1101 q 199 1149 164 1149 q 259 1125 236 1149 q 282 1065 282 1101 q 259 1006 282 1029 q 199 983 236 983 m 496 983 q 436 1006 460 983 q 413 1065 413 1029 q 436 1125 413 1101 q 496 1149 460 1149 q 555 1125 532 1149 q 578 1065 578 1101 q 555 1006 578 1029 q 496 983 532 983 z "},"Ẏ":{"ha":696,"x_min":-6,"x_max":701,"o":"m 267 0 l 267 338 l -6 908 l 167 908 l 265 676 q 304 577 285 625 q 346 476 324 529 l 351 476 q 394 577 374 529 q 435 676 415 625 l 533 908 l 701 908 l 428 338 l 428 0 l 267 0 m 347 982 q 277 1008 306 982 q 249 1074 249 1035 q 277 1139 249 1114 q 347 1164 306 1164 q 418 1139 390 1164 q 446 1074 446 1114 q 418 1008 446 1035 q 347 982 390 982 z "},"Ỵ":{"ha":696,"x_min":-6,"x_max":701,"o":"m 267 0 l 267 338 l -6 908 l 167 908 l 265 676 q 304 577 285 625 q 346 476 324 529 l 351 476 q 394 577 374 529 q 435 676 415 625 l 533 908 l 701 908 l 428 338 l 428 0 l 267 0 z "},"Ỷ":{"ha":696,"x_min":-6,"x_max":701,"o":"m 267 0 l 267 338 l -6 908 l 167 908 l 265 676 q 304 577 285 625 q 346 476 324 529 l 351 476 q 394 577 374 529 q 435 676 415 625 l 533 908 l 701 908 l 428 338 l 428 0 l 267 0 m 294 969 l 281 1036 q 331 1055 311 1043 q 350 1089 350 1067 q 324 1129 350 1114 q 238 1147 297 1144 l 256 1233 q 376 1216 329 1232 q 447 1172 424 1200 q 469 1107 469 1144 q 445 1034 469 1063 q 381 990 421 1006 q 294 969 342 975 z "},"Ź":{"ha":750,"x_min":56,"x_max":697,"o":"m 56 0 l 56 97 l 494 772 l 96 772 l 96 908 l 694 908 l 694 811 l 254 136 l 697 136 l 697 0 l 56 0 m 278 978 l 456 1178 l 640 1178 l 650 1161 l 414 978 l 278 978 z "},"Ẑ":{"ha":750,"x_min":56,"x_max":697,"o":"m 56 0 l 56 97 l 494 772 l 96 772 l 96 908 l 694 908 l 694 811 l 254 136 l 697 136 l 697 0 l 56 0 m 125 978 l 311 1178 l 472 1178 l 658 978 l 531 978 l 394 1083 l 389 1083 l 253 978 l 125 978 z "},"Ż":{"ha":750,"x_min":56,"x_max":697,"o":"m 56 0 l 56 97 l 494 772 l 96 772 l 96 908 l 694 908 l 694 811 l 254 136 l 697 136 l 697 0 l 56 0 m 392 982 q 322 1008 350 982 q 293 1074 293 1035 q 322 1139 293 1114 q 392 1164 350 1164 q 463 1139 435 1164 q 490 1074 490 1114 q 463 1008 490 1035 q 392 982 435 982 z "},"Ž":{"ha":750,"x_min":56,"x_max":697,"o":"m 56 0 l 56 97 l 494 772 l 96 772 l 96 908 l 694 908 l 694 811 l 254 136 l 697 136 l 697 0 l 56 0 m 311 979 l 125 1178 l 253 1178 l 389 1079 l 394 1079 l 531 1178 l 658 1178 l 472 979 l 311 979 z "},"Ẓ":{"ha":750,"x_min":56,"x_max":697,"o":"m 56 0 l 56 97 l 494 772 l 96 772 l 96 908 l 694 908 l 694 811 l 254 136 l 697 136 l 697 0 l 56 0 z "},"Ẕ":{"ha":750,"x_min":56,"x_max":697,"o":"m 56 0 l 56 97 l 494 772 l 96 772 l 96 908 l 694 908 l 694 811 l 254 136 l 697 136 l 697 0 l 56 0 z "},"Ð":{"ha":904,"x_min":42,"x_max":836,"o":"m 42 414 l 42 528 l 153 536 l 503 536 l 503 414 l 42 414 m 151 0 l 151 908 l 394 908 q 632 858 533 908 q 783 708 731 808 q 836 458 836 608 q 784 206 836 308 q 635 52 732 104 q 403 0 538 0 l 151 0 m 313 131 l 383 131 q 540 166 475 131 q 638 274 604 201 q 671 458 671 346 q 638 640 671 569 q 540 744 604 711 q 383 778 475 778 l 313 778 l 313 131 z "},"Þ":{"ha":833,"x_min":115,"x_max":767,"o":"m 115 0 l 115 908 l 276 908 l 276 764 l 421 764 q 599 738 521 764 q 722 650 676 711 q 767 483 767 589 q 722 317 767 382 q 598 221 676 253 q 421 189 519 189 l 276 189 l 276 0 l 115 0 m 276 318 l 408 318 q 559 359 510 318 q 608 483 608 400 q 558 601 608 568 q 408 635 507 635 l 276 635 l 276 318 z "},"Ƿ":{"ha":808,"x_min":115,"x_max":753,"o":"m 115 -225 l 115 908 l 272 908 l 272 803 q 343 867 306 839 q 423 910 381 894 q 511 925 465 925 q 639 894 585 925 q 723 798 693 864 q 753 626 753 732 q 707 408 753 517 q 557 195 661 299 q 276 -3 453 92 l 276 -225 l 115 -225 m 276 139 q 468 299 399 219 q 566 456 538 378 q 594 611 594 533 q 578 713 594 675 q 532 768 561 751 q 464 785 503 785 q 399 769 432 785 q 334 726 365 754 q 276 661 303 697 l 276 139 z "},"Ȝ":{"ha":703,"x_min":28,"x_max":649,"o":"m 147 -242 l 86 -125 q 323 -3 235 -62 q 449 110 411 56 q 488 217 488 165 q 453 310 488 278 q 364 343 418 343 q 292 335 326 343 q 206 299 257 326 l 150 394 q 297 483 242 444 q 383 553 353 522 q 424 615 413 585 q 435 675 435 644 q 404 756 435 726 q 325 785 374 785 q 215 759 264 785 q 106 678 167 733 l 28 772 q 133 860 82 826 q 237 909 183 893 q 356 925 290 925 q 482 899 428 925 q 565 828 536 874 q 594 722 594 782 q 553 576 594 639 q 422 453 513 513 q 585 398 522 453 q 649 240 649 343 q 595 53 649 136 q 431 -101 542 -31 q 147 -242 321 -172 z "},"Ʒ":{"ha":768,"x_min":44,"x_max":718,"o":"m 392 -17 q 200 14 283 -17 q 44 119 117 44 l 131 219 q 247 145 186 167 q 374 124 308 124 q 470 141 428 124 q 536 192 513 158 q 560 276 560 226 q 511 387 560 350 q 392 424 463 424 q 331 420 353 424 q 281 406 310 417 l 225 496 l 492 772 l 100 772 l 100 908 l 697 908 l 697 806 l 442 532 q 591 498 529 529 q 685 412 653 467 q 718 281 718 357 q 673 118 718 185 q 553 17 628 51 q 392 -17 479 -17 z "},"Ǯ":{"ha":768,"x_min":44,"x_max":718,"o":"m 392 -17 q 200 14 283 -17 q 44 119 117 44 l 131 219 q 247 145 186 167 q 374 124 308 124 q 470 141 428 124 q 536 192 513 158 q 560 276 560 226 q 511 387 560 350 q 392 424 463 424 q 331 420 353 424 q 281 406 310 417 l 225 496 l 492 772 l 100 772 l 100 908 l 697 908 l 697 806 l 442 532 q 591 498 529 529 q 685 412 653 467 q 718 281 718 357 q 673 118 718 185 q 553 17 628 51 q 392 -17 479 -17 m 314 979 l 128 1178 l 256 1178 l 392 1079 l 397 1079 l 533 1178 l 661 1178 l 475 979 l 314 979 z "},"Ə":{"ha":913,"x_min":75,"x_max":844,"o":"m 460 -17 q 179 100 283 -17 q 75 444 75 217 q 76 473 75 458 q 81 503 78 488 l 724 503 l 724 383 l 236 383 q 267 233 238 293 q 347 144 296 174 q 461 115 397 115 q 625 198 565 115 q 685 456 685 281 q 622 709 685 625 q 444 793 560 793 q 310 767 371 793 q 201 697 250 740 l 119 794 q 265 890 182 854 q 453 925 347 925 q 739 805 633 925 q 844 456 844 685 q 797 194 844 300 q 662 36 749 89 q 460 -17 575 -17 z "},"Ꝺ":{"ha":936,"x_min":36,"x_max":869,"o":"m 472 -17 q 269 36 357 -17 q 131 185 181 89 q 81 411 81 282 q 105 567 81 496 q 170 690 129 638 q 261 772 211 743 l 261 778 l 36 778 l 36 908 l 383 908 q 651 858 543 908 q 814 703 758 807 q 869 443 869 600 q 819 198 869 301 q 678 39 768 94 q 472 -17 589 -17 m 476 124 q 597 165 546 124 q 675 281 647 206 q 703 458 703 357 q 673 628 703 557 q 590 736 643 699 q 467 774 536 774 q 377 748 418 774 q 307 676 336 722 q 263 568 278 629 q 247 435 247 507 q 276 269 247 339 q 356 161 304 199 q 476 124 407 124 z "},"Ꝼ":{"ha":808,"x_min":115,"x_max":758,"o":"m 115 -225 l 115 908 l 272 908 l 272 806 q 379 892 319 860 q 507 925 439 925 q 690 848 622 925 q 758 593 758 771 l 758 510 l 597 490 l 597 574 q 581 699 597 653 q 533 765 564 746 q 458 785 503 785 q 397 769 429 785 q 333 727 364 754 q 276 664 301 700 l 276 136 l 638 136 l 638 0 l 276 0 l 276 -225 l 115 -225 z "},"Ᵹ":{"ha":850,"x_min":44,"x_max":822,"o":"m 428 -242 q 244 -216 326 -242 q 115 -136 163 -190 q 67 6 67 -82 q 124 155 67 90 q 279 263 181 219 l 279 268 q 193 330 232 293 q 131 417 154 367 q 107 535 107 468 q 152 681 107 619 q 265 772 197 742 l 265 778 l 44 778 l 44 908 l 789 908 l 789 772 l 549 772 q 395 744 457 772 q 302 668 333 715 q 271 563 271 621 q 297 467 271 508 q 378 393 322 426 q 525 326 435 360 q 696 253 631 289 q 792 169 761 218 q 822 40 822 119 q 776 -104 822 -40 q 641 -205 729 -168 q 428 -242 553 -242 m 442 -111 q 562 -92 514 -111 q 634 -40 610 -72 q 658 29 658 -8 q 635 97 658 71 q 572 140 611 122 q 481 176 532 158 q 372 217 429 193 q 250 129 289 174 q 211 26 211 85 q 274 -76 211 -42 q 442 -111 336 -111 z "},"Ꝿ":{"ha":850,"x_min":28,"x_max":806,"o":"m 422 925 q 606 899 524 925 q 735 819 688 874 q 783 678 783 765 q 726 528 783 593 q 571 421 669 464 l 571 415 q 657 353 618 390 q 719 266 696 317 q 743 149 743 215 q 698 3 743 64 q 585 -89 653 -58 l 585 -94 l 806 -94 l 806 -225 l 61 -225 l 61 -89 l 301 -89 q 455 -60 393 -89 q 548 15 517 -32 q 579 121 579 63 q 553 216 579 175 q 472 290 528 257 q 325 357 415 324 q 154 430 219 394 q 58 515 89 465 q 28 643 28 564 q 74 788 28 724 q 209 888 121 851 q 422 925 297 925 m 408 794 q 288 775 336 794 q 216 724 240 756 q 192 654 192 692 q 215 587 192 613 q 278 543 239 561 q 369 508 318 525 q 478 467 421 490 q 600 554 561 510 q 639 657 639 599 q 576 760 639 725 q 408 794 514 794 z "},"Ꞁ":{"ha":697,"x_min":43,"x_max":582,"o":"m 582 908 l 582 0 l 421 0 l 421 772 l 43 772 l 43 908 l 582 908 z "},"Ꞃ":{"ha":822,"x_min":115,"x_max":781,"o":"m 115 -225 l 115 908 l 272 908 l 272 803 q 385 896 325 867 q 517 925 446 925 q 689 866 625 925 q 753 692 753 807 q 715 526 753 603 q 599 376 676 449 q 406 229 522 304 q 506 140 440 167 q 658 114 572 114 q 710 118 688 114 q 751 128 733 122 l 781 10 q 722 -8 758 0 q 640 -17 686 -17 q 386 51 489 -17 q 244 264 283 119 q 449 406 372 338 q 559 538 525 475 q 593 660 593 600 q 561 753 593 722 q 472 785 529 785 q 372 756 425 785 q 276 661 319 728 l 276 -225 l 115 -225 z "},"Ꝛ":{"ha":671,"x_min":53,"x_max":628,"o":"m 469 -17 q 210 51 314 -17 q 67 264 106 119 q 291 406 210 338 q 406 537 372 474 q 440 660 440 600 q 406 753 440 722 q 311 785 372 785 q 216 764 260 785 q 133 706 172 743 l 53 793 q 185 892 117 858 q 339 925 254 925 q 474 899 415 925 q 567 820 533 872 q 600 692 600 768 q 564 522 600 601 q 449 367 528 442 q 240 221 369 293 q 334 140 275 167 q 479 114 393 114 q 546 118 515 114 q 599 131 576 122 l 628 14 q 562 -8 603 0 q 469 -17 521 -17 z "},"Ꞅ":{"ha":808,"x_min":115,"x_max":758,"o":"m 115 -225 l 115 908 l 272 908 l 272 806 q 379 892 319 860 q 507 925 439 925 q 690 848 622 925 q 758 593 758 771 l 758 510 l 597 490 l 597 574 q 581 699 597 653 q 533 765 564 746 q 458 785 503 785 q 397 769 429 785 q 333 727 364 754 q 276 664 301 700 l 276 -225 l 115 -225 z "},"Ꞇ":{"ha":758,"x_min":36,"x_max":722,"o":"m 439 -17 q 249 29 332 -17 q 117 160 165 75 q 69 363 69 244 q 90 501 69 438 q 146 618 111 565 q 222 710 181 671 q 307 772 264 749 l 307 778 l 36 778 l 36 908 l 722 908 l 722 772 l 571 772 q 460 750 511 772 q 367 689 408 728 q 295 599 325 650 q 249 493 265 549 q 233 382 233 438 q 293 192 233 261 q 453 124 353 124 q 554 144 510 124 q 635 203 599 165 l 717 108 q 593 15 661 46 q 439 -17 525 -17 z "},"Ɣ":{"ha":744,"x_min":-6,"x_max":750,"o":"m 371 -301 q 222 -253 272 -301 q 172 -128 172 -204 q 184 -54 172 -90 q 219 27 196 -18 q 275 133 242 72 l 258 58 l -6 908 l 165 908 l 288 467 q 315 367 303 415 q 340 272 328 319 q 368 168 353 224 l 374 168 q 401 272 389 224 q 426 367 414 319 q 453 467 438 415 l 585 908 l 750 908 l 475 58 l 463 133 q 521 27 497 72 q 556 -54 544 -18 q 567 -128 567 -90 q 518 -253 567 -204 q 371 -301 469 -301 m 371 -197 q 413 -179 399 -197 q 428 -132 428 -161 q 414 -62 428 -99 q 372 21 400 -26 l 367 21 q 328 -62 342 -26 q 314 -132 314 -99 q 328 -179 314 -161 q 371 -197 343 -197 z "},"Ɩ":{"ha":392,"x_min":115,"x_max":365,"o":"m 276 -14 q 183 9 218 -14 q 131 76 147 32 q 115 181 115 119 l 115 908 l 276 908 l 276 181 q 289 137 276 149 q 317 125 301 125 q 330 126 324 125 q 344 128 336 126 l 365 1 q 328 -10 351 -6 q 276 -14 306 -14 z "},"Ʊ":{"ha":965,"x_min":63,"x_max":903,"o":"m 903 908 l 903 778 l 736 778 l 736 772 q 805 686 771 738 q 861 567 839 635 q 883 417 883 499 q 833 192 883 289 q 693 39 783 94 q 482 -17 603 -17 q 272 39 363 -17 q 132 192 182 94 q 82 417 82 289 q 104 567 82 499 q 160 686 126 635 q 229 772 194 738 l 229 778 l 63 778 l 63 908 l 410 908 l 410 792 q 324 697 360 750 q 267 578 288 644 q 247 431 247 513 q 275 272 247 342 q 356 163 303 203 q 482 124 408 124 q 608 163 556 124 q 690 272 661 203 q 718 431 718 342 q 698 578 718 513 q 641 697 678 644 q 556 792 604 750 l 556 908 l 903 908 z "},"Ꭓ":{"ha":735,"x_min":10,"x_max":725,"o":"m 10 -251 l 268 347 l 26 908 l 206 908 l 306 650 q 339 569 324 611 q 375 474 354 526 l 381 474 q 412 569 397 526 q 442 650 426 611 l 538 908 l 708 908 l 467 336 l 725 -251 l 546 -251 l 435 24 q 399 114 417 68 q 361 213 382 160 l 356 213 q 322 114 339 160 q 289 24 306 68 l 181 -251 l 10 -251 z "},"Ɂ":{"ha":704,"x_min":0,"x_max":656,"o":"m 238 0 l 238 376 q 433 492 376 429 q 490 633 490 556 q 441 744 490 704 q 308 785 392 785 q 188 757 247 785 q 83 689 128 729 l 0 792 q 138 886 57 847 q 319 925 219 925 q 488 893 411 925 q 610 799 564 861 q 656 644 656 738 q 622 501 656 565 q 531 388 589 438 q 399 303 474 338 l 399 0 l 238 0 z "},"Ꜣ":{"ha":438,"x_min":74,"x_max":379,"o":"m 118 -17 l 97 69 q 208 108 167 81 q 250 175 250 135 q 242 210 250 197 q 225 229 235 224 l 261 229 q 228 197 251 210 q 179 183 206 183 q 104 210 135 183 q 74 282 74 236 q 108 362 74 332 q 203 392 142 392 q 331 344 282 392 q 379 211 379 296 q 312 50 379 110 q 118 -17 244 -10 m 118 517 l 97 603 q 208 640 167 613 q 250 707 250 668 q 242 743 250 731 q 225 761 235 756 l 261 761 q 228 730 251 743 q 179 717 206 717 q 104 743 135 717 q 74 814 74 769 q 108 894 74 865 q 203 924 142 924 q 331 876 282 924 q 379 744 379 828 q 312 583 379 642 q 118 517 244 524 z "},"Ꜥ":{"ha":438,"x_min":58,"x_max":364,"o":"m 319 500 q 126 570 193 507 q 58 735 58 633 q 107 875 58 826 q 228 924 156 924 q 330 894 296 924 q 364 814 364 865 q 335 743 364 769 q 258 717 306 717 q 211 730 235 717 q 176 761 188 743 l 213 761 q 196 743 203 756 q 189 710 189 731 q 231 629 189 663 q 340 586 272 596 l 319 500 z "},"à":{"ha":717,"x_min":64,"x_max":626,"o":"m 267 -17 q 161 8 207 -17 q 90 78 115 33 q 64 183 64 124 q 160 358 64 299 q 467 439 257 417 q 453 503 465 474 q 415 549 442 532 q 342 567 388 567 q 244 549 292 567 q 150 503 196 531 l 92 611 q 174 655 129 635 q 268 687 218 675 q 372 699 318 699 q 513 665 457 699 q 598 565 569 631 q 626 403 626 499 l 626 0 l 494 0 l 483 75 l 478 75 q 379 10 431 36 q 267 -17 328 -17 m 317 114 q 394 131 358 114 q 467 183 429 149 l 467 328 q 319 299 374 317 q 242 255 265 281 q 219 194 219 229 q 247 133 219 151 q 317 114 275 114 m 367 792 l 142 1017 l 151 1033 l 322 1033 l 492 792 l 367 792 z "},"á":{"ha":717,"x_min":64,"x_max":626,"o":"m 267 -17 q 161 8 207 -17 q 90 78 115 33 q 64 183 64 124 q 160 358 64 299 q 467 439 257 417 q 453 503 465 474 q 415 549 442 532 q 342 567 388 567 q 244 549 292 567 q 150 503 196 531 l 92 611 q 174 655 129 635 q 268 687 218 675 q 372 699 318 699 q 513 665 457 699 q 598 565 569 631 q 626 403 626 499 l 626 0 l 494 0 l 483 75 l 478 75 q 379 10 431 36 q 267 -17 328 -17 m 317 114 q 394 131 358 114 q 467 183 429 149 l 467 328 q 319 299 374 317 q 242 255 265 281 q 219 194 219 229 q 247 133 219 151 q 317 114 275 114 m 264 792 l 433 1033 l 604 1033 l 614 1017 l 389 792 l 264 792 z "},"â":{"ha":717,"x_min":64,"x_max":636,"o":"m 267 -17 q 161 8 207 -17 q 90 78 115 33 q 64 183 64 124 q 160 358 64 299 q 467 439 257 417 q 453 503 465 474 q 415 549 442 532 q 342 567 388 567 q 244 549 292 567 q 150 503 196 531 l 92 611 q 174 655 129 635 q 268 687 218 675 q 372 699 318 699 q 513 665 457 699 q 598 565 569 631 q 626 403 626 499 l 626 0 l 494 0 l 483 75 l 478 75 q 379 10 431 36 q 267 -17 328 -17 m 317 114 q 394 131 358 114 q 467 183 429 149 l 467 328 q 319 299 374 317 q 242 255 265 281 q 219 194 219 229 q 247 133 219 151 q 317 114 275 114 m 119 792 l 306 1033 l 450 1033 l 636 792 l 511 792 l 381 922 l 375 922 l 244 792 l 119 792 z "},"ã":{"ha":717,"x_min":64,"x_max":631,"o":"m 267 -17 q 161 8 207 -17 q 90 78 115 33 q 64 183 64 124 q 160 358 64 299 q 467 439 257 417 q 453 503 465 474 q 415 549 442 532 q 342 567 388 567 q 244 549 292 567 q 150 503 196 531 l 92 611 q 174 655 129 635 q 268 687 218 675 q 372 699 318 699 q 513 665 457 699 q 598 565 569 631 q 626 403 626 499 l 626 0 l 494 0 l 483 75 l 478 75 q 379 10 431 36 q 267 -17 328 -17 m 317 114 q 394 131 358 114 q 467 183 429 149 l 467 328 q 319 299 374 317 q 242 255 265 281 q 219 194 219 229 q 247 133 219 151 q 317 114 275 114 m 474 799 q 413 814 439 799 q 365 850 386 829 q 324 886 343 871 q 285 901 306 901 q 245 878 258 901 q 228 808 232 854 l 125 814 q 146 922 128 878 q 197 990 164 967 q 282 1014 231 1014 q 344 999 318 1014 q 391 963 369 983 q 432 927 413 943 q 472 911 451 911 q 510 935 497 911 q 528 1004 524 960 l 631 999 q 610 892 628 936 q 559 823 593 847 q 474 799 525 799 z "},"ä":{"ha":717,"x_min":64,"x_max":626,"o":"m 267 -17 q 161 8 207 -17 q 90 78 115 33 q 64 183 64 124 q 160 358 64 299 q 467 439 257 417 q 453 503 465 474 q 415 549 442 532 q 342 567 388 567 q 244 549 292 567 q 150 503 196 531 l 92 611 q 174 655 129 635 q 268 687 218 675 q 372 699 318 699 q 513 665 457 699 q 598 565 569 631 q 626 403 626 499 l 626 0 l 494 0 l 483 75 l 478 75 q 379 10 431 36 q 267 -17 328 -17 m 317 114 q 394 131 358 114 q 467 183 429 149 l 467 328 q 319 299 374 317 q 242 255 265 281 q 219 194 219 229 q 247 133 219 151 q 317 114 275 114 m 235 803 q 174 827 199 803 q 150 888 150 851 q 174 948 150 924 q 235 972 199 972 q 296 948 272 972 q 319 888 319 924 q 296 827 319 851 q 235 803 272 803 m 521 803 q 460 827 485 803 q 436 888 436 851 q 460 948 436 924 q 521 972 485 972 q 581 948 557 972 q 606 888 606 924 q 581 827 606 851 q 521 803 557 803 z "},"å":{"ha":717,"x_min":64,"x_max":626,"o":"m 267 -17 q 161 8 207 -17 q 90 78 115 33 q 64 183 64 124 q 160 358 64 299 q 467 439 257 417 q 453 503 465 474 q 415 549 442 532 q 342 567 388 567 q 244 549 292 567 q 150 503 196 531 l 92 611 q 174 655 129 635 q 268 687 218 675 q 372 699 318 699 q 513 665 457 699 q 598 565 569 631 q 626 403 626 499 l 626 0 l 494 0 l 483 75 l 478 75 q 379 10 431 36 q 267 -17 328 -17 m 317 114 q 394 131 358 114 q 467 183 429 149 l 467 328 q 319 299 374 317 q 242 255 265 281 q 219 194 219 229 q 247 133 219 151 q 317 114 275 114 m 378 776 q 253 817 297 776 q 210 918 210 858 q 253 1018 210 978 q 378 1058 297 1058 q 502 1018 458 1058 q 546 918 546 978 q 502 817 546 858 q 378 776 458 776 m 378 840 q 427 862 407 840 q 447 918 447 883 q 427 974 447 953 q 378 994 407 994 q 328 974 349 994 q 308 917 308 953 q 328 862 308 883 q 378 840 349 840 z "},"ā":{"ha":717,"x_min":64,"x_max":626,"o":"m 267 -17 q 161 8 207 -17 q 90 78 115 33 q 64 183 64 124 q 160 358 64 299 q 467 439 257 417 q 453 503 465 474 q 415 549 442 532 q 342 567 388 567 q 244 549 292 567 q 150 503 196 531 l 92 611 q 174 655 129 635 q 268 687 218 675 q 372 699 318 699 q 513 665 457 699 q 598 565 569 631 q 626 403 626 499 l 626 0 l 494 0 l 483 75 l 478 75 q 379 10 431 36 q 267 -17 328 -17 m 317 114 q 394 131 358 114 q 467 183 429 149 l 467 328 q 319 299 374 317 q 242 255 265 281 q 219 194 219 229 q 247 133 219 151 q 317 114 275 114 m 183 828 l 183 933 l 572 933 l 572 828 l 183 828 z "},"ă":{"ha":717,"x_min":64,"x_max":626,"o":"m 267 -17 q 161 8 207 -17 q 90 78 115 33 q 64 183 64 124 q 160 358 64 299 q 467 439 257 417 q 453 503 465 474 q 415 549 442 532 q 342 567 388 567 q 244 549 292 567 q 150 503 196 531 l 92 611 q 174 655 129 635 q 268 687 218 675 q 372 699 318 699 q 513 665 457 699 q 598 565 569 631 q 626 403 626 499 l 626 0 l 494 0 l 483 75 l 478 75 q 379 10 431 36 q 267 -17 328 -17 m 317 114 q 394 131 358 114 q 467 183 429 149 l 467 328 q 319 299 374 317 q 242 255 265 281 q 219 194 219 229 q 247 133 219 151 q 317 114 275 114 m 378 790 q 252 820 301 790 q 178 899 203 850 q 151 1004 154 949 l 246 1019 q 267 958 251 988 q 310 911 282 929 q 378 893 338 893 q 447 911 419 893 q 489 958 474 929 q 510 1019 504 988 l 604 1004 q 577 899 601 949 q 504 820 553 850 q 378 790 456 790 z "},"ȧ":{"ha":717,"x_min":64,"x_max":626,"o":"m 267 -17 q 161 8 207 -17 q 90 78 115 33 q 64 183 64 124 q 160 358 64 299 q 467 439 257 417 q 453 503 465 474 q 415 549 442 532 q 342 567 388 567 q 244 549 292 567 q 150 503 196 531 l 92 611 q 174 655 129 635 q 268 687 218 675 q 372 699 318 699 q 513 665 457 699 q 598 565 569 631 q 626 403 626 499 l 626 0 l 494 0 l 483 75 l 478 75 q 379 10 431 36 q 267 -17 328 -17 m 317 114 q 394 131 358 114 q 467 183 429 149 l 467 328 q 319 299 374 317 q 242 255 265 281 q 219 194 219 229 q 247 133 219 151 q 317 114 275 114 m 378 801 q 309 826 336 801 q 282 893 282 851 q 309 959 282 935 q 378 983 336 983 q 447 959 421 983 q 474 893 474 935 q 447 826 474 851 q 378 801 421 801 z "},"ǎ":{"ha":717,"x_min":64,"x_max":636,"o":"m 267 -17 q 161 8 207 -17 q 90 78 115 33 q 64 183 64 124 q 160 358 64 299 q 467 439 257 417 q 453 503 465 474 q 415 549 442 532 q 342 567 388 567 q 244 549 292 567 q 150 503 196 531 l 92 611 q 174 655 129 635 q 268 687 218 675 q 372 699 318 699 q 513 665 457 699 q 598 565 569 631 q 626 403 626 499 l 626 0 l 494 0 l 483 75 l 478 75 q 379 10 431 36 q 267 -17 328 -17 m 317 114 q 394 131 358 114 q 467 183 429 149 l 467 328 q 319 299 374 317 q 242 255 265 281 q 219 194 219 229 q 247 133 219 151 q 317 114 275 114 m 306 792 l 119 1033 l 244 1033 l 375 903 l 381 903 l 511 1033 l 636 1033 l 450 792 l 306 792 z "},"ȁ":{"ha":717,"x_min":64,"x_max":626,"o":"m 267 -17 q 161 8 207 -17 q 90 78 115 33 q 64 183 64 124 q 160 358 64 299 q 467 439 257 417 q 453 503 465 474 q 415 549 442 532 q 342 567 388 567 q 244 549 292 567 q 150 503 196 531 l 92 611 q 174 655 129 635 q 268 687 218 675 q 372 699 318 699 q 513 665 457 699 q 598 565 569 631 q 626 403 626 499 l 626 0 l 494 0 l 483 75 l 478 75 q 379 10 431 36 q 267 -17 328 -17 m 317 114 q 394 131 358 114 q 467 183 429 149 l 467 328 q 319 299 374 317 q 242 255 265 281 q 219 194 219 229 q 247 133 219 151 q 317 114 275 114 m 231 793 l 72 1021 l 82 1039 l 208 1039 l 319 793 l 231 793 m 464 793 l 306 1021 l 315 1039 l 442 1039 l 553 793 l 464 793 z "},"ą":{"ha":717,"x_min":64,"x_max":686,"o":"m 549 -301 q 440 -268 485 -301 q 396 -167 396 -235 q 411 -95 396 -128 q 449 -38 426 -62 q 494 0 472 -14 l 483 75 l 478 75 q 379 10 431 36 q 267 -17 328 -17 q 161 8 207 -17 q 90 78 115 33 q 64 183 64 124 q 160 358 64 299 q 467 439 257 417 q 453 503 465 474 q 415 549 442 532 q 342 567 388 567 q 244 549 292 567 q 150 503 196 531 l 92 611 q 174 655 129 635 q 268 687 218 675 q 372 699 318 699 q 513 665 457 699 q 598 565 569 631 q 626 403 626 499 l 626 0 q 546 -57 574 -18 q 518 -131 518 -96 q 538 -176 518 -161 q 582 -190 558 -190 q 618 -185 601 -190 q 650 -169 635 -179 l 686 -256 q 622 -288 660 -275 q 549 -301 585 -301 m 317 114 q 394 131 358 114 q 467 183 429 149 l 467 328 q 319 299 374 317 q 242 255 265 281 q 219 194 219 229 q 247 133 219 151 q 317 114 275 114 z "},"ạ":{"ha":717,"x_min":64,"x_max":626,"o":"m 267 -17 q 161 8 207 -17 q 90 78 115 33 q 64 183 64 124 q 160 358 64 299 q 467 439 257 417 q 453 503 465 474 q 415 549 442 532 q 342 567 388 567 q 244 549 292 567 q 150 503 196 531 l 92 611 q 174 655 129 635 q 268 687 218 675 q 372 699 318 699 q 513 665 457 699 q 598 565 569 631 q 626 403 626 499 l 626 0 l 494 0 l 483 75 l 478 75 q 379 10 431 36 q 267 -17 328 -17 m 317 114 q 394 131 358 114 q 467 183 429 149 l 467 328 q 319 299 374 317 q 242 255 265 281 q 219 194 219 229 q 247 133 219 151 q 317 114 275 114 z "},"ả":{"ha":717,"x_min":64,"x_max":626,"o":"m 267 -17 q 161 8 207 -17 q 90 78 115 33 q 64 183 64 124 q 160 358 64 299 q 467 439 257 417 q 453 503 465 474 q 415 549 442 532 q 342 567 388 567 q 244 549 292 567 q 150 503 196 531 l 92 611 q 174 655 129 635 q 268 687 218 675 q 372 699 318 699 q 513 665 457 699 q 598 565 569 631 q 626 403 626 499 l 626 0 l 494 0 l 483 75 l 478 75 q 379 10 431 36 q 267 -17 328 -17 m 317 114 q 394 131 358 114 q 467 183 429 149 l 467 328 q 319 299 374 317 q 242 255 265 281 q 219 194 219 229 q 247 133 219 151 q 317 114 275 114 m 325 781 l 311 849 q 361 873 342 856 q 381 917 381 890 q 354 959 381 943 q 268 978 328 975 l 278 1071 q 404 1053 354 1068 q 478 1010 454 1039 q 501 939 501 981 q 477 857 501 890 q 413 805 453 824 q 325 781 372 786 z "},"ấ":{"ha":717,"x_min":64,"x_max":744,"o":"m 267 -17 q 161 8 207 -17 q 90 78 115 33 q 64 183 64 124 q 160 358 64 299 q 467 439 257 417 q 453 503 465 474 q 415 549 442 532 q 342 567 388 567 q 244 549 292 567 q 150 503 196 531 l 92 611 q 174 655 129 635 q 268 687 218 675 q 372 699 318 699 q 513 665 457 699 q 598 565 569 631 q 626 403 626 499 l 626 0 l 494 0 l 483 75 l 478 75 q 379 10 431 36 q 267 -17 328 -17 m 317 114 q 394 131 358 114 q 467 183 429 149 l 467 328 q 319 299 374 317 q 242 255 265 281 q 219 194 219 229 q 247 133 219 151 q 317 114 275 114 m 142 792 l 306 997 l 450 997 l 614 792 l 497 792 l 381 900 l 375 900 l 258 792 l 142 792 m 531 919 l 615 1100 l 735 1100 l 744 1083 l 613 919 l 531 919 z "},"ầ":{"ha":717,"x_min":11,"x_max":626,"o":"m 267 -17 q 161 8 207 -17 q 90 78 115 33 q 64 183 64 124 q 160 358 64 299 q 467 439 257 417 q 453 503 465 474 q 415 549 442 532 q 342 567 388 567 q 244 549 292 567 q 150 503 196 531 l 92 611 q 174 655 129 635 q 268 687 218 675 q 372 699 318 699 q 513 665 457 699 q 598 565 569 631 q 626 403 626 499 l 626 0 l 494 0 l 483 75 l 478 75 q 379 10 431 36 q 267 -17 328 -17 m 317 114 q 394 131 358 114 q 467 183 429 149 l 467 328 q 319 299 374 317 q 242 255 265 281 q 219 194 219 229 q 247 133 219 151 q 317 114 275 114 m 142 792 l 306 997 l 450 997 l 614 792 l 497 792 l 381 900 l 375 900 l 258 792 l 142 792 m 143 919 l 11 1083 l 21 1100 l 140 1100 l 225 919 l 143 919 z "},"ẩ":{"ha":717,"x_min":64,"x_max":714,"o":"m 267 -17 q 161 8 207 -17 q 90 78 115 33 q 64 183 64 124 q 160 358 64 299 q 467 439 257 417 q 453 503 465 474 q 415 549 442 532 q 342 567 388 567 q 244 549 292 567 q 150 503 196 531 l 92 611 q 174 655 129 635 q 268 687 218 675 q 372 699 318 699 q 513 665 457 699 q 598 565 569 631 q 626 403 626 499 l 626 0 l 494 0 l 483 75 l 478 75 q 379 10 431 36 q 267 -17 328 -17 m 317 114 q 394 131 358 114 q 467 183 429 149 l 467 328 q 319 299 374 317 q 242 255 265 281 q 219 194 219 229 q 247 133 219 151 q 317 114 275 114 m 142 792 l 306 997 l 450 997 l 614 792 l 497 792 l 381 900 l 375 900 l 258 792 l 142 792 m 567 903 l 554 963 q 592 978 578 968 q 606 1008 606 989 q 585 1044 606 1032 q 511 1061 564 1057 l 526 1149 q 669 1115 625 1146 q 714 1026 714 1083 q 693 960 714 985 q 639 923 672 936 q 567 903 606 910 z "},"ẫ":{"ha":717,"x_min":64,"x_max":626,"o":"m 267 -17 q 161 8 207 -17 q 90 78 115 33 q 64 183 64 124 q 160 358 64 299 q 467 439 257 417 q 453 503 465 474 q 415 549 442 532 q 342 567 388 567 q 244 549 292 567 q 150 503 196 531 l 92 611 q 174 655 129 635 q 268 687 218 675 q 372 699 318 699 q 513 665 457 699 q 598 565 569 631 q 626 403 626 499 l 626 0 l 494 0 l 483 75 l 478 75 q 379 10 431 36 q 267 -17 328 -17 m 317 114 q 394 131 358 114 q 467 183 429 149 l 467 328 q 319 299 374 317 q 242 255 265 281 q 219 194 219 229 q 247 133 219 151 q 317 114 275 114 m 142 792 l 306 981 l 450 981 l 614 792 l 497 792 l 381 883 l 375 883 l 258 792 l 142 792 m 472 1017 q 397 1031 428 1017 q 342 1060 367 1046 q 292 1075 318 1075 q 265 1063 275 1075 q 249 1019 254 1050 l 164 1028 q 199 1131 169 1094 q 283 1167 229 1167 q 359 1152 329 1167 q 413 1123 389 1138 q 464 1108 438 1108 q 492 1122 482 1108 q 507 1164 503 1136 l 592 1156 q 556 1053 586 1090 q 472 1017 526 1017 z "},"ậ":{"ha":717,"x_min":64,"x_max":636,"o":"m 267 -17 q 161 8 207 -17 q 90 78 115 33 q 64 183 64 124 q 160 358 64 299 q 467 439 257 417 q 453 503 465 474 q 415 549 442 532 q 342 567 388 567 q 244 549 292 567 q 150 503 196 531 l 92 611 q 174 655 129 635 q 268 687 218 675 q 372 699 318 699 q 513 665 457 699 q 598 565 569 631 q 626 403 626 499 l 626 0 l 494 0 l 483 75 l 478 75 q 379 10 431 36 q 267 -17 328 -17 m 317 114 q 394 131 358 114 q 467 183 429 149 l 467 328 q 319 299 374 317 q 242 255 265 281 q 219 194 219 229 q 247 133 219 151 q 317 114 275 114 m 119 792 l 306 1033 l 450 1033 l 636 792 l 511 792 l 381 922 l 375 922 l 244 792 l 119 792 z "},"ắ":{"ha":717,"x_min":64,"x_max":626,"o":"m 267 -17 q 161 8 207 -17 q 90 78 115 33 q 64 183 64 124 q 160 358 64 299 q 467 439 257 417 q 453 503 465 474 q 415 549 442 532 q 342 567 388 567 q 244 549 292 567 q 150 503 196 531 l 92 611 q 174 655 129 635 q 268 687 218 675 q 372 699 318 699 q 513 665 457 699 q 598 565 569 631 q 626 403 626 499 l 626 0 l 494 0 l 483 75 l 478 75 q 379 10 431 36 q 267 -17 328 -17 m 317 114 q 394 131 358 114 q 467 183 429 149 l 467 328 q 319 299 374 317 q 242 255 265 281 q 219 194 219 229 q 247 133 219 151 q 317 114 275 114 m 378 790 q 252 820 301 790 q 178 899 203 850 q 151 1004 154 949 l 238 1019 q 259 956 243 986 q 305 906 275 925 q 378 888 335 888 q 451 906 421 888 q 497 956 481 925 q 518 1019 513 986 l 604 1004 q 577 899 601 949 q 504 820 553 850 q 378 790 456 790 m 308 999 l 399 1183 l 518 1183 l 528 1165 l 390 999 l 308 999 z "},"ằ":{"ha":717,"x_min":64,"x_max":626,"o":"m 267 -17 q 161 8 207 -17 q 90 78 115 33 q 64 183 64 124 q 160 358 64 299 q 467 439 257 417 q 453 503 465 474 q 415 549 442 532 q 342 567 388 567 q 244 549 292 567 q 150 503 196 531 l 92 611 q 174 655 129 635 q 268 687 218 675 q 372 699 318 699 q 513 665 457 699 q 598 565 569 631 q 626 403 626 499 l 626 0 l 494 0 l 483 75 l 478 75 q 379 10 431 36 q 267 -17 328 -17 m 317 114 q 394 131 358 114 q 467 183 429 149 l 467 328 q 319 299 374 317 q 242 255 265 281 q 219 194 219 229 q 247 133 219 151 q 317 114 275 114 m 378 790 q 252 820 301 790 q 178 899 203 850 q 151 1004 154 949 l 238 1019 q 259 956 243 986 q 305 906 275 925 q 378 888 335 888 q 451 906 421 888 q 497 956 481 925 q 518 1019 513 986 l 604 1004 q 577 899 601 949 q 504 820 553 850 q 378 790 456 790 m 365 999 l 228 1165 l 238 1183 l 357 1183 l 447 999 l 365 999 z "},"ẳ":{"ha":717,"x_min":64,"x_max":626,"o":"m 267 -17 q 161 8 207 -17 q 90 78 115 33 q 64 183 64 124 q 160 358 64 299 q 467 439 257 417 q 453 503 465 474 q 415 549 442 532 q 342 567 388 567 q 244 549 292 567 q 150 503 196 531 l 92 611 q 174 655 129 635 q 268 687 218 675 q 372 699 318 699 q 513 665 457 699 q 598 565 569 631 q 626 403 626 499 l 626 0 l 494 0 l 483 75 l 478 75 q 379 10 431 36 q 267 -17 328 -17 m 317 114 q 394 131 358 114 q 467 183 429 149 l 467 328 q 319 299 374 317 q 242 255 265 281 q 219 194 219 229 q 247 133 219 151 q 317 114 275 114 m 378 790 q 252 820 301 790 q 178 899 203 850 q 151 1004 154 949 l 238 1019 q 259 956 243 986 q 305 906 275 925 q 378 888 335 888 q 451 906 421 888 q 497 956 481 925 q 518 1019 513 986 l 604 1004 q 577 899 601 949 q 504 820 553 850 q 378 790 456 790 m 335 978 l 322 1039 q 363 1054 347 1043 q 378 1085 378 1065 q 356 1121 378 1108 q 278 1136 335 1133 l 293 1226 q 440 1192 394 1224 q 486 1103 486 1160 q 465 1035 486 1061 q 410 997 444 1010 q 335 978 375 983 z "},"ẵ":{"ha":717,"x_min":64,"x_max":626,"o":"m 267 -17 q 161 8 207 -17 q 90 78 115 33 q 64 183 64 124 q 160 358 64 299 q 467 439 257 417 q 453 503 465 474 q 415 549 442 532 q 342 567 388 567 q 244 549 292 567 q 150 503 196 531 l 92 611 q 174 655 129 635 q 268 687 218 675 q 372 699 318 699 q 513 665 457 699 q 598 565 569 631 q 626 403 626 499 l 626 0 l 494 0 l 483 75 l 478 75 q 379 10 431 36 q 267 -17 328 -17 m 317 114 q 394 131 358 114 q 467 183 429 149 l 467 328 q 319 299 374 317 q 242 255 265 281 q 219 194 219 229 q 247 133 219 151 q 317 114 275 114 m 378 790 q 258 815 306 790 q 187 878 211 839 q 158 968 163 918 l 242 982 q 282 917 250 946 q 378 888 314 888 q 474 917 442 888 q 514 982 506 946 l 597 968 q 569 878 593 918 q 497 815 544 839 q 378 790 450 790 m 472 1014 q 410 1024 435 1014 q 368 1047 386 1033 q 332 1069 350 1060 q 292 1079 314 1079 q 242 1019 251 1079 l 157 1028 q 195 1133 163 1096 q 283 1169 228 1169 q 345 1160 321 1169 q 388 1138 369 1150 q 424 1115 406 1125 q 464 1106 442 1106 q 514 1164 504 1106 l 599 1156 q 561 1051 593 1089 q 472 1014 529 1014 z "},"ặ":{"ha":717,"x_min":64,"x_max":626,"o":"m 267 -17 q 161 8 207 -17 q 90 78 115 33 q 64 183 64 124 q 160 358 64 299 q 467 439 257 417 q 453 503 465 474 q 415 549 442 532 q 342 567 388 567 q 244 549 292 567 q 150 503 196 531 l 92 611 q 174 655 129 635 q 268 687 218 675 q 372 699 318 699 q 513 665 457 699 q 598 565 569 631 q 626 403 626 499 l 626 0 l 494 0 l 483 75 l 478 75 q 379 10 431 36 q 267 -17 328 -17 m 317 114 q 394 131 358 114 q 467 183 429 149 l 467 328 q 319 299 374 317 q 242 255 265 281 q 219 194 219 229 q 247 133 219 151 q 317 114 275 114 m 378 790 q 252 820 301 790 q 178 899 203 850 q 151 1004 154 949 l 246 1019 q 267 958 251 988 q 310 911 282 929 q 378 893 338 893 q 447 911 419 893 q 489 958 474 929 q 510 1019 504 988 l 604 1004 q 577 899 601 949 q 504 820 553 850 q 378 790 456 790 z "},"ǻ":{"ha":717,"x_min":64,"x_max":626,"o":"m 267 -17 q 161 8 207 -17 q 90 78 115 33 q 64 183 64 124 q 160 358 64 299 q 467 439 257 417 q 453 503 465 474 q 415 549 442 532 q 342 567 388 567 q 244 549 292 567 q 150 503 196 531 l 92 611 q 174 655 129 635 q 268 687 218 675 q 372 699 318 699 q 513 665 457 699 q 598 565 569 631 q 626 403 626 499 l 626 0 l 494 0 l 483 75 l 478 75 q 379 10 431 36 q 267 -17 328 -17 m 317 114 q 394 131 358 114 q 467 183 429 149 l 467 328 q 319 299 374 317 q 242 255 265 281 q 219 194 219 229 q 247 133 219 151 q 317 114 275 114 m 382 776 q 258 817 301 776 q 214 914 214 857 q 232 981 214 956 q 285 1039 250 1007 l 424 1186 l 569 1186 l 579 1169 l 394 1033 l 397 1042 q 513 1003 476 1042 q 550 914 550 965 q 506 817 550 857 q 382 776 463 776 m 382 840 q 431 861 411 840 q 451 914 451 882 q 431 969 451 949 q 382 989 411 989 q 333 969 353 989 q 313 914 313 949 q 333 861 313 882 q 382 840 353 840 z "},"æ":{"ha":1083,"x_min":64,"x_max":1032,"o":"m 267 -17 q 161 8 207 -17 q 90 78 115 33 q 64 183 64 124 q 160 358 64 299 q 461 439 256 417 q 449 504 460 475 q 412 550 438 533 q 339 567 386 567 q 244 549 292 567 q 150 503 196 531 l 92 610 q 172 655 129 635 q 263 687 215 675 q 358 699 310 699 q 480 666 429 699 q 553 575 531 633 q 645 666 593 633 q 764 699 697 699 q 914 657 854 699 q 1003 542 974 615 q 1032 372 1032 468 q 1030 328 1032 349 q 1025 292 1028 307 l 608 292 q 639 194 614 235 q 704 133 664 154 q 794 111 744 111 q 877 124 839 111 q 953 158 915 136 l 1006 56 q 899 3 958 22 q 774 -17 839 -17 q 677 -1 721 -17 q 599 40 633 14 q 536 100 564 67 q 399 12 465 40 q 267 -17 333 -17 m 317 114 q 403 133 358 114 q 483 189 447 151 q 469 242 474 213 q 461 303 464 272 l 458 328 q 276 280 329 311 q 222 194 222 249 q 249 133 222 151 q 317 114 275 114 m 611 411 l 889 411 q 854 531 889 490 q 761 572 819 572 q 691 553 722 572 q 639 497 660 533 q 611 411 618 461 z "},"ǽ":{"ha":1083,"x_min":64,"x_max":1032,"o":"m 267 -17 q 161 8 207 -17 q 90 78 115 33 q 64 183 64 124 q 160 358 64 299 q 461 439 256 417 q 449 504 460 475 q 412 550 438 533 q 339 567 386 567 q 244 549 292 567 q 150 503 196 531 l 92 610 q 172 655 129 635 q 263 687 215 675 q 358 699 310 699 q 480 666 429 699 q 553 575 531 633 q 645 666 593 633 q 764 699 697 699 q 914 657 854 699 q 1003 542 974 615 q 1032 372 1032 468 q 1030 328 1032 349 q 1025 292 1028 307 l 608 292 q 639 194 614 235 q 704 133 664 154 q 794 111 744 111 q 877 124 839 111 q 953 158 915 136 l 1006 56 q 899 3 958 22 q 774 -17 839 -17 q 677 -1 721 -17 q 599 40 633 14 q 536 100 564 67 q 399 12 465 40 q 267 -17 333 -17 m 317 114 q 403 133 358 114 q 483 189 447 151 q 469 242 474 213 q 461 303 464 272 l 458 328 q 276 280 329 311 q 222 194 222 249 q 249 133 222 151 q 317 114 275 114 m 611 411 l 889 411 q 854 531 889 490 q 761 572 819 572 q 691 553 722 572 q 639 497 660 533 q 611 411 618 461 m 458 792 l 628 1033 l 799 1033 l 808 1017 l 583 792 l 458 792 z "},"ǣ":{"ha":1083,"x_min":64,"x_max":1032,"o":"m 267 -17 q 161 8 207 -17 q 90 78 115 33 q 64 183 64 124 q 160 358 64 299 q 461 439 256 417 q 449 504 460 475 q 412 550 438 533 q 339 567 386 567 q 244 549 292 567 q 150 503 196 531 l 92 610 q 172 655 129 635 q 263 687 215 675 q 358 699 310 699 q 480 666 429 699 q 553 575 531 633 q 645 666 593 633 q 764 699 697 699 q 914 657 854 699 q 1003 542 974 615 q 1032 372 1032 468 q 1030 328 1032 349 q 1025 292 1028 307 l 608 292 q 639 194 614 235 q 704 133 664 154 q 794 111 744 111 q 877 124 839 111 q 953 158 915 136 l 1006 56 q 899 3 958 22 q 774 -17 839 -17 q 677 -1 721 -17 q 599 40 633 14 q 536 100 564 67 q 399 12 465 40 q 267 -17 333 -17 m 317 114 q 403 133 358 114 q 483 189 447 151 q 469 242 474 213 q 461 303 464 272 l 458 328 q 276 280 329 311 q 222 194 222 249 q 249 133 222 151 q 317 114 275 114 m 611 411 l 889 411 q 854 531 889 490 q 761 572 819 572 q 691 553 722 572 q 639 497 660 533 q 611 411 618 461 m 378 828 l 378 933 l 767 933 l 767 828 l 378 828 z "},"ⱥ":{"ha":717,"x_min":64,"x_max":626,"o":"m 292 -78 l 225 -61 l 464 769 l 531 753 l 292 -78 m 267 -17 q 161 8 207 -17 q 90 78 115 33 q 64 183 64 124 q 160 358 64 299 q 467 439 257 417 q 453 503 465 474 q 415 549 442 532 q 342 567 388 567 q 244 549 292 567 q 150 503 196 531 l 92 611 q 174 655 129 635 q 268 687 218 675 q 372 699 318 699 q 513 665 457 699 q 598 565 569 631 q 626 403 626 499 l 626 0 l 494 0 l 483 75 l 478 75 q 379 10 431 36 q 267 -17 328 -17 m 317 114 q 394 131 358 114 q 467 183 429 149 l 467 328 q 319 299 374 317 q 242 255 265 281 q 219 194 219 229 q 247 133 219 151 q 317 114 275 114 z "},"ƀ":{"ha":794,"x_min":6,"x_max":736,"o":"m 444 -17 q 349 6 397 -17 q 258 72 300 29 l 253 72 l 239 0 l 113 0 l 113 981 l 272 981 l 272 669 l 267 554 q 363 616 313 593 q 464 639 413 639 q 611 600 550 639 q 704 490 672 561 q 736 322 736 418 q 695 141 736 217 q 588 24 654 65 q 444 -17 521 -17 m 410 115 q 492 140 456 115 q 549 210 528 164 q 569 322 569 257 q 554 419 569 378 q 506 484 539 461 q 422 507 474 507 q 349 488 385 507 q 272 431 313 469 l 272 172 q 344 128 308 142 q 410 115 379 115 m 6 750 l 6 865 l 121 872 l 517 872 l 517 750 l 6 750 z "},"ɓ":{"ha":782,"x_min":101,"x_max":724,"o":"m 432 -17 q 338 6 386 -17 q 246 69 290 28 l 242 69 l 228 0 l 101 0 l 101 719 q 128 862 101 799 q 212 961 154 925 q 361 997 269 997 q 432 990 399 997 q 488 974 465 983 l 456 854 q 419 867 438 863 q 382 871 400 871 q 293 833 322 871 q 260 722 264 796 l 257 597 q 351 658 300 635 q 454 682 401 682 q 599 640 539 682 q 692 523 660 599 q 724 344 724 447 q 682 149 724 231 q 574 26 640 68 q 432 -17 508 -17 m 399 115 q 481 141 444 115 q 538 217 517 167 q 558 342 558 268 q 543 453 558 407 q 495 525 528 500 q 411 550 463 550 q 338 531 374 550 q 261 474 301 513 l 261 172 q 333 128 297 142 q 399 115 369 115 z "},"ḃ":{"ha":782,"x_min":101,"x_max":724,"o":"m 432 -17 q 338 6 386 -17 q 246 72 290 29 l 242 72 l 228 0 l 101 0 l 101 981 l 261 981 l 261 728 l 257 614 q 351 675 300 651 q 454 699 401 699 q 599 656 539 699 q 692 535 660 613 q 724 353 724 458 q 682 153 724 236 q 574 27 640 71 q 432 -17 508 -17 m 399 115 q 481 142 444 115 q 538 220 517 168 q 558 350 558 272 q 543 467 558 418 q 495 541 528 515 q 411 567 463 567 q 338 548 374 567 q 261 490 301 529 l 261 172 q 333 128 297 142 q 399 115 369 115 m 475 801 q 406 826 433 801 q 379 893 379 851 q 406 959 379 935 q 475 983 433 983 q 544 959 518 983 q 571 893 571 935 q 544 826 571 851 q 475 801 518 801 z "},"ḇ":{"ha":782,"x_min":101,"x_max":724,"o":"m 432 -17 q 338 6 386 -17 q 246 72 290 29 l 242 72 l 228 0 l 101 0 l 101 981 l 261 981 l 261 728 l 257 614 q 351 675 300 651 q 454 699 401 699 q 599 656 539 699 q 692 535 660 613 q 724 353 724 458 q 682 153 724 236 q 574 27 640 71 q 432 -17 508 -17 m 399 115 q 481 142 444 115 q 538 220 517 168 q 558 350 558 272 q 543 467 558 418 q 495 541 528 515 q 411 567 463 567 q 338 548 374 567 q 261 490 301 529 l 261 172 q 333 128 297 142 q 399 115 369 115 z "},"ç":{"ha":642,"x_min":57,"x_max":608,"o":"m 389 -17 q 219 26 294 -17 q 101 148 144 68 q 57 340 57 228 q 104 534 57 454 q 230 656 151 614 q 399 699 308 699 q 513 677 464 699 q 599 622 563 656 l 522 522 q 472 556 500 543 q 407 568 443 568 q 311 540 353 568 q 245 460 269 511 q 221 340 221 410 q 244 222 221 272 q 309 142 268 171 q 404 114 350 114 q 480 129 444 114 q 543 168 515 144 l 608 69 q 509 7 565 31 q 389 -17 453 -17 m 236 -324 l 222 -254 q 338 -233 307 -249 q 369 -189 369 -218 q 347 -149 369 -164 q 263 -126 324 -135 l 326 4 l 424 4 l 383 -86 q 460 -122 433 -99 q 488 -187 488 -144 q 422 -285 488 -253 q 236 -324 356 -318 z "},"ć":{"ha":642,"x_min":57,"x_max":619,"o":"m 389 -17 q 219 26 294 -17 q 101 148 144 68 q 57 340 57 228 q 104 534 57 454 q 230 656 151 614 q 399 699 308 699 q 513 677 464 699 q 599 622 563 656 l 522 522 q 472 556 500 543 q 407 568 443 568 q 311 540 353 568 q 245 460 269 511 q 221 340 221 410 q 244 222 221 272 q 309 142 268 171 q 404 114 350 114 q 480 129 444 114 q 543 168 515 144 l 608 69 q 509 7 565 31 q 389 -17 453 -17 m 269 792 l 439 1033 l 610 1033 l 619 1017 l 394 792 l 269 792 z "},"ĉ":{"ha":642,"x_min":57,"x_max":642,"o":"m 389 -17 q 219 26 294 -17 q 101 148 144 68 q 57 340 57 228 q 104 534 57 454 q 230 656 151 614 q 399 699 308 699 q 513 677 464 699 q 599 622 563 656 l 522 522 q 472 556 500 543 q 407 568 443 568 q 311 540 353 568 q 245 460 269 511 q 221 340 221 410 q 244 222 221 272 q 309 142 268 171 q 404 114 350 114 q 480 129 444 114 q 543 168 515 144 l 608 69 q 509 7 565 31 q 389 -17 453 -17 m 125 792 l 311 1033 l 456 1033 l 642 792 l 517 792 l 386 922 l 381 922 l 250 792 l 125 792 z "},"ċ":{"ha":642,"x_min":57,"x_max":608,"o":"m 389 -17 q 219 26 294 -17 q 101 148 144 68 q 57 340 57 228 q 104 534 57 454 q 230 656 151 614 q 399 699 308 699 q 513 677 464 699 q 599 622 563 656 l 522 522 q 472 556 500 543 q 407 568 443 568 q 311 540 353 568 q 245 460 269 511 q 221 340 221 410 q 244 222 221 272 q 309 142 268 171 q 404 114 350 114 q 480 129 444 114 q 543 168 515 144 l 608 69 q 509 7 565 31 q 389 -17 453 -17 m 383 801 q 315 826 342 801 q 288 893 288 851 q 315 959 288 935 q 383 983 342 983 q 453 959 426 983 q 479 893 479 935 q 453 826 479 851 q 383 801 426 801 z "},"č":{"ha":642,"x_min":57,"x_max":642,"o":"m 389 -17 q 219 26 294 -17 q 101 148 144 68 q 57 340 57 228 q 104 534 57 454 q 230 656 151 614 q 399 699 308 699 q 513 677 464 699 q 599 622 563 656 l 522 522 q 472 556 500 543 q 407 568 443 568 q 311 540 353 568 q 245 460 269 511 q 221 340 221 410 q 244 222 221 272 q 309 142 268 171 q 404 114 350 114 q 480 129 444 114 q 543 168 515 144 l 608 69 q 509 7 565 31 q 389 -17 453 -17 m 311 792 l 125 1033 l 250 1033 l 381 903 l 386 903 l 517 1033 l 642 1033 l 456 792 l 311 792 z "},"ȼ":{"ha":642,"x_min":57,"x_max":608,"o":"m 278 -78 l 211 -61 l 486 769 l 553 753 l 278 -78 m 389 -17 q 219 26 294 -17 q 101 148 144 68 q 57 340 57 228 q 104 534 57 454 q 230 656 151 614 q 399 699 308 699 q 513 677 464 699 q 599 622 563 656 l 522 522 q 472 556 500 543 q 407 568 443 568 q 311 540 353 568 q 245 460 269 511 q 221 340 221 410 q 244 222 221 272 q 309 142 268 171 q 404 114 350 114 q 480 129 444 114 q 543 168 515 144 l 608 69 q 509 7 565 31 q 389 -17 453 -17 z "},"ḋ":{"ha":783,"x_min":60,"x_max":682,"o":"m 340 -17 q 136 78 213 -17 q 60 340 60 172 q 101 532 60 451 q 208 656 142 613 q 349 699 274 699 q 448 679 407 699 q 528 624 489 660 l 522 733 l 522 981 l 682 981 l 682 0 l 550 0 l 539 74 l 533 74 q 446 10 496 36 q 340 -17 396 -17 m 379 115 q 454 134 419 115 q 522 192 489 153 l 522 510 q 453 554 488 542 q 383 567 418 567 q 303 540 339 567 q 247 464 268 514 q 225 342 225 414 q 265 174 225 232 q 379 115 306 115 m 306 801 q 237 826 264 801 q 210 893 210 851 q 237 959 210 935 q 306 983 264 983 q 375 959 349 983 q 401 893 401 935 q 375 826 401 851 q 306 801 349 801 z "},"ď":{"ha":825,"x_min":60,"x_max":851,"o":"m 340 -17 q 136 78 213 -17 q 60 340 60 172 q 101 532 60 451 q 208 656 142 613 q 349 699 274 699 q 448 679 407 699 q 528 624 489 660 l 522 733 l 522 981 l 682 981 l 682 0 l 550 0 l 539 74 l 533 74 q 446 10 496 36 q 340 -17 396 -17 m 379 115 q 454 134 419 115 q 522 192 489 153 l 522 510 q 453 554 488 542 q 383 567 418 567 q 303 540 339 567 q 247 464 268 514 q 225 342 225 414 q 265 174 225 232 q 379 115 306 115 m 751 761 l 744 1063 l 851 1063 l 850 975 l 824 761 l 751 761 z "},"ḍ":{"ha":783,"x_min":60,"x_max":682,"o":"m 340 -17 q 136 78 213 -17 q 60 340 60 172 q 101 532 60 451 q 208 656 142 613 q 349 699 274 699 q 448 679 407 699 q 528 624 489 660 l 522 733 l 522 981 l 682 981 l 682 0 l 550 0 l 539 74 l 533 74 q 446 10 496 36 q 340 -17 396 -17 m 379 115 q 454 134 419 115 q 522 192 489 153 l 522 510 q 453 554 488 542 q 383 567 418 567 q 303 540 339 567 q 247 464 268 514 q 225 342 225 414 q 265 174 225 232 q 379 115 306 115 z "},"ḏ":{"ha":783,"x_min":60,"x_max":682,"o":"m 340 -17 q 136 78 213 -17 q 60 340 60 172 q 101 532 60 451 q 208 656 142 613 q 349 699 274 699 q 448 679 407 699 q 528 624 489 660 l 522 733 l 522 981 l 682 981 l 682 0 l 550 0 l 539 74 l 533 74 q 446 10 496 36 q 340 -17 396 -17 m 379 115 q 454 134 419 115 q 522 192 489 153 l 522 510 q 453 554 488 542 q 383 567 418 567 q 303 540 339 567 q 247 464 268 514 q 225 342 225 414 q 265 174 225 232 q 379 115 306 115 z "},"ḑ":{"ha":783,"x_min":60,"x_max":682,"o":"m 340 -17 q 136 78 213 -17 q 60 340 60 172 q 101 532 60 451 q 208 656 142 613 q 349 699 274 699 q 448 679 407 699 q 528 624 489 660 l 522 733 l 522 981 l 682 981 l 682 0 l 550 0 l 539 74 l 533 74 q 446 10 496 36 q 340 -17 396 -17 m 379 115 q 454 134 419 115 q 522 192 489 153 l 522 510 q 453 554 488 542 q 383 567 418 567 q 303 540 339 567 q 247 464 268 514 q 225 342 225 414 q 265 174 225 232 q 379 115 306 115 m 231 -324 l 217 -254 q 333 -233 301 -249 q 364 -189 364 -218 q 341 -149 364 -164 q 257 -126 318 -135 l 321 4 l 418 4 l 378 -86 q 455 -122 428 -99 q 482 -187 482 -144 q 416 -285 482 -253 q 231 -324 350 -318 z "},"đ":{"ha":783,"x_min":58,"x_max":781,"o":"m 342 -17 q 192 23 256 -17 q 93 136 128 63 q 58 311 58 210 q 100 485 58 411 q 208 599 142 558 q 349 639 275 639 q 448 619 407 639 q 528 564 489 600 l 522 675 l 522 981 l 682 981 l 682 0 l 547 0 l 536 69 l 531 69 q 446 8 493 32 q 342 -17 399 -17 m 379 115 q 453 134 419 115 q 522 192 488 153 l 522 447 q 453 494 488 481 q 383 507 419 507 q 304 483 340 507 q 247 417 268 460 q 225 314 225 374 q 265 168 225 221 q 379 115 306 115 m 278 750 l 278 872 l 781 872 l 781 758 l 675 750 l 278 750 z "},"è":{"ha":704,"x_min":56,"x_max":653,"o":"m 394 -17 q 222 26 299 -17 q 100 148 144 68 q 56 342 56 228 q 101 533 56 453 q 219 656 147 613 q 372 699 292 699 q 528 657 465 699 q 622 542 590 615 q 653 375 653 469 q 651 332 653 353 q 644 292 649 311 l 175 292 l 175 414 l 511 414 q 478 530 511 488 q 375 572 444 572 q 299 551 336 572 q 238 481 263 531 q 214 342 214 431 q 242 210 214 261 q 315 135 269 160 q 414 111 361 111 q 498 124 458 111 q 572 158 538 136 l 628 56 q 520 3 581 22 q 394 -17 460 -17 m 358 792 l 133 1017 l 143 1033 l 314 1033 l 483 792 l 358 792 z "},"é":{"ha":704,"x_min":56,"x_max":653,"o":"m 394 -17 q 222 26 299 -17 q 100 148 144 68 q 56 342 56 228 q 101 533 56 453 q 219 656 147 613 q 372 699 292 699 q 528 657 465 699 q 622 542 590 615 q 653 375 653 469 q 651 332 653 353 q 644 292 649 311 l 175 292 l 175 414 l 511 414 q 478 530 511 488 q 375 572 444 572 q 299 551 336 572 q 238 481 263 531 q 214 342 214 431 q 242 210 214 261 q 315 135 269 160 q 414 111 361 111 q 498 124 458 111 q 572 158 538 136 l 628 56 q 520 3 581 22 q 394 -17 460 -17 m 256 792 l 425 1033 l 596 1033 l 606 1017 l 381 792 l 256 792 z "},"ê":{"ha":704,"x_min":56,"x_max":653,"o":"m 394 -17 q 222 26 299 -17 q 100 148 144 68 q 56 342 56 228 q 101 533 56 453 q 219 656 147 613 q 372 699 292 699 q 528 657 465 699 q 622 542 590 615 q 653 375 653 469 q 651 332 653 353 q 644 292 649 311 l 175 292 l 175 414 l 511 414 q 478 530 511 488 q 375 572 444 572 q 299 551 336 572 q 238 481 263 531 q 214 342 214 431 q 242 210 214 261 q 315 135 269 160 q 414 111 361 111 q 498 124 458 111 q 572 158 538 136 l 628 56 q 520 3 581 22 q 394 -17 460 -17 m 111 792 l 297 1033 l 442 1033 l 628 792 l 503 792 l 372 922 l 367 922 l 236 792 l 111 792 z "},"ẽ":{"ha":704,"x_min":56,"x_max":653,"o":"m 394 -17 q 222 26 299 -17 q 100 148 144 68 q 56 342 56 228 q 101 533 56 453 q 219 656 147 613 q 372 699 292 699 q 528 657 465 699 q 622 542 590 615 q 653 375 653 469 q 651 332 653 353 q 644 292 649 311 l 175 292 l 175 414 l 511 414 q 478 530 511 488 q 375 572 444 572 q 299 551 336 572 q 238 481 263 531 q 214 342 214 431 q 242 210 214 261 q 315 135 269 160 q 414 111 361 111 q 498 124 458 111 q 572 158 538 136 l 628 56 q 520 3 581 22 q 394 -17 460 -17 m 465 799 q 404 814 431 799 q 356 850 378 829 q 316 886 335 871 q 276 901 297 901 q 237 878 250 901 q 219 808 224 854 l 117 814 q 138 922 119 878 q 189 990 156 967 q 274 1014 222 1014 q 335 999 310 1014 q 383 963 361 983 q 424 927 404 943 q 464 911 443 911 q 502 935 489 911 q 519 1004 515 960 l 622 999 q 602 892 619 936 q 551 823 585 847 q 465 799 517 799 z "},"ë":{"ha":704,"x_min":56,"x_max":653,"o":"m 394 -17 q 222 26 299 -17 q 100 148 144 68 q 56 342 56 228 q 101 533 56 453 q 219 656 147 613 q 372 699 292 699 q 528 657 465 699 q 622 542 590 615 q 653 375 653 469 q 651 332 653 353 q 644 292 649 311 l 175 292 l 175 414 l 511 414 q 478 530 511 488 q 375 572 444 572 q 299 551 336 572 q 238 481 263 531 q 214 342 214 431 q 242 210 214 261 q 315 135 269 160 q 414 111 361 111 q 498 124 458 111 q 572 158 538 136 l 628 56 q 520 3 581 22 q 394 -17 460 -17 m 226 803 q 166 827 190 803 q 142 888 142 851 q 166 948 142 924 q 226 972 190 972 q 288 948 264 972 q 311 888 311 924 q 288 827 311 851 q 226 803 264 803 m 513 803 q 452 827 476 803 q 428 888 428 851 q 452 948 428 924 q 513 972 476 972 q 573 948 549 972 q 597 888 597 924 q 573 827 597 851 q 513 803 549 803 z "},"ē":{"ha":704,"x_min":56,"x_max":653,"o":"m 394 -17 q 222 26 299 -17 q 100 148 144 68 q 56 342 56 228 q 101 533 56 453 q 219 656 147 613 q 372 699 292 699 q 528 657 465 699 q 622 542 590 615 q 653 375 653 469 q 651 332 653 353 q 644 292 649 311 l 175 292 l 175 414 l 511 414 q 478 530 511 488 q 375 572 444 572 q 299 551 336 572 q 238 481 263 531 q 214 342 214 431 q 242 210 214 261 q 315 135 269 160 q 414 111 361 111 q 498 124 458 111 q 572 158 538 136 l 628 56 q 520 3 581 22 q 394 -17 460 -17 m 175 828 l 175 933 l 564 933 l 564 828 l 175 828 z "},"ĕ":{"ha":704,"x_min":56,"x_max":653,"o":"m 394 -17 q 222 26 299 -17 q 100 148 144 68 q 56 342 56 228 q 101 533 56 453 q 219 656 147 613 q 372 699 292 699 q 528 657 465 699 q 622 542 590 615 q 653 375 653 469 q 651 332 653 353 q 644 292 649 311 l 175 292 l 175 414 l 511 414 q 478 530 511 488 q 375 572 444 572 q 299 551 336 572 q 238 481 263 531 q 214 342 214 431 q 242 210 214 261 q 315 135 269 160 q 414 111 361 111 q 498 124 458 111 q 572 158 538 136 l 628 56 q 520 3 581 22 q 394 -17 460 -17 m 369 790 q 244 820 293 790 q 170 899 194 850 q 143 1004 146 949 l 238 1019 q 258 958 243 988 q 301 911 274 929 q 369 893 329 893 q 438 911 411 893 q 481 958 465 929 q 501 1019 496 988 l 596 1004 q 569 899 593 949 q 496 820 544 850 q 369 790 447 790 z "},"ė":{"ha":704,"x_min":56,"x_max":653,"o":"m 394 -17 q 222 26 299 -17 q 100 148 144 68 q 56 342 56 228 q 101 533 56 453 q 219 656 147 613 q 372 699 292 699 q 528 657 465 699 q 622 542 590 615 q 653 375 653 469 q 651 332 653 353 q 644 292 649 311 l 175 292 l 175 414 l 511 414 q 478 530 511 488 q 375 572 444 572 q 299 551 336 572 q 238 481 263 531 q 214 342 214 431 q 242 210 214 261 q 315 135 269 160 q 414 111 361 111 q 498 124 458 111 q 572 158 538 136 l 628 56 q 520 3 581 22 q 394 -17 460 -17 m 369 801 q 301 826 328 801 q 274 893 274 851 q 301 959 274 935 q 369 983 328 983 q 439 959 413 983 q 465 893 465 935 q 439 826 465 851 q 369 801 413 801 z "},"ě":{"ha":704,"x_min":56,"x_max":653,"o":"m 394 -17 q 222 26 299 -17 q 100 148 144 68 q 56 342 56 228 q 101 533 56 453 q 219 656 147 613 q 372 699 292 699 q 528 657 465 699 q 622 542 590 615 q 653 375 653 469 q 651 332 653 353 q 644 292 649 311 l 175 292 l 175 414 l 511 414 q 478 530 511 488 q 375 572 444 572 q 299 551 336 572 q 238 481 263 531 q 214 342 214 431 q 242 210 214 261 q 315 135 269 160 q 414 111 361 111 q 498 124 458 111 q 572 158 538 136 l 628 56 q 520 3 581 22 q 394 -17 460 -17 m 297 792 l 111 1033 l 236 1033 l 367 903 l 372 903 l 503 1033 l 628 1033 l 442 792 l 297 792 z "},"ȅ":{"ha":704,"x_min":56,"x_max":653,"o":"m 394 -17 q 222 26 299 -17 q 100 148 144 68 q 56 342 56 228 q 101 533 56 453 q 219 656 147 613 q 372 699 292 699 q 528 657 465 699 q 622 542 590 615 q 653 375 653 469 q 651 332 653 353 q 644 292 649 311 l 175 292 l 175 414 l 511 414 q 478 530 511 488 q 375 572 444 572 q 299 551 336 572 q 238 481 263 531 q 214 342 214 431 q 242 210 214 261 q 315 135 269 160 q 414 111 361 111 q 498 124 458 111 q 572 158 538 136 l 628 56 q 520 3 581 22 q 394 -17 460 -17 m 222 793 l 64 1021 l 74 1039 l 200 1039 l 311 793 l 222 793 m 456 793 l 297 1021 l 307 1039 l 433 1039 l 544 793 l 456 793 z "},"ę":{"ha":704,"x_min":56,"x_max":653,"o":"m 504 -300 q 395 -267 440 -300 q 350 -167 350 -235 q 378 -75 350 -118 q 461 3 407 -32 l 464 -3 q 428 -13 447 -10 q 394 -17 410 -17 q 222 26 299 -17 q 100 148 144 68 q 56 342 56 228 q 101 533 56 453 q 219 656 147 613 q 372 699 292 699 q 528 657 465 699 q 622 542 590 615 q 653 375 653 469 q 651 332 653 353 q 644 292 649 311 l 175 292 l 175 414 l 511 414 q 478 530 511 488 q 375 572 444 572 q 299 551 336 572 q 238 481 263 531 q 214 342 214 431 q 242 210 214 261 q 315 135 269 160 q 414 111 361 111 q 498 124 458 111 q 572 158 538 136 l 628 56 q 536 -12 571 19 q 487 -73 501 -44 q 472 -131 472 -101 q 493 -176 472 -164 q 536 -189 514 -189 q 574 -184 557 -189 q 606 -169 592 -179 l 642 -256 q 578 -288 617 -276 q 504 -300 540 -300 z "},"ẹ":{"ha":704,"x_min":56,"x_max":653,"o":"m 394 -17 q 222 26 299 -17 q 100 148 144 68 q 56 342 56 228 q 101 533 56 453 q 219 656 147 613 q 372 699 292 699 q 528 657 465 699 q 622 542 590 615 q 653 375 653 469 q 651 332 653 353 q 644 292 649 311 l 175 292 l 175 414 l 511 414 q 478 530 511 488 q 375 572 444 572 q 299 551 336 572 q 238 481 263 531 q 214 342 214 431 q 242 210 214 261 q 315 135 269 160 q 414 111 361 111 q 498 124 458 111 q 572 158 538 136 l 628 56 q 520 3 581 22 q 394 -17 460 -17 z "},"ẻ":{"ha":704,"x_min":56,"x_max":653,"o":"m 394 -17 q 222 26 299 -17 q 100 148 144 68 q 56 342 56 228 q 101 533 56 453 q 219 656 147 613 q 372 699 292 699 q 528 657 465 699 q 622 542 590 615 q 653 375 653 469 q 651 332 653 353 q 644 292 649 311 l 175 292 l 175 414 l 511 414 q 478 530 511 488 q 375 572 444 572 q 299 551 336 572 q 238 481 263 531 q 214 342 214 431 q 242 210 214 261 q 315 135 269 160 q 414 111 361 111 q 498 124 458 111 q 572 158 538 136 l 628 56 q 520 3 581 22 q 394 -17 460 -17 m 317 781 l 303 849 q 353 873 333 856 q 372 917 372 890 q 346 959 372 943 q 260 978 319 975 l 269 1071 q 396 1053 346 1068 q 469 1010 446 1039 q 493 939 493 981 q 469 857 493 890 q 404 805 444 824 q 317 781 364 786 z "},"ế":{"ha":704,"x_min":56,"x_max":736,"o":"m 394 -17 q 222 26 299 -17 q 100 148 144 68 q 56 342 56 228 q 101 533 56 453 q 219 656 147 613 q 372 699 292 699 q 528 657 465 699 q 622 542 590 615 q 653 375 653 469 q 651 332 653 353 q 644 292 649 311 l 175 292 l 175 414 l 511 414 q 478 530 511 488 q 375 572 444 572 q 299 551 336 572 q 238 481 263 531 q 214 342 214 431 q 242 210 214 261 q 315 135 269 160 q 414 111 361 111 q 498 124 458 111 q 572 158 538 136 l 628 56 q 520 3 581 22 q 394 -17 460 -17 m 133 792 l 297 997 l 442 997 l 606 792 l 489 792 l 372 900 l 367 900 l 250 792 l 133 792 m 522 919 l 607 1100 l 726 1100 l 736 1083 l 604 919 l 522 919 z "},"ề":{"ha":704,"x_min":3,"x_max":653,"o":"m 394 -17 q 222 26 299 -17 q 100 148 144 68 q 56 342 56 228 q 101 533 56 453 q 219 656 147 613 q 372 699 292 699 q 528 657 465 699 q 622 542 590 615 q 653 375 653 469 q 651 332 653 353 q 644 292 649 311 l 175 292 l 175 414 l 511 414 q 478 530 511 488 q 375 572 444 572 q 299 551 336 572 q 238 481 263 531 q 214 342 214 431 q 242 210 214 261 q 315 135 269 160 q 414 111 361 111 q 498 124 458 111 q 572 158 538 136 l 628 56 q 520 3 581 22 q 394 -17 460 -17 m 133 792 l 297 997 l 442 997 l 606 792 l 489 792 l 372 900 l 367 900 l 250 792 l 133 792 m 135 919 l 3 1083 l 13 1100 l 132 1100 l 217 919 l 135 919 z "},"ể":{"ha":704,"x_min":56,"x_max":706,"o":"m 394 -17 q 222 26 299 -17 q 100 148 144 68 q 56 342 56 228 q 101 533 56 453 q 219 656 147 613 q 372 699 292 699 q 528 657 465 699 q 622 542 590 615 q 653 375 653 469 q 651 332 653 353 q 644 292 649 311 l 175 292 l 175 414 l 511 414 q 478 530 511 488 q 375 572 444 572 q 299 551 336 572 q 238 481 263 531 q 214 342 214 431 q 242 210 214 261 q 315 135 269 160 q 414 111 361 111 q 498 124 458 111 q 572 158 538 136 l 628 56 q 520 3 581 22 q 394 -17 460 -17 m 133 792 l 297 997 l 442 997 l 606 792 l 489 792 l 372 900 l 367 900 l 250 792 l 133 792 m 558 903 l 546 963 q 583 978 569 968 q 597 1008 597 989 q 576 1044 597 1032 q 503 1061 556 1057 l 518 1149 q 661 1115 617 1146 q 706 1026 706 1083 q 685 960 706 985 q 631 923 664 936 q 558 903 597 910 z "},"ễ":{"ha":704,"x_min":56,"x_max":653,"o":"m 394 -17 q 222 26 299 -17 q 100 148 144 68 q 56 342 56 228 q 101 533 56 453 q 219 656 147 613 q 372 699 292 699 q 528 657 465 699 q 622 542 590 615 q 653 375 653 469 q 651 332 653 353 q 644 292 649 311 l 175 292 l 175 414 l 511 414 q 478 530 511 488 q 375 572 444 572 q 299 551 336 572 q 238 481 263 531 q 214 342 214 431 q 242 210 214 261 q 315 135 269 160 q 414 111 361 111 q 498 124 458 111 q 572 158 538 136 l 628 56 q 520 3 581 22 q 394 -17 460 -17 m 133 792 l 297 981 l 442 981 l 606 792 l 489 792 l 372 883 l 367 883 l 250 792 l 133 792 m 464 1017 q 389 1031 419 1017 q 334 1060 358 1046 q 283 1075 310 1075 q 256 1063 267 1075 q 240 1019 246 1050 l 156 1028 q 191 1131 161 1094 q 275 1167 221 1167 q 351 1152 321 1167 q 405 1123 381 1138 q 456 1108 429 1108 q 484 1122 474 1108 q 499 1164 494 1136 l 583 1156 q 548 1053 578 1090 q 464 1017 518 1017 z "},"ệ":{"ha":704,"x_min":56,"x_max":653,"o":"m 394 -17 q 222 26 299 -17 q 100 148 144 68 q 56 342 56 228 q 101 533 56 453 q 219 656 147 613 q 372 699 292 699 q 528 657 465 699 q 622 542 590 615 q 653 375 653 469 q 651 332 653 353 q 644 292 649 311 l 175 292 l 175 414 l 511 414 q 478 530 511 488 q 375 572 444 572 q 299 551 336 572 q 238 481 263 531 q 214 342 214 431 q 242 210 214 261 q 315 135 269 160 q 414 111 361 111 q 498 124 458 111 q 572 158 538 136 l 628 56 q 520 3 581 22 q 394 -17 460 -17 m 111 792 l 297 1033 l 442 1033 l 628 792 l 503 792 l 372 922 l 367 922 l 236 792 l 111 792 z "},"ḗ":{"ha":704,"x_min":56,"x_max":653,"o":"m 394 -17 q 222 26 299 -17 q 100 148 144 68 q 56 342 56 228 q 101 533 56 453 q 219 656 147 613 q 372 699 292 699 q 528 657 465 699 q 622 542 590 615 q 653 375 653 469 q 651 332 653 353 q 644 292 649 311 l 175 292 l 175 414 l 511 414 q 478 530 511 488 q 375 572 444 572 q 299 551 336 572 q 238 481 263 531 q 214 342 214 431 q 242 210 214 261 q 315 135 269 160 q 414 111 361 111 q 498 124 458 111 q 572 158 538 136 l 628 56 q 520 3 581 22 q 394 -17 460 -17 m 175 828 l 175 933 l 564 933 l 564 828 l 175 828 m 269 999 l 396 1186 l 543 1186 l 553 1169 l 379 999 l 269 999 z "},"ǝ":{"ha":704,"x_min":50,"x_max":647,"o":"m 344 -17 q 182 26 247 -17 q 83 143 117 68 q 50 314 50 218 q 52 358 50 338 q 58 397 54 379 l 528 397 l 528 275 l 192 275 q 229 156 192 200 q 342 111 267 111 q 412 132 378 111 q 467 203 446 153 q 489 340 489 253 q 465 472 489 422 q 401 546 440 522 q 314 569 361 569 q 228 558 268 569 q 150 522 188 546 l 94 625 q 206 680 144 661 q 333 699 267 699 q 493 657 422 699 q 606 535 564 615 q 647 340 647 456 q 604 149 647 229 q 492 26 561 68 q 344 -17 422 -17 z "},"ḟ":{"ha":440,"x_min":28,"x_max":481,"o":"m 129 0 l 129 753 q 152 879 129 824 q 225 966 175 935 q 356 997 275 997 q 426 990 393 997 q 481 974 458 983 l 447 858 q 375 871 411 871 q 311 843 333 871 q 289 756 289 815 l 289 0 l 129 0 m 28 556 l 28 675 l 139 682 l 422 682 l 422 556 l 28 556 m 319 1051 q 249 1078 278 1051 q 221 1143 221 1104 q 249 1208 221 1183 q 319 1233 278 1233 q 390 1208 363 1233 q 418 1143 418 1183 q 390 1078 418 1104 q 319 1051 363 1051 z "},"ǵ":{"ha":722,"x_min":56,"x_max":703,"o":"m 339 -301 q 193 -282 257 -301 q 92 -223 129 -262 q 56 -124 56 -183 q 81 -44 56 -81 q 153 22 107 -7 l 153 28 q 110 72 128 44 q 92 142 92 100 q 115 214 92 181 q 167 268 138 247 l 167 274 q 105 347 132 300 q 78 454 78 394 q 115 587 78 532 q 214 670 153 642 q 347 699 275 699 q 401 694 375 699 q 447 682 428 690 l 692 682 l 692 564 l 564 564 l 564 558 q 594 510 583 538 q 606 447 606 483 q 571 321 606 372 q 478 243 536 269 q 347 217 419 217 q 301 221 325 217 q 254 235 278 225 q 231 207 240 221 q 221 169 221 193 q 246 124 221 140 q 332 107 271 107 l 453 107 q 640 67 576 107 q 703 -61 703 28 q 658 -183 703 -128 q 532 -269 614 -237 q 339 -301 450 -301 m 347 317 q 406 333 379 317 q 449 380 433 349 q 465 454 465 411 q 431 554 465 519 q 347 589 397 589 q 263 554 297 589 q 228 454 228 519 q 244 380 228 411 q 288 333 261 349 q 347 317 314 317 m 364 -197 q 460 -183 418 -197 q 525 -142 501 -168 q 549 -87 549 -117 q 517 -33 549 -47 q 428 -19 486 -19 l 335 -19 q 285 -17 307 -19 q 242 -10 263 -14 q 202 -53 215 -31 q 189 -100 189 -75 q 236 -172 189 -146 q 364 -197 283 -197 m 256 792 l 425 1033 l 596 1033 l 606 1017 l 381 792 l 256 792 z "},"ĝ":{"ha":722,"x_min":56,"x_max":703,"o":"m 339 -301 q 193 -282 257 -301 q 92 -223 129 -262 q 56 -124 56 -183 q 81 -44 56 -81 q 153 22 107 -7 l 153 28 q 110 72 128 44 q 92 142 92 100 q 115 214 92 181 q 167 268 138 247 l 167 274 q 105 347 132 300 q 78 454 78 394 q 115 587 78 532 q 214 670 153 642 q 347 699 275 699 q 401 694 375 699 q 447 682 428 690 l 692 682 l 692 564 l 564 564 l 564 558 q 594 510 583 538 q 606 447 606 483 q 571 321 606 372 q 478 243 536 269 q 347 217 419 217 q 301 221 325 217 q 254 235 278 225 q 231 207 240 221 q 221 169 221 193 q 246 124 221 140 q 332 107 271 107 l 453 107 q 640 67 576 107 q 703 -61 703 28 q 658 -183 703 -128 q 532 -269 614 -237 q 339 -301 450 -301 m 347 317 q 406 333 379 317 q 449 380 433 349 q 465 454 465 411 q 431 554 465 519 q 347 589 397 589 q 263 554 297 589 q 228 454 228 519 q 244 380 228 411 q 288 333 261 349 q 347 317 314 317 m 364 -197 q 460 -183 418 -197 q 525 -142 501 -168 q 549 -87 549 -117 q 517 -33 549 -47 q 428 -19 486 -19 l 335 -19 q 285 -17 307 -19 q 242 -10 263 -14 q 202 -53 215 -31 q 189 -100 189 -75 q 236 -172 189 -146 q 364 -197 283 -197 m 111 792 l 297 1033 l 442 1033 l 628 792 l 503 792 l 372 922 l 367 922 l 236 792 l 111 792 z "},"ḡ":{"ha":722,"x_min":56,"x_max":703,"o":"m 339 -301 q 193 -282 257 -301 q 92 -223 129 -262 q 56 -124 56 -183 q 81 -44 56 -81 q 153 22 107 -7 l 153 28 q 110 72 128 44 q 92 142 92 100 q 115 214 92 181 q 167 268 138 247 l 167 274 q 105 347 132 300 q 78 454 78 394 q 115 587 78 532 q 214 670 153 642 q 347 699 275 699 q 401 694 375 699 q 447 682 428 690 l 692 682 l 692 564 l 564 564 l 564 558 q 594 510 583 538 q 606 447 606 483 q 571 321 606 372 q 478 243 536 269 q 347 217 419 217 q 301 221 325 217 q 254 235 278 225 q 231 207 240 221 q 221 169 221 193 q 246 124 221 140 q 332 107 271 107 l 453 107 q 640 67 576 107 q 703 -61 703 28 q 658 -183 703 -128 q 532 -269 614 -237 q 339 -301 450 -301 m 347 317 q 406 333 379 317 q 449 380 433 349 q 465 454 465 411 q 431 554 465 519 q 347 589 397 589 q 263 554 297 589 q 228 454 228 519 q 244 380 228 411 q 288 333 261 349 q 347 317 314 317 m 364 -197 q 460 -183 418 -197 q 525 -142 501 -168 q 549 -87 549 -117 q 517 -33 549 -47 q 428 -19 486 -19 l 335 -19 q 285 -17 307 -19 q 242 -10 263 -14 q 202 -53 215 -31 q 189 -100 189 -75 q 236 -172 189 -146 q 364 -197 283 -197 m 175 828 l 175 933 l 564 933 l 564 828 l 175 828 z "},"ğ":{"ha":722,"x_min":56,"x_max":703,"o":"m 339 -301 q 193 -282 257 -301 q 92 -223 129 -262 q 56 -124 56 -183 q 81 -44 56 -81 q 153 22 107 -7 l 153 28 q 110 72 128 44 q 92 142 92 100 q 115 214 92 181 q 167 268 138 247 l 167 274 q 105 347 132 300 q 78 454 78 394 q 115 587 78 532 q 214 670 153 642 q 347 699 275 699 q 401 694 375 699 q 447 682 428 690 l 692 682 l 692 564 l 564 564 l 564 558 q 594 510 583 538 q 606 447 606 483 q 571 321 606 372 q 478 243 536 269 q 347 217 419 217 q 301 221 325 217 q 254 235 278 225 q 231 207 240 221 q 221 169 221 193 q 246 124 221 140 q 332 107 271 107 l 453 107 q 640 67 576 107 q 703 -61 703 28 q 658 -183 703 -128 q 532 -269 614 -237 q 339 -301 450 -301 m 347 317 q 406 333 379 317 q 449 380 433 349 q 465 454 465 411 q 431 554 465 519 q 347 589 397 589 q 263 554 297 589 q 228 454 228 519 q 244 380 228 411 q 288 333 261 349 q 347 317 314 317 m 364 -197 q 460 -183 418 -197 q 525 -142 501 -168 q 549 -87 549 -117 q 517 -33 549 -47 q 428 -19 486 -19 l 335 -19 q 285 -17 307 -19 q 242 -10 263 -14 q 202 -53 215 -31 q 189 -100 189 -75 q 236 -172 189 -146 q 364 -197 283 -197 m 369 790 q 244 820 293 790 q 170 899 194 850 q 143 1004 146 949 l 238 1019 q 258 958 243 988 q 301 911 274 929 q 369 893 329 893 q 438 911 411 893 q 481 958 465 929 q 501 1019 496 988 l 596 1004 q 569 899 593 949 q 496 820 544 850 q 369 790 447 790 z "},"ġ":{"ha":722,"x_min":56,"x_max":703,"o":"m 339 -301 q 193 -282 257 -301 q 92 -223 129 -262 q 56 -124 56 -183 q 81 -44 56 -81 q 153 22 107 -7 l 153 28 q 110 72 128 44 q 92 142 92 100 q 115 214 92 181 q 167 268 138 247 l 167 274 q 105 347 132 300 q 78 454 78 394 q 115 587 78 532 q 214 670 153 642 q 347 699 275 699 q 401 694 375 699 q 447 682 428 690 l 692 682 l 692 564 l 564 564 l 564 558 q 594 510 583 538 q 606 447 606 483 q 571 321 606 372 q 478 243 536 269 q 347 217 419 217 q 301 221 325 217 q 254 235 278 225 q 231 207 240 221 q 221 169 221 193 q 246 124 221 140 q 332 107 271 107 l 453 107 q 640 67 576 107 q 703 -61 703 28 q 658 -183 703 -128 q 532 -269 614 -237 q 339 -301 450 -301 m 347 317 q 406 333 379 317 q 449 380 433 349 q 465 454 465 411 q 431 554 465 519 q 347 589 397 589 q 263 554 297 589 q 228 454 228 519 q 244 380 228 411 q 288 333 261 349 q 347 317 314 317 m 364 -197 q 460 -183 418 -197 q 525 -142 501 -168 q 549 -87 549 -117 q 517 -33 549 -47 q 428 -19 486 -19 l 335 -19 q 285 -17 307 -19 q 242 -10 263 -14 q 202 -53 215 -31 q 189 -100 189 -75 q 236 -172 189 -146 q 364 -197 283 -197 m 369 801 q 301 826 328 801 q 274 893 274 851 q 301 959 274 935 q 369 983 328 983 q 439 959 413 983 q 465 893 465 935 q 439 826 465 851 q 369 801 413 801 z "},"ǧ":{"ha":722,"x_min":56,"x_max":703,"o":"m 339 -301 q 193 -282 257 -301 q 92 -223 129 -262 q 56 -124 56 -183 q 81 -44 56 -81 q 153 22 107 -7 l 153 28 q 110 72 128 44 q 92 142 92 100 q 115 214 92 181 q 167 268 138 247 l 167 274 q 105 347 132 300 q 78 454 78 394 q 115 587 78 532 q 214 670 153 642 q 347 699 275 699 q 401 694 375 699 q 447 682 428 690 l 692 682 l 692 564 l 564 564 l 564 558 q 594 510 583 538 q 606 447 606 483 q 571 321 606 372 q 478 243 536 269 q 347 217 419 217 q 301 221 325 217 q 254 235 278 225 q 231 207 240 221 q 221 169 221 193 q 246 124 221 140 q 332 107 271 107 l 453 107 q 640 67 576 107 q 703 -61 703 28 q 658 -183 703 -128 q 532 -269 614 -237 q 339 -301 450 -301 m 347 317 q 406 333 379 317 q 449 380 433 349 q 465 454 465 411 q 431 554 465 519 q 347 589 397 589 q 263 554 297 589 q 228 454 228 519 q 244 380 228 411 q 288 333 261 349 q 347 317 314 317 m 364 -197 q 460 -183 418 -197 q 525 -142 501 -168 q 549 -87 549 -117 q 517 -33 549 -47 q 428 -19 486 -19 l 335 -19 q 285 -17 307 -19 q 242 -10 263 -14 q 202 -53 215 -31 q 189 -100 189 -75 q 236 -172 189 -146 q 364 -197 283 -197 m 297 792 l 111 1033 l 236 1033 l 367 903 l 372 903 l 503 1033 l 628 1033 l 442 792 l 297 792 z "},"ģ":{"ha":722,"x_min":56,"x_max":703,"o":"m 339 -301 q 193 -282 257 -301 q 92 -223 129 -262 q 56 -124 56 -183 q 81 -44 56 -81 q 153 22 107 -7 l 153 28 q 110 72 128 44 q 92 142 92 100 q 115 214 92 181 q 167 268 138 247 l 167 274 q 105 347 132 300 q 78 454 78 394 q 115 587 78 532 q 214 670 153 642 q 347 699 275 699 q 401 694 375 699 q 447 682 428 690 l 692 682 l 692 564 l 564 564 l 564 558 q 594 510 583 538 q 606 447 606 483 q 571 321 606 372 q 478 243 536 269 q 347 217 419 217 q 301 221 325 217 q 254 235 278 225 q 231 207 240 221 q 221 169 221 193 q 246 124 221 140 q 332 107 271 107 l 453 107 q 640 67 576 107 q 703 -61 703 28 q 658 -183 703 -128 q 532 -269 614 -237 q 339 -301 450 -301 m 347 317 q 406 333 379 317 q 449 380 433 349 q 465 454 465 411 q 431 554 465 519 q 347 589 397 589 q 263 554 297 589 q 228 454 228 519 q 244 380 228 411 q 288 333 261 349 q 347 317 314 317 m 364 -197 q 460 -183 418 -197 q 525 -142 501 -168 q 549 -87 549 -117 q 517 -33 549 -47 q 428 -19 486 -19 l 335 -19 q 285 -17 307 -19 q 242 -10 263 -14 q 202 -53 215 -31 q 189 -100 189 -75 q 236 -172 189 -146 q 364 -197 283 -197 m 428 794 q 288 831 328 804 q 249 906 249 857 q 315 1004 249 972 q 500 1042 381 1036 l 514 972 q 398 953 429 967 q 367 911 367 939 q 390 876 367 889 q 461 858 413 863 l 428 794 z "},"ǥ":{"ha":819,"x_min":60,"x_max":786,"o":"m 383 303 l 383 417 l 522 425 l 786 425 l 786 303 l 383 303 m 357 -293 q 230 -274 297 -293 q 106 -218 163 -254 l 161 -110 q 260 -153 210 -140 q 357 -167 311 -167 q 480 -124 440 -167 q 522 -14 519 -82 l 525 92 q 441 35 489 57 q 340 13 393 13 q 192 55 256 13 q 94 174 129 97 q 60 353 60 250 q 102 536 60 458 q 211 656 144 614 q 353 699 278 699 q 451 679 407 699 q 535 619 494 660 l 539 619 l 551 682 l 682 682 l 682 -6 q 597 -217 682 -142 q 357 -293 513 -293 m 379 143 q 453 162 419 143 q 522 221 488 181 l 522 510 q 453 554 488 542 q 383 567 418 567 q 302 541 339 567 q 244 467 265 515 q 222 354 222 419 q 264 199 222 256 q 379 143 306 143 z "},"ɠ":{"ha":783,"x_min":60,"x_max":824,"o":"m 357 -293 q 230 -274 297 -293 q 106 -218 163 -254 l 161 -110 q 261 -153 211 -140 q 357 -167 311 -167 q 481 -124 442 -167 q 522 -14 519 -82 l 525 92 q 442 35 489 57 q 340 13 394 13 q 192 55 256 13 q 94 174 129 97 q 60 353 60 250 q 102 535 60 458 q 211 656 144 613 q 353 699 278 699 q 447 679 407 699 q 526 624 488 660 l 525 782 q 547 889 525 840 q 615 967 568 938 q 736 997 661 997 q 785 992 764 997 q 824 979 807 986 l 794 860 q 774 867 785 864 q 747 869 764 869 q 709 847 724 869 q 688 789 694 824 q 682 719 682 754 l 682 -6 q 597 -217 682 -142 q 357 -293 513 -293 m 379 143 q 453 162 419 143 q 522 221 488 181 l 522 510 q 453 554 488 542 q 383 567 418 567 q 303 540 339 567 q 244 467 267 514 q 222 354 222 419 q 264 199 222 256 q 379 143 306 143 z "},"ĥ":{"ha":775,"x_min":101,"x_max":689,"o":"m 101 0 l 101 981 l 261 981 l 261 728 l 256 596 q 351 667 299 636 q 474 699 404 699 q 633 628 583 699 q 683 428 683 557 l 683 0 l 524 0 l 524 407 q 499 526 524 492 q 417 561 474 561 q 338 540 372 561 q 261 476 304 518 l 261 0 l 101 0 m 156 1047 l 342 1247 l 503 1247 l 689 1047 l 561 1047 l 425 1153 l 419 1153 l 283 1047 l 156 1047 z "},"ḧ":{"ha":775,"x_min":101,"x_max":683,"o":"m 101 0 l 101 981 l 261 981 l 261 728 l 256 596 q 351 667 299 636 q 474 699 404 699 q 633 628 583 699 q 683 428 683 557 l 683 0 l 524 0 l 524 407 q 499 526 524 492 q 417 561 474 561 q 338 540 372 561 q 261 476 304 518 l 261 0 l 101 0 m 274 1053 q 215 1076 239 1053 q 192 1135 192 1099 q 215 1194 192 1171 q 274 1218 239 1218 q 334 1194 311 1218 q 357 1135 357 1171 q 334 1076 357 1099 q 274 1053 311 1053 m 571 1053 q 511 1076 535 1053 q 488 1135 488 1099 q 511 1194 488 1171 q 571 1218 535 1218 q 630 1194 607 1218 q 653 1135 653 1171 q 630 1076 653 1099 q 571 1053 607 1053 z "},"ḣ":{"ha":775,"x_min":101,"x_max":683,"o":"m 101 0 l 101 981 l 261 981 l 261 728 l 256 596 q 351 667 299 636 q 474 699 404 699 q 633 628 583 699 q 683 428 683 557 l 683 0 l 524 0 l 524 407 q 499 526 524 492 q 417 561 474 561 q 338 540 372 561 q 261 476 304 518 l 261 0 l 101 0 m 422 1051 q 352 1078 381 1051 q 324 1143 324 1104 q 352 1208 324 1183 q 422 1233 381 1233 q 493 1208 465 1233 q 521 1143 521 1183 q 493 1078 521 1104 q 422 1051 465 1051 z "},"ȟ":{"ha":775,"x_min":101,"x_max":689,"o":"m 101 0 l 101 981 l 261 981 l 261 728 l 256 596 q 351 667 299 636 q 474 699 404 699 q 633 628 583 699 q 683 428 683 557 l 683 0 l 524 0 l 524 407 q 499 526 524 492 q 417 561 474 561 q 338 540 372 561 q 261 476 304 518 l 261 0 l 101 0 m 342 1049 l 156 1247 l 283 1247 l 419 1149 l 425 1149 l 561 1247 l 689 1247 l 503 1049 l 342 1049 z "},"ḥ":{"ha":775,"x_min":101,"x_max":683,"o":"m 101 0 l 101 981 l 261 981 l 261 728 l 256 596 q 351 667 299 636 q 474 699 404 699 q 633 628 583 699 q 683 428 683 557 l 683 0 l 524 0 l 524 407 q 499 526 524 492 q 417 561 474 561 q 338 540 372 561 q 261 476 304 518 l 261 0 l 101 0 z "},"ḩ":{"ha":775,"x_min":36,"x_max":683,"o":"m 101 0 l 101 981 l 261 981 l 261 728 l 256 596 q 351 667 299 636 q 474 699 404 699 q 633 628 583 699 q 683 428 683 557 l 683 0 l 524 0 l 524 407 q 499 526 524 492 q 417 561 474 561 q 338 540 372 561 q 261 476 304 518 l 261 0 l 101 0 m 50 -324 l 36 -254 q 152 -233 121 -249 q 183 -189 183 -218 q 160 -149 183 -164 q 76 -126 138 -135 l 140 4 l 238 4 l 197 -86 q 274 -122 247 -99 q 301 -187 301 -144 q 235 -285 301 -253 q 50 -324 169 -318 z "},"ḫ":{"ha":775,"x_min":101,"x_max":683,"o":"m 101 0 l 101 981 l 261 981 l 261 728 l 256 596 q 351 667 299 636 q 474 699 404 699 q 633 628 583 699 q 683 428 683 557 l 683 0 l 524 0 l 524 407 q 499 526 524 492 q 417 561 474 561 q 338 540 372 561 q 261 476 304 518 l 261 0 l 101 0 z "},"ẖ":{"ha":775,"x_min":101,"x_max":683,"o":"m 101 0 l 101 981 l 261 981 l 261 728 l 256 596 q 351 667 299 636 q 474 699 404 699 q 633 628 583 699 q 683 428 683 557 l 683 0 l 524 0 l 524 407 q 499 526 524 492 q 417 561 474 561 q 338 540 372 561 q 261 476 304 518 l 261 0 l 101 0 z "}}}
